<svg width="1280" height="898" viewBox="0 0 1280 898" fill="none" xmlns="http://www.w3.org/2000/svg">
<g clip-path="url(#clip0_2492_372)">
<path d="M472.579 0H493.555C497.81 0.796633 502.111 1.2893 506.342 2.12734C535.404 7.88396 563.311 22.7822 580.355 47.5581C595.925 70.2746 601.957 98.1926 597.154 125.309C589.994 163.735 556.647 195.421 515.482 187.718C487.286 182.441 465.039 159.808 470.913 129.679C473.297 117.242 480.575 106.283 491.115 99.2606C510.623 86.1399 532.909 87.7028 549.71 104.144C548.73 90.0825 545.326 77.6417 533.944 68.1761C503.372 42.7535 454.469 51.7279 430.273 81.6936C415.009 100.394 408.762 119.141 410.763 142.882C412.657 166.126 423.727 187.661 441.527 202.731C458.651 217.14 472.96 222.705 493.355 230.279C474.602 244.311 455.777 258.247 436.882 272.086C403.117 241.669 358.556 226.074 313.19 228.796C263.834 231.691 225.429 254.442 192.503 290.043C135.893 351.251 133.807 452.329 197.211 509.518C243.439 551.214 325.425 552.493 367.697 504.23C383.384 486.287 391.355 462.877 389.879 439.09C388.787 422.9 384.229 410.773 376.644 396.722C365.829 404.847 349.254 418.047 338.365 425.057L338.779 425.67C344.445 434.173 345.744 445.994 343.722 455.87C340.85 469.383 332.698 481.187 321.077 488.659C306.09 498.294 287.17 499.747 270.08 495.925C250.381 491.71 233.228 479.698 222.533 462.628C209.246 441.555 204.405 412.508 210.847 388.4C226.416 330.138 286.95 300.097 344.069 313.693C369.177 319.669 385.978 332.066 403.301 350.389C414.758 340.567 432.58 328.24 445.157 318.984L520.986 263.124L632.568 180.843C653.7 165.262 677.125 147.195 698.675 132.556C676.175 179.333 655.806 229.027 633.237 275.494C664 243.707 700.181 214.222 746.475 212.998C787.943 211.901 814.037 242.676 813.3 282.782C813 299.071 810.975 313.627 806.462 329.392C816.087 322.138 825.487 315.097 834.569 307.197C867.025 278.97 885.437 240.716 901.768 201.802C904.143 196.142 907.875 187.135 915.075 189.101C927.625 192.526 939.562 196.582 952.612 192.931C960.387 191.065 973.331 179.178 979.368 185.147C981.112 191.148 974.219 203.92 971.756 209.888L959.8 239.432L917.731 342.474C913.506 352.765 909.137 363.854 904.862 373.555C900.269 383.993 896.137 401.333 908.994 407.489C929.612 417.365 961.4 378.724 974.187 367.085C973.9 314.406 1005.17 260.427 1041.94 221.928C1077.51 184.673 1157.91 133.251 1207.76 176.691C1218.79 186.297 1225.56 207.219 1225.22 221.137C1225.54 252.916 1197.19 290.576 1163.32 290.177C1146.89 289.983 1133.84 281.645 1134.39 263.991C1134.8 247.728 1147.17 240.141 1160.77 234.429C1172.37 229.56 1191.06 227.83 1191.86 211.922C1192.11 206.469 1190.17 201.143 1186.47 197.128C1166.76 175.554 1123.64 203.818 1107.71 219.303C1076.01 250.115 1050.33 294.592 1046.69 339.241C1046.24 350.866 1048.93 365.251 1057.91 373.711C1077.15 391.828 1093.44 388.932 1115.82 379.934C1160.8 361.853 1191.19 311.205 1242.3 310.391C1262.56 310.068 1275.99 324.759 1280 343.252V355.252C1268.33 410.129 1206.1 458.611 1157.02 479.163C1086.93 508.512 1008.06 520.866 933.381 533.595C814.987 553.776 699.268 576.91 583.743 609.894C561.239 616.278 538.884 623.182 516.699 630.6C505.923 634.218 488.804 639.986 478.782 644.698C471.942 668.419 481.229 683.842 500.131 697.253C449.004 707.077 401.921 727.367 362.732 762.313C375.688 734.516 388.67 703.433 400.959 675.175C367.299 687.667 325.369 707.233 293.204 722.906C222.108 757.363 153.116 796.008 86.5898 838.627C56.2336 858.174 29.8866 877.172 0.533203 897.494C5.78646 858.024 22.5573 796.502 35.7084 759.294C39.6192 756.395 50.1441 750.902 54.6966 748.446C68.4529 741.041 82.3416 733.879 96.356 726.974C206.414 673.694 320.249 628.587 436.935 592.029C443.833 574.086 452.095 555.305 459.567 537.453L499.931 441.002C526.532 377.447 553.236 311.029 580.837 248.094C538.339 280.161 494.797 311.05 452.07 342.827C440.807 351.202 429.349 359.653 417.869 367.714C421.555 374.403 424.104 378.739 427.003 385.978C441.145 421.277 442.739 465.549 427.267 500.789C384.818 593.842 265.663 612.746 178.407 576.743C71.6235 532.683 33.9168 404.213 76.256 301.924C98.291 248.688 147.95 203.1 201.874 182.007C263.446 157.921 322.54 159.504 383.459 185.836C374.302 170.576 367.9 153.824 364.547 136.347C351.051 68.6798 394.154 15.6271 459.573 2.24655C463.884 1.36473 468.247 0.840939 472.579 0ZM508.842 572.959C625.181 547.119 742.419 525.501 860.325 508.145L1009.68 485.987C1084.49 474.35 1178.42 462.654 1226.41 397.215C1247.01 369.13 1228.11 329.568 1193.98 351.826C1178.02 362.241 1163.12 380.099 1148.01 392.593C1121.21 414.726 1081.84 441.495 1045.01 437.79C1014.55 434.728 991.85 419.809 979.475 391.226C953.45 423.178 913.837 461.731 870.65 468.172C848.781 471.434 828.081 461.053 826.406 437.545C824.144 410.548 836.162 385.363 844.687 360.366C847.762 351.515 853.206 336.729 857.05 328.358C837.912 347.586 814.737 365.005 790.281 376.853C785.493 386.403 781.1 395.189 775.218 404.169C753.218 437.736 721.119 465.155 682.737 477.907C663.05 484.447 642.237 486.582 623.044 476.987C610.1 470.564 599.975 458.291 595.721 444.461C590.14 426.316 593.045 406.294 601.642 389.583C616.075 361.52 639.925 349.98 669.925 347.581C661.962 362.335 654.956 382.251 673.856 391.965C681.787 396.095 691.044 396.868 699.55 394.112C732.269 383.475 756.893 311.359 747.175 279.364C743.056 265.809 729.362 259.063 715.8 260.162C682.831 264.829 645.219 295.133 625.431 320.701C608.525 342.543 592.752 378.029 580.723 403.197C554.236 458.614 532.368 516.229 508.842 572.959ZM689.7 418.702C669.881 418.35 649.531 412.974 640.293 394.246C639.156 391.949 637.387 384.127 636.256 383.048C598.464 412.337 628.662 460.936 668.144 436.744C677.025 431.274 682.425 426.129 689.7 418.702ZM319.975 362.71C292.956 365.055 277.08 382.107 275.378 408.958C289.668 402.275 301.015 400.174 316.347 405.541C319.654 406.998 320.767 407.66 323.79 409.662C333.477 400.605 350.926 388.092 361.655 379.682C350.576 370.454 335.011 361.311 319.975 362.71Z" fill="black"/>
<path d="M993.626 1.40398C1038.57 -2.75245 1035.51 79.6322 988.276 87.4012C982.182 87.8973 976.095 86.4044 970.926 83.1468C943.132 65.2568 957.145 8.64257 993.626 1.40398Z" fill="black"/>
<path d="M1247.62 158.084C1260.05 156.537 1271.38 165.37 1272.9 177.801C1274.43 190.232 1265.58 201.542 1253.14 203.048C1240.74 204.549 1229.46 195.723 1227.93 183.321C1226.41 170.919 1235.22 159.627 1247.62 158.084ZM1251.61 200.037C1258.58 199.604 1264.78 195.437 1267.81 189.141C1270.84 182.846 1270.24 175.402 1266.23 169.678C1262.23 163.954 1255.44 160.841 1248.48 161.537C1238.01 162.587 1230.3 171.828 1231.15 182.32C1232 192.812 1241.1 200.69 1251.61 200.037Z" fill="black"/>
<path d="M1239.99 167.762C1244.42 167.698 1254.32 166.977 1257.99 168.881C1265.36 172.719 1259.16 178.937 1257.11 182.119C1259.09 184.985 1262.09 188.448 1261.01 192.014C1258.98 193.35 1259.02 192.924 1256.33 192.936L1256.31 192.459C1255.83 183.299 1252.91 183.92 1244.61 183.974C1244.66 185.313 1244.69 186.651 1244.71 187.99C1244.74 190.223 1244.89 191.48 1243.45 192.956C1241.07 192.862 1241.19 193.281 1239.89 192.058C1239.43 188.636 1239.05 170.498 1239.99 167.762ZM1244.42 180.355C1248 180.2 1252.3 180.196 1255.69 179.287C1256.32 176.884 1256.56 176.296 1256.3 173.854C1253.77 170.495 1248.72 171.807 1244.49 171.693C1244.48 174.489 1244.53 177.589 1244.42 180.355Z" fill="black"/>
</g>
<defs>
<clipPath id="clip0_2492_372">
<rect width="1280" height="898" fill="white"/>
</clipPath>
</defs>
</svg>
