<svg width="2500" height="1563" viewBox="0 0 2500 1563" fill="none" xmlns="http://www.w3.org/2000/svg">
<path d="M690.641 282.429C734.483 280.233 777.945 291.505 815.194 314.731C869.2 348.397 899.294 396.419 913.495 457.402C917.225 440.542 921.544 426.012 928.643 410.211C952.189 357.967 995.483 317.185 1049.04 296.801C1102.49 276.561 1161.78 278.302 1213.95 301.644C1224.65 306.488 1250.74 318.041 1254.16 329.502C1259.16 346.273 1234.24 367.374 1225.8 381.399C1217.35 395.438 1211.37 407.141 1205.2 422.39C1194.3 449.332 1174.83 428.255 1158.83 421.143C1139.38 412.011 1117.12 411.793 1096.99 419.101C1075.44 426.916 1057.96 443.086 1048.48 463.958C1039.08 484.666 1038.44 508.291 1046.7 529.479C1054.99 550.684 1071.38 567.714 1092.25 576.803C1109.6 584.309 1143.31 587.164 1158.42 577.007C1199.35 549.484 1199.19 569.653 1215.08 606.416C1223.22 625.271 1245.53 644.269 1251.69 662.295L1251.61 662.825C1247.73 689.969 1195.23 704.939 1171.58 710.055C1115.47 722.237 1056.82 711.593 1008.56 680.472C957.142 647.237 926.058 598.572 913.404 539.24C905.486 576.836 890.402 609.443 865.273 638.763C827.969 682.46 774.76 709.45 717.466 713.737C660.029 718.138 603.214 699.405 559.659 661.704C516.226 624.174 489.547 570.878 485.529 513.617C481.388 456.122 500.43 399.362 538.407 355.997C578.286 310.32 630.673 286.525 690.641 282.429ZM704.5 582.977C751.136 581.108 787.49 541.899 785.837 495.255C784.183 448.611 745.142 412.075 698.49 413.514C651.534 414.962 614.707 454.315 616.372 501.264C618.036 548.213 657.559 584.858 704.5 582.977Z" fill="black"/>
<path d="M1425.72 283.426C1429.06 283.243 1432.41 283.111 1435.75 283.029C1494.57 281.704 1550.01 305.413 1592.86 345.022C1675.58 421.493 1661.29 531.196 1660.41 633.111C1660.24 652.961 1660.65 673.967 1659.27 693.818C1658.29 707.803 1650.77 712.634 1637.56 712.991C1616.99 713.794 1596.51 713.643 1575.98 713.737L1459.25 714.228C1396.7 714.839 1344.15 713.191 1294.27 670.162C1250.18 632.116 1223.01 575.97 1218.77 518.122C1214.81 460.334 1233.84 403.323 1271.7 359.489C1311.73 313.324 1365.13 287.847 1425.72 283.426ZM1446.49 590.82C1494.87 586.727 1530.79 544.207 1526.73 495.825C1522.67 447.442 1480.18 411.498 1431.79 415.521C1383.36 419.547 1347.37 462.094 1351.43 510.527C1355.49 558.959 1398.06 594.917 1446.49 590.82Z" fill="black"/>
<path d="M277.115 761.251C291.354 760.001 367.202 759.444 377.047 762.409C384.318 764.598 390.024 770.682 392.302 777.871C396.006 789.557 393.748 816.221 393.718 829.512L393.594 957.45C393.551 979.883 393.043 1002.68 393.974 1025.04C394.77 1044.18 408.682 1059.72 426.524 1065.3C439.063 1069.22 452.655 1067.9 464.204 1061.64C474.995 1055.82 482.983 1045.89 486.36 1034.11C489.18 1024.34 488.261 994.158 488.245 982.666L488.097 853.864C488.08 829.61 486.443 800.14 490.294 776.216C491.589 768.171 502.942 761.337 511.013 761.087C534.103 760.371 557.633 760.926 580.772 760.756C588.83 761.215 598.742 759.696 606.454 762.279C618.943 766.463 623.223 776.169 623.31 788.12C623.459 808.681 623.383 829.224 623.351 849.643L623.28 965.519L623.386 1036.26C623.977 1094.65 625.492 1141.31 604.004 1196.31C600.607 1204.51 596.729 1212.5 592.392 1220.24C556.719 1283.49 489.343 1326.68 420.52 1345.67C400.06 1351.31 325.579 1365.66 308.937 1355.4C305.492 1353.28 303.892 1349.14 302.914 1345.39C299.192 1331.11 298.025 1253.75 305.857 1242.04C306.519 1241.05 307.935 1239.15 308.958 1238.52C314.449 1235.1 336.633 1236.96 344.01 1236.47C350.377 1236 356.71 1235.15 362.978 1233.94C369.689 1232.64 382.278 1229.85 388.121 1227.4C400.701 1222.13 446.37 1202.18 442.716 1186.56C438.024 1180.82 419.715 1181.43 411.57 1180.6C395.811 1178.86 380.319 1175.22 365.431 1169.77C324.873 1155.07 290.799 1127.37 272.497 1087.57C265.521 1072.32 261.118 1056.02 259.464 1039.33C257.924 1024.19 258.396 1007.34 258.429 992.03L258.46 928.81L258.45 833.075C258.451 817.723 257.066 791.604 260.241 776.083C261.62 769.34 270.678 764.065 277.115 761.251Z" fill="black"/>
<path d="M2021.29 283.133C2035.72 282.498 2108.91 281.19 2119.57 284.288C2127.21 286.508 2133.36 292.952 2135.44 300.622C2138.97 313.571 2136.71 338.533 2136.67 353.126L2136.56 483.133C2136.54 498.848 2135.54 535.316 2137.04 548.974C2137.7 554.738 2139.46 560.32 2142.24 565.415C2148.45 576.594 2158.96 584.75 2171.33 587.993C2214.33 599.556 2237.2 559.001 2231.24 523.101C2229.76 514.199 2231.22 491.057 2231.21 481L2231.03 352.162C2230.9 265.319 2234.84 285.613 2317.94 282.742C2337.56 282.064 2365.41 279.921 2366.17 307.388C2366.72 327.483 2366.3 348.477 2366.28 368.743L2366.2 484.408L2366.32 558.868C2366.98 616.843 2368.35 662.237 2347.45 717.253C2339.23 736.367 2330.88 751.958 2318.03 768.395C2269.7 830.194 2192.11 868.16 2114.98 877.33C2104.5 878.167 2057.32 884.944 2050.71 876.664C2038.3 861.14 2044.82 794.565 2045.06 775.761C2045.38 750.39 2078.05 760.822 2095.93 757.955C2127.79 752.848 2160.3 740.333 2183.79 717.482C2186.01 715.316 2186.44 712.373 2186.13 709.503C2181.27 702.27 2164.4 703.913 2155.73 702.966C2134.94 700.567 2114.63 695.057 2095.49 686.622C2056.54 669.177 2026.89 640.182 2011.38 599.766C1999.82 569.655 2001.42 543.218 2001.4 511.571L2001.38 442.461L2001.4 356.163C2001.4 340.939 2001.29 325.727 2001.53 310.503C2001.77 295.064 2006.59 288.251 2021.29 283.133Z" fill="black"/>
<path d="M843.101 761.471C962.245 751.382 1066.94 839.953 1076.73 959.121C1086.53 1078.29 997.701 1182.77 878.508 1192.27C759.731 1201.73 655.699 1113.28 645.939 994.528C636.179 875.775 724.373 771.525 843.101 761.471ZM870.501 1061.1C917.097 1056.05 950.757 1014.15 945.644 967.559C940.532 920.969 898.588 887.366 852.005 892.54C805.51 897.705 771.985 939.552 777.087 986.054C782.19 1032.56 823.992 1066.14 870.501 1061.1Z" fill="black"/>
<path d="M1421.13 760.56C1436.19 759.073 1452.97 758.845 1454.17 779.323C1454.96 792.727 1454.07 806.862 1454.06 820.405L1454.11 915.978L1454.17 1084.89C1454.17 1098.79 1455.7 1183.07 1451.57 1188.13C1438.6 1196.8 1392.06 1191.97 1375.27 1192.53C1369.53 1192.73 1366.09 1185 1362.88 1180.72C1354.87 1181.27 1344.19 1186.09 1335.94 1187.86C1268.57 1202.31 1200.45 1187.73 1150.91 1138.46C1094.68 1082.53 1098.89 1013.08 1099.16 939.75L1099.73 835.917C1099.8 817.463 1097.81 786.577 1103.25 768.681C1103.98 766.274 1109.45 761.72 1112.2 761.558C1144.79 759.638 1178.09 760.836 1210.8 761.086C1224.1 761.209 1230.26 766.355 1230.84 780.025C1231.68 799.641 1231.18 819.544 1231.12 839.203L1230.79 945.134C1230.73 964.169 1230.41 984.006 1230.84 1002.8C1231.18 1017.8 1234.99 1036.45 1246.94 1046.46C1256.88 1054.79 1266.86 1059.19 1280.09 1058.28C1297.03 1056.98 1311.8 1046.24 1318.27 1030.52C1324.99 1014.08 1323.12 974.255 1323.09 955.181L1322.82 836.74C1322.78 817.969 1321.17 797.911 1323.15 779.3C1323.63 774.744 1324.8 768.519 1328.03 765.147C1335.4 757.477 1407.16 761.253 1421.13 760.56Z" fill="black"/>
<path d="M1845.12 761.41C1852.08 760.94 1859.07 760.771 1866.05 760.904C1921.72 761.643 1974.58 785.835 2014.1 824.561C2021.69 831.992 2024.05 843.095 2014.88 850.588C2000.41 862.403 1986.52 871.193 1971 882.172C1963.13 887.07 1944.54 902.377 1936.06 903.642C1931.57 904.311 1899.29 884.818 1892.95 882.307C1875.93 875.571 1828.44 862.829 1823.53 890.571C1820.53 907.536 1878.91 913.972 1889.72 917.004C1918.15 923.173 1945.7 931.903 1970.6 946.888C2085.94 1016.28 2028.56 1160.67 1913.64 1186.36C1890.3 1191.57 1875.99 1193 1852.02 1192.72C1786.58 1189.73 1724.59 1171.44 1680.9 1119.96C1675.92 1114.09 1673.6 1103.22 1680.15 1097.51C1692.82 1086.43 1708.56 1078.59 1722.53 1069.2C1734.77 1061.52 1748.92 1051.04 1762.68 1046.85C1768.23 1045.35 1776.62 1053.09 1780.87 1056.08C1786.92 1060.28 1793.37 1063.88 1800.12 1066.82C1824.56 1077.71 1876.62 1089.21 1900.1 1068.98C1902.42 1066.97 1904.21 1061.59 1903.66 1058.47C1899.53 1031.06 1855.42 1023.18 1831.91 1018.85C1769.31 1007.31 1701.92 982.098 1696.08 907.881C1693.4 873.941 1701.69 843.459 1724.82 816.191C1755.81 779.646 1798.79 765.271 1845.12 761.41Z" fill="black"/>
<path d="M116.057 282.261C133.616 281.423 228.068 280.11 238.359 284.679C242.977 286.729 245.978 291.28 247.07 296.094C249.668 307.555 247.798 332.465 247.791 345.455C247.78 370.506 245.273 552.538 249.741 562.925C251.965 568.095 259.716 570.402 264.856 571.314C276.43 573.368 289.982 572.089 301.791 572.07C324.465 572.035 448.716 569.153 461.896 574.436C465.93 576.053 468.521 578.289 470.163 582.351C471.456 585.55 471.917 589.191 472.078 592.624C472.719 606.254 471.706 620.277 471.765 633.957C471.852 654.296 472.849 674.979 471.935 695.269C471.794 698.381 471.487 701.958 470.191 704.808C467.5 710.727 462.536 712.95 456.8 715.004C434.836 715.943 406.63 715.154 384.297 715.152L245.367 715.174C229.635 715.181 123.701 717.215 113.616 714.078C108.758 712.618 104.737 709.184 102.535 704.614C99.8479 699.14 101.095 485.047 101.092 460.413L101.069 354.435C101.057 336.826 99.49 310.156 102.696 292.597C103.594 287.677 111.318 284.107 116.057 282.261Z" fill="black"/>
<path d="M1672.45 760.476C1683.12 760.472 1708.4 759.065 1716.64 766.508C1733.85 782.048 1710.86 794.604 1702.05 805.463C1693.13 816.578 1685.95 828.995 1680.78 842.28C1675 857.001 1673.22 875.583 1666.58 888.536C1661.99 897.487 1615.89 885.361 1613.97 897.424C1611.58 912.425 1612.92 932.712 1612.9 947.928L1612.83 1104.06C1612.83 1125.3 1614.84 1156.28 1612.6 1176.61C1612.14 1180.86 1610.72 1184.54 1607.68 1187.63C1599.09 1196.36 1547.49 1192.63 1534.5 1192.57C1522.38 1192.41 1508.53 1193.8 1496.76 1192.24C1488.94 1191.2 1486 1187.51 1482.07 1181.54C1481.78 1178.58 1481.65 1174.27 1481.64 1171.28C1481.51 1112.96 1481.67 1054.56 1481.62 996.247L1481.55 931.861C1481.53 911.585 1480.56 889.476 1484.94 869.786C1490.59 844.83 1502.99 821.907 1520.79 803.523C1567.53 755.225 1613.26 761.183 1672.45 760.476Z" fill="black"/>
<path d="M1695.9 283.14C1711.44 282.284 1792.88 281.343 1804.13 284.5C1807.76 285.518 1810.28 288.141 1812.08 291.366C1814.51 295.715 1814.52 300.981 1814.66 305.84C1815.35 330.533 1814.59 355.42 1814.55 380.133L1814.57 523.271L1814.6 627.505C1814.65 644.664 1814.98 661.944 1814.74 679.089C1814.52 694.891 1818.05 706.027 1802.15 714.042C1787.22 715.032 1704.46 715.881 1693.67 712.67C1689.37 711.388 1687.29 709.017 1685.21 705.105C1683.17 701.255 1683.25 696.384 1683.15 692.119C1682.54 666.192 1683.21 640.125 1683.24 614.181L1683.21 464.719C1683.2 440.926 1681.02 303.644 1684.61 293.515C1686.55 288.058 1691.03 285.55 1695.9 283.14Z" fill="black"/>
<path d="M1854.88 283.091C1871.95 282.49 1949.37 280.917 1961.61 284.505C1966.23 285.861 1969.05 287.92 1971.19 292.295C1972.52 295.016 1972.9 297.809 1972.98 300.805C1973.67 325.103 1973.11 349.544 1973.1 373.86L1973.06 509.929C1973.05 534.224 1975.28 694.627 1971.75 703.995C1969.71 709.403 1965.26 711.919 1960.28 714.124C1943.97 714.982 1864.78 716.164 1852.63 712.639C1847.94 711.278 1845.73 709.213 1843.51 704.769C1841.73 701.206 1841.97 696.16 1841.91 692.251C1841.39 657.559 1840.37 300.25 1843.09 293.441C1845.29 287.943 1849.79 285.393 1854.88 283.091Z" fill="black"/>
</svg>
