<svg width="81" height="10" viewBox="0 0 81 10" fill="none" xmlns="http://www.w3.org/2000/svg">
<path d="M0.0552631 0.172494C1.93018 0.157782 6.59514 -0.46783 6.45932 2.38475C6.3976 3.68052 5.84205 4.17263 4.6817 4.51613C6.43653 5.14167 6.99502 6.07335 6.39801 7.91392C5.31839 10.1447 2.03487 9.10322 0.094265 9.40668L0.0280292 9.41763C-0.0289006 7.19935 0.0433567 4.94837 0.0105125 2.72667C-0.00146188 1.9209 -0.0179519 0.967869 0.0552631 0.172494ZM2.03309 7.95545C2.75669 7.96941 3.73572 8.08053 4.29667 7.61059C4.71317 6.95672 4.97948 6.08704 4.19123 5.58555C3.53653 5.16911 2.78119 5.30836 2.05567 5.21954C2.05191 6.08854 2.07134 7.09754 2.03309 7.95545ZM2.04165 3.83885C2.63962 3.85699 3.76083 3.96818 4.20094 3.57336C5.35541 1.66711 3.40228 1.57193 2.05971 1.54312L2.04165 3.83885Z" fill="black"/>
<path d="M32.9098 0.17987C33.7989 0.169606 34.9756 0.12903 35.8504 0.204913C36.4932 1.81879 37.0649 3.55296 37.6759 5.18709C37.98 6.00074 38.2001 6.88411 38.5198 7.71992C38.3039 5.44601 38.5417 2.54786 38.4443 0.20683C39.0388 0.178707 39.5103 0.170358 40.1048 0.186028C39.9869 3.16342 40.2231 6.45775 40.0609 9.39148C39.1035 9.41235 38.2471 9.37882 37.317 9.38307C36.3938 6.84641 35.486 4.30413 34.5934 1.75652C34.6523 3.98821 34.6172 6.30311 34.6089 8.54191C34.5555 8.73097 34.5395 8.76395 34.4378 8.93241C34.1837 8.98325 33.6404 9.11251 33.4479 8.9875C32.5719 8.41834 33.2502 6.56264 32.9155 5.66573C32.8575 3.86108 32.9258 1.9904 32.9098 0.17987Z" fill="black"/>
<path d="M75.3466 0.178356C76.0137 0.170897 77.504 0.0589523 78.0542 0.29762C78.3272 0.625513 80.4627 8.54847 80.6488 9.35472C79.9564 9.40433 79.2769 9.33084 78.6098 9.40105C78.5071 8.79104 78.2512 7.91855 78.074 7.32236C77.1906 7.27624 76.154 7.2902 75.2658 7.28541C75.0496 7.89289 74.856 8.70694 74.6219 9.38894C74.0602 9.41159 73.4259 9.38114 72.8648 9.34255L72.8217 9.26338C72.91 8.53424 73.5162 6.46821 73.7666 5.6274C74.2812 3.9024 74.765 1.85176 75.3466 0.178356ZM75.5614 5.89439L76.7869 5.92046L77.7695 5.92327C77.5916 5.36772 76.8684 1.98663 76.7288 1.85334C76.271 2.64146 75.9036 4.86706 75.5614 5.89439Z" fill="black"/>
<path d="M10.6533 0.196313C11.4194 0.133909 12.6054 0.163468 13.3704 0.197133C14.1103 3.10438 15.1075 6.45017 15.9362 9.36906C15.2505 9.38705 14.5347 9.37227 13.8476 9.35845C13.7536 8.98286 13.4565 7.49852 13.2228 7.30433C12.3172 7.30494 11.3652 7.32218 10.4644 7.26929C10.3475 7.88265 10.0668 8.81488 9.86427 9.38972C9.20355 9.41668 8.66936 9.31124 7.97942 9.4021C8.31224 7.82798 8.92889 6.07165 9.34458 4.50628C9.49545 3.93801 10.4113 0.427043 10.6533 0.196313ZM10.8304 5.90804L11.8855 5.92056L13.0487 5.92227C12.8503 5.31856 12.1023 1.9792 11.8894 1.77249C11.4675 3.02802 11.2524 4.63417 10.8304 5.90804Z" fill="black"/>
<path d="M57.8926 0.194899C58.4728 0.164928 60.165 0.0109731 60.6001 0.31485C60.8472 0.487007 63.0162 8.55017 63.151 9.3855C62.477 9.38434 61.8024 9.37038 61.1284 9.34363C61.0264 8.89975 60.778 7.61945 60.5228 7.31434C59.6702 7.27082 58.6986 7.30373 57.8118 7.27287C57.5573 7.95117 57.4355 8.63447 57.1365 9.37127C56.6561 9.41349 55.8711 9.37045 55.3843 9.35013C55.3409 8.99664 57.5976 0.766044 57.8926 0.194899ZM58.0629 5.88377C58.4235 5.89869 58.8074 5.92154 59.1673 5.91976C59.4677 5.92298 60.0165 5.95616 60.2799 5.86632C60.2874 5.81199 59.2912 1.81712 59.2576 1.77997C58.7438 2.80081 58.585 4.6931 58.0629 5.88377Z" fill="black"/>
<path d="M67.3004 0.0499611C69.568 -0.175637 70.8161 0.307923 71.2649 2.63459C70.9091 2.63212 69.4749 2.69795 69.3545 2.54516C68.9241 1.99851 69.0555 1.16509 67.8314 1.4134C66.5997 1.69395 66.4923 3.39178 66.4936 4.44327C66.4943 5.42189 66.3616 7.21477 67.2723 7.84154C67.8669 8.251 68.7195 8.04216 69.3655 7.89471L69.3668 5.81048C68.9111 5.79665 68.4547 5.79385 67.999 5.80213L68.0202 4.37827C68.5546 4.2228 70.4924 4.28911 71.1678 4.29684C71.111 5.78707 71.2102 7.34847 71.1466 8.86628C69.8088 9.63291 67.1786 9.73726 65.8368 8.9189C64.4429 8.03429 64.4279 6.30136 64.4368 4.85499C64.4505 2.47831 64.6072 0.643139 67.3004 0.0499611Z" fill="black" fill-opacity="0.988235"/>
<path d="M45.5061 0.0506532C47.2424 -0.0725122 49.0161 0.390932 49.2443 2.50507C49.2605 2.65588 49.2161 2.66983 49.1217 2.77001C48.7606 2.85616 47.7594 2.79457 47.3053 2.7956C47.2448 2.52163 47.194 2.20283 47.1423 1.92331C46.7621 1.56497 46.5915 1.52569 46.0985 1.38946C45.8438 1.44057 45.551 1.548 45.3003 1.63203C44.4914 2.60428 44.6091 4.16486 44.6108 5.37291C44.6129 6.89537 45.0275 8.79553 46.9836 7.79105C47.2464 7.3415 47.3253 7.06403 47.4208 6.57171C47.9888 6.60914 48.5294 6.54633 49.0956 6.62933C49.9518 7.34095 48.2238 9.19774 47.2885 9.3716C43.1391 10.1429 42.2415 7.1679 42.6002 3.70148C42.8227 1.55197 43.2126 0.503765 45.5061 0.0506532Z" fill="black" fill-opacity="0.988235"/>
<path d="M25.029 0.207633C26.3794 0.112522 28.282 0.171915 29.6814 0.169931C29.7062 0.269147 29.7145 1.00725 29.6544 1.11844C29.5311 1.34623 29.359 1.39351 29.1332 1.4553L29.4545 1.37545C28.7706 1.76876 27.1502 1.2243 26.9525 1.66625C26.9644 2.38424 26.9624 3.10243 26.9465 3.82042C27.9513 3.85326 28.9566 3.86913 29.9619 3.86797C29.9468 4.40429 29.947 4.84036 29.9693 5.37613L26.946 5.38366C26.9686 6.13388 26.9714 7.06795 26.927 7.80687C27.989 7.8545 29.1794 7.84047 30.2512 7.85046L30.2046 9.37648C28.552 9.40747 26.6095 9.30983 25.0165 9.38818C25.1244 6.53491 25.0256 3.11427 25.029 0.207633Z" fill="black" fill-opacity="0.988235"/>
<path d="M17.9142 0.209236C18.5756 0.157643 19.1905 0.174955 19.8514 0.185493C19.7242 2.61288 19.9493 5.36001 19.8123 7.80642C20.7343 7.83317 21.6567 7.84337 22.5791 7.83715C22.6222 8.02326 22.5868 8.60446 22.4615 8.81781C22.2786 8.97245 22.2306 8.9756 22.006 9.01953L22.4216 9.09788C22.1705 9.29043 18.6039 9.06312 17.9023 9.30206C18.0129 6.51319 17.9208 3.05244 17.9142 0.209236Z" fill="black" fill-opacity="0.988235"/>
<path d="M51.3231 0.216002C51.8513 0.15743 52.5479 0.172825 53.0929 0.17043C53.0796 0.189178 52.9112 0.426273 52.9112 0.426273C52.9192 2.36681 52.9643 4.31077 52.9502 6.25152C52.9441 7.08931 53.0384 8.23154 52.7372 8.99208L52.8366 9.13345C52.6743 9.23185 51.6891 9.11682 51.3114 9.2172C51.3331 9.03369 51.3346 8.86433 51.3331 8.68041C51.3096 5.86252 51.3671 3.033 51.3231 0.216002Z" fill="black"/>
<path d="M53.0929 0.17043C53.1879 0.206558 53.3277 0.234301 53.325 0.304232C53.2547 2.10176 53.5142 7.87507 53.2993 9.36592C52.6487 9.40363 52.1038 9.41744 51.4531 9.34662L51.3114 9.2172C51.6891 9.11682 52.6743 9.23185 52.8366 9.13345L52.7372 8.99208C53.0384 8.23154 52.9441 7.08931 52.9502 6.25152C52.9643 4.31077 52.9192 2.36681 52.9112 0.426273C52.9112 0.426273 53.0796 0.189178 53.0929 0.17043Z" fill="black" fill-opacity="0.976471"/>
<path d="M22.5791 7.83715L22.8525 7.86541C23.1246 8.21192 22.99 8.88652 22.9542 9.35852C22.3792 9.39034 18.1168 9.46546 17.9023 9.30206C18.6039 9.06312 22.1705 9.29043 22.4216 9.09788L22.006 9.01953C22.2306 8.9756 22.2786 8.97245 22.4615 8.81781C22.5868 8.60446 22.6222 8.02326 22.5791 7.83715Z" fill="black" fill-opacity="0.956863"/>
<path d="M29.6814 0.169931C29.9567 0.202364 29.9144 0.153092 30.0659 0.317791C30.1802 0.694677 30.1052 1.27957 30.0727 1.68992C29.3643 1.72249 27.571 1.81125 26.9525 1.66625C27.1502 1.2243 28.7706 1.76876 29.4545 1.37545L29.1332 1.4553C29.359 1.39351 29.5311 1.34623 29.6544 1.11844C29.7145 1.00725 29.7062 0.269147 29.6814 0.169931Z" fill="black" fill-opacity="0.956863"/>
<path d="M32.9155 5.66573C33.2502 6.56264 32.5719 8.41834 33.4479 8.9875C33.6404 9.11251 34.1837 8.98325 34.4378 8.93241C34.5395 8.76395 34.5555 8.73097 34.6089 8.54191C34.6153 8.77688 34.646 9.00528 34.5443 9.21282C34.072 9.614 33.6916 9.28692 32.8891 9.42042C32.9287 8.19226 32.8865 6.9112 32.9155 5.66573Z" fill="black" fill-opacity="0.941176"/>
</svg>
