<svg width="76" height="12" viewBox="0 0 76 12" fill="none" xmlns="http://www.w3.org/2000/svg">
<path d="M5.96744 0.0081208C7.94734 -0.0925686 10.0705 0.746493 11.2928 2.33468C11.3417 2.83527 11.3137 3.85346 11.3153 4.39465C10.6144 2.97242 9.97321 1.77376 8.44318 1.10712C7.26831 0.595188 6.07908 0.531647 4.87796 0.990003C3.88074 1.36587 3.14922 2.25693 2.73196 3.22515C1.68612 5.65191 2.04873 9.67667 4.76948 10.8824C5.7074 11.2981 6.94074 11.264 7.8722 10.8624C8.39563 10.6368 9.14505 10.185 9.37435 9.63089C9.30672 8.26751 9.63523 7.54641 8.88921 6.40582C9.41056 6.45703 11.2631 6.44761 11.7847 6.39896C11.1288 7.48726 11.3585 8.44625 11.3061 9.73271C10.1788 10.978 8.24827 11.7619 6.57967 11.862C4.89814 11.9726 3.24177 11.4092 1.97643 10.2962C0.759015 9.20638 0.101076 7.78242 0.0114963 6.15615C-0.0851872 4.62632 0.430973 3.12096 1.44603 1.97233C2.68435 0.596027 4.16978 0.102594 5.96744 0.0081208Z" fill="black"/>
<path d="M60.261 0.0531025C62.2461 -0.174176 64.9402 0.481663 66.2964 2.02792C66.3433 2.60976 66.328 3.94028 66.2663 4.50573C65.9299 3.30984 65.2052 2.25959 64.2071 1.51988C62.625 0.362375 60.1317 0.330998 58.7104 1.77864C55.6522 4.89409 57.187 11.9349 62.4168 11.1046C64.2797 10.6502 65.4928 9.47168 66.2851 7.73944C66.3206 8.27022 66.3467 9.24593 66.3073 9.76107C64.2658 12.2029 59.6877 12.5109 57.2215 10.5673C54.7223 8.59754 54.3577 4.73711 56.2196 2.21469C57.2176 0.862071 58.6542 0.2568 60.261 0.0531025Z" fill="black"/>
<path d="M41.6779 0.053754C41.7653 0.0475874 41.8527 0.0422109 41.9402 0.0377216C44.0786 -0.0717985 46.0386 0.471411 47.649 1.92487C47.7343 2.71317 47.5912 3.46111 47.7363 4.33293C46.9658 3.1917 46.7354 2.16226 45.4545 1.40874C41.9737 -0.638935 38.7845 1.71954 38.5752 5.50129C38.3941 8.77461 40.512 11.7939 43.9358 11.0786C45.7811 10.6787 46.7412 9.33262 47.7096 7.86362C47.6499 8.41961 47.6697 9.2783 47.6692 9.86078C45.3905 12.1537 41.3018 12.5311 38.6901 10.6117C36.0836 8.69612 35.7706 4.59548 37.6955 2.10701C38.6928 0.81773 40.1093 0.257057 41.6779 0.053754Z" fill="black"/>
<path d="M18.913 0.451884C19.6893 0.385432 20.8703 0.423074 21.6508 0.444435C21.398 0.696479 21.2434 0.876249 21.2067 1.24857C21.1229 2.42685 21.0832 3.76033 21.1277 4.93915C21.1723 6.12295 20.8883 8.5982 21.6067 9.51122C22.9203 11.1806 25.7991 11.4024 27.4785 10.1551C28.0278 9.75502 28.3898 9.14798 28.4809 8.47453C28.6058 7.61203 28.4895 6.27362 28.509 5.37284C28.5381 4.02757 28.5175 2.6488 28.4885 1.30446C28.4817 0.986807 28.3493 0.779606 28.1865 0.528597L28.2442 0.47142C28.5415 0.402945 29.1615 0.426576 29.4919 0.428303L29.5369 0.528153C29.0878 1.35789 29.2173 2.48101 29.2191 3.4184L29.2256 7.12925C29.2264 7.79136 29.2807 8.74566 29.0189 9.34176C28.6387 10.207 27.7896 10.8059 26.936 11.1452C25.2317 11.8161 23.1981 11.7988 21.5126 11.0815C20.4113 10.6128 19.4408 9.7977 19.3579 8.52208C19.3127 7.82678 19.3308 7.12422 19.3323 6.42571L19.3354 2.72867C19.3347 2.26888 19.3692 1.57442 19.2557 1.12805C19.1862 0.854888 18.9219 0.57433 18.913 0.451884Z" fill="black"/>
<path d="M73.4596 0.448493C73.8533 0.434729 75.6002 0.355105 75.8468 0.506361C75.6391 0.848636 75.5296 1.08178 75.5331 1.50082C75.5587 4.52594 75.4901 7.55718 75.5567 10.5805C75.5632 10.858 75.7945 11.1773 75.91 11.4338C75.4517 11.3989 73.8513 11.408 73.4186 11.4531C73.4655 11.3701 73.5099 11.2858 73.5518 11.2003C73.9046 10.4903 73.8034 9.43042 73.8034 8.63009L73.8 2.74195C73.799 2.21157 73.8044 1.67941 73.763 1.15036C73.7428 0.885735 73.5326 0.695159 73.4596 0.448493Z" fill="black"/>
</svg>
