<svg width="65" height="42" viewBox="0 0 65 42" fill="none" xmlns="http://www.w3.org/2000/svg">
<path d="M0.06401 0.00605979C1.74964 0.0461724 3.60698 0.00852424 5.30622 0.00864752L62.6936 0.00615175C63.3913 0.00591495 64.3113 -0.0198276 64.9847 0.0357955L64.9802 36.8394C64.9814 38.1856 65.0437 40.0567 64.9566 41.3487C63.7685 41.2827 62.0751 41.3336 60.8398 41.3336L3.23005 41.3332C2.34014 41.3332 0.860795 41.2836 0.0366737 41.3511C-0.0379985 37.8515 0.0244381 34.1303 0.0246815 30.6194L0.0233978 2.95711C0.0231715 2.59361 -0.00426608 0.252619 0.06401 0.00605979ZM62.9336 39.6365C62.84 37.0079 62.9572 34.0608 62.9169 31.3936C61.5449 31.4203 60.0924 31.3901 58.7119 31.3902L6.78545 31.3915L3.83659 31.4011C3.42862 31.4029 2.52588 31.4354 2.1634 31.3617C2.10901 32.1379 2.15444 32.9948 2.13956 33.7786C2.10322 35.6925 2.19133 37.7067 2.13777 39.6107C3.99657 39.6715 6.06101 39.6314 7.93109 39.6315L58.3306 39.6306C59.7824 39.6306 61.5165 39.5844 62.9336 39.6365ZM49.2785 19.491C48.6332 19.5391 47.3877 19.5358 46.7432 19.468C45.0856 19.2936 43.3296 18.4566 42.0939 17.352C40.4481 15.9502 39.3078 13.7283 39.1042 11.5833C38.8694 9.11061 39.6842 6.68966 41.307 4.80542C42.7209 3.16401 44.278 2.62204 46.3148 2.1317C46.6851 2.04251 47.1066 2.00369 47.4817 1.9153C46.6411 1.82241 45.6341 1.90484 44.7638 1.89984L38.4861 1.8982C37.6305 1.89946 36.2753 1.94762 35.4584 1.89868C35.4015 4.35143 35.4438 6.94379 35.4448 9.40636L35.4437 12.4919C35.4446 12.8563 35.4239 13.5034 35.4446 13.8462C35.7113 13.1343 35.6942 12.7166 35.8865 12.0427C36.3999 10.2217 37.2755 8.52312 38.4608 7.04852C38.6111 6.85798 39.1894 6.10653 39.3729 6.06262L39.3835 6.1036C34.8484 12.7392 40.1823 21.287 48.1413 20.0491C48.2593 20.0307 48.3943 19.9945 48.5135 19.9636C50.4214 19.4699 52.5725 18.5904 52.9493 16.4096C52.9843 16.2072 52.9924 15.992 53.0364 15.7921C54.1528 23.7478 45.4079 29.0437 38.9316 24.2597C37.2825 23.0415 36.3405 21.3839 35.8717 19.4236C35.7391 18.8796 35.6476 18.2421 35.4628 17.7275C35.4024 18.5255 35.4453 19.8863 35.4442 20.7292L35.4487 26.8564C35.4493 27.6011 35.4863 28.7684 35.4316 29.4814C37.8463 29.5117 40.2882 29.4926 42.705 29.4929L44.9229 29.498C45.2411 29.5001 45.8693 29.5223 46.1667 29.4931L46.2053 29.4446C46.0471 29.2967 45.0612 29.1113 44.7837 29.0058C43.0716 28.3543 41.1214 27.2685 39.8094 25.9769L39.9297 25.9093C41.2309 26.8235 42.7774 27.3267 44.3817 27.4151C51.8141 27.8188 56.4789 19.3799 52.079 13.3764C51.439 12.5027 50.4397 12.2455 49.4323 12.1767C51.7958 11.8324 53.5458 12.1191 55.6054 13.4213C61.6068 17.216 60.7694 26.6219 53.9775 28.9904C53.7932 29.0546 52.6323 29.3594 52.5811 29.4396C52.9249 29.5757 61.7992 29.4833 62.9275 29.5016C62.8795 28.5152 62.923 27.1112 62.9238 26.0899L62.9316 19.3766C62.696 19.8103 62.4897 20.6168 62.2684 21.1411C61.6715 22.5549 60.9265 23.7137 59.9455 24.8894C59.7413 25.1345 59.4593 25.4835 59.2038 25.6586C60.0533 24.3682 60.5912 23.4563 60.8647 21.8686C62.2126 14.0349 53.7061 8.54774 47.1432 12.9121C46.1057 13.602 45.8636 14.6265 45.6931 15.7658C45.4852 14.5859 45.6284 12.8602 45.9901 11.7008C46.6895 9.44042 48.2645 7.5539 50.3636 6.46173C52.4391 5.39083 54.8535 5.18386 57.0807 5.88588C59.3873 6.61707 61.6483 8.45436 62.4299 10.803C62.5735 11.2338 62.7265 11.7708 62.932 12.1658L62.9279 1.89347C59.6762 1.92808 56.4086 1.87727 53.1552 1.87929C52.5363 1.87967 51.9049 1.84374 51.2884 1.89672C51.585 1.99675 51.9455 2.03138 52.2556 2.09563C54.34 2.52741 56.3089 3.4651 57.9754 4.78723C58.3351 5.07274 58.6944 5.33298 59.0105 5.66869L58.9259 5.74461C57.3273 4.45827 54.9922 4.00148 52.9574 4.18494C48.1111 4.62196 44.54 8.96844 44.9912 13.7973C45.1389 15.3799 45.8607 17.5968 47.1485 18.6557C47.7584 19.1343 48.5274 19.3292 49.2785 19.491ZM16.805 19.6322L17.4544 19.627L24.2608 19.6268C25.3642 19.6265 26.7006 19.5916 27.7866 19.6312L27.7849 7.5063C27.7859 5.69045 27.8246 3.72315 27.7649 1.9231C27.5896 1.92017 27.408 1.91982 27.2335 1.91382C26.8586 2.38486 26.2466 3.53348 25.914 4.10181L18.8063 16.1841C18.217 17.1982 17.3177 18.6238 16.805 19.6322ZM27.7733 27.3052L17.0775 27.2935L13.9538 27.2962C13.5259 27.2986 12.7685 27.3341 12.3701 27.3098C11.967 27.6738 11.3016 28.9589 11.0343 29.4881L26.4642 29.4916C26.8933 29.4936 27.3568 29.4877 27.7827 29.5002C27.7791 28.7747 27.7916 28.0269 27.7733 27.3052ZM2.16118 1.87448C2.076 3.04852 2.14257 5.03421 2.14261 6.27115L2.142 24.3445C2.14196 25.761 2.07717 27.9128 2.16434 29.2681C2.55911 28.6178 2.93029 27.9093 3.31453 27.2423L6.85251 21.0531C7.17256 20.4967 7.48898 19.8884 7.8203 19.3451L16.9005 3.39236C17.0904 3.05569 17.6219 2.19564 17.7505 1.88899C16.5145 1.92404 15.1591 1.89809 13.917 1.89765L6.90504 1.89633L3.76369 1.90218C3.41603 1.90325 2.45124 1.92869 2.16118 1.87448Z" fill="black"/>
<path d="M27.7729 32.6041C28.5151 32.5566 29.3067 32.6057 30.0539 32.5881C30.4884 32.5779 30.9662 32.5836 31.3966 32.6148C31.4346 32.7563 31.6871 33.2712 31.7681 33.4436C32.0462 34.0353 32.3087 34.6727 32.6002 35.254C32.8702 35.8566 33.8058 38.0645 34.1284 38.4403C33.3997 38.4134 32.4368 38.5063 31.7206 38.4002C31.5061 38.3685 31.3696 37.7765 31.2079 37.4818C30.3253 37.3858 28.9814 37.4675 28.0639 37.4562C27.8571 37.7834 27.7406 38.0661 27.6125 38.4272C26.9347 38.4956 25.9944 38.4076 25.2891 38.4249C23.1944 38.4762 21.081 38.4112 18.9868 38.4477C19.024 37.7646 18.934 32.7666 19.0528 32.6054C19.7772 32.5715 20.6405 32.5866 21.3681 32.6021C21.3399 33.0489 21.3599 33.7004 21.36 34.1626L21.3612 37.0459C22.5848 37.0585 23.8084 37.0637 25.0319 37.0617C25.0223 37.3731 24.9398 38.1554 25.128 38.3692C25.3143 38.1204 25.8453 36.8883 25.9943 36.5568L27.7729 32.6041ZM28.5694 36.2752C28.9491 36.2593 29.3291 36.2536 29.7091 36.258C30.026 36.2589 30.3981 36.2511 30.7099 36.2693C30.518 35.911 29.7408 33.9262 29.5785 33.8301C29.3047 34.3928 28.8096 35.6623 28.5694 36.2752Z" fill="black"/>
<path d="M34.3128 32.6054C35.1684 32.5593 36.0605 32.6058 36.9199 32.588C37.3603 32.5789 37.8552 32.5805 38.2925 32.6182C38.7285 33.4732 39.2815 34.3814 39.7577 35.2272C40.026 35.7039 40.5616 36.7173 40.8729 37.1145C40.8265 36.3187 40.7997 35.5219 40.7923 34.7248C40.7887 34.0921 40.8127 33.2151 40.7631 32.6015C41.5109 32.5755 42.4036 32.5837 43.1486 32.6003C43.1062 33.0084 43.1221 33.5784 43.1221 34.0019L43.1225 36.7929C43.1225 37.2635 43.1258 37.7459 43.114 38.2167C43.1107 38.3575 43.1095 38.371 43.0289 38.4418C41.9165 38.4418 40.1577 38.4978 39.079 38.4246C38.826 38.0767 38.4427 37.3074 38.2156 36.904C37.6408 35.8827 37.0915 34.823 36.5031 33.8102C36.4325 35.1171 36.6417 37.0648 36.6483 38.4413C35.8985 38.4395 35.0013 38.4126 34.2648 38.4547C34.3068 37.9712 34.2852 37.2901 34.284 36.7937L34.277 34.0222C34.2764 33.767 34.2579 32.7938 34.3128 32.6054Z" fill="black"/>
<path d="M5.84291 32.6005C6.36001 32.5728 8.99245 32.5452 9.35945 32.6632C9.62054 32.907 11.7103 37.708 12.0546 38.4455C11.2841 38.4246 10.4414 38.4432 9.6653 38.4471C9.51667 38.1646 9.33947 37.7755 9.23527 37.4748C8.23802 37.409 7.02793 37.4449 6.02202 37.4713C5.89234 37.7419 5.82834 38.0661 5.64143 38.3056C5.44588 38.5561 3.56559 38.4152 3.14685 38.4525C3.41704 37.8475 5.64627 32.7995 5.84291 32.6005ZM6.56345 36.2497L7.73777 36.2581C8.02925 36.2595 8.39117 36.2519 8.67614 36.2725C8.5348 35.8954 7.82321 33.9857 7.58181 33.8634C7.29053 34.5844 6.90099 35.5658 6.56345 36.2497Z" fill="black"/>
<path d="M57.6626 32.5666C58.7286 32.5507 60.7561 32.4028 61.5324 33.1759C61.9991 33.6407 61.9507 34.0942 61.9616 34.6897L59.6168 34.6989C59.5306 34.334 59.4821 34.2787 59.2169 34.0256C58.6814 33.8879 57.9381 33.8558 57.3847 33.9293C56.3484 34.0669 56.6247 35.7739 56.6861 36.494C56.7602 37.3562 58.727 37.1185 59.3096 36.9744C59.5346 36.7027 59.5656 36.5534 59.6217 36.2161C59.8414 36.2378 60.2064 36.2286 60.4383 36.2288C60.9445 36.2382 61.4506 36.2391 61.9568 36.2318C61.9564 36.7949 62.0373 37.2178 61.6687 37.6635C61.1654 38.2719 59.996 38.4868 59.2287 38.4894C57.8433 38.4666 55.8728 38.7021 54.7416 37.7742C54.0121 37.1762 54.2904 36.0807 54.2204 35.3036C53.9938 32.7915 55.7055 32.6255 57.6626 32.5666Z" fill="black"/>
<path d="M11.6006 32.5912L16.0052 32.5895C16.8506 32.5892 17.8023 32.5692 18.6354 32.6066C18.5967 32.9925 18.6074 33.5318 18.617 33.9217C17.8734 33.9207 16.9631 33.9737 16.2371 33.9286C16.2415 34.6417 16.2411 35.3548 16.2356 36.0678C16.2293 36.861 16.2289 37.6542 16.2342 38.4474C15.4689 38.4408 14.6136 38.4237 13.8549 38.453C13.9166 37.1123 13.8628 35.3236 13.8643 33.9493C13.176 33.945 12.2503 33.8958 11.5871 33.9347C11.5835 33.4945 11.5708 33.0284 11.6006 32.5912Z" fill="black"/>
<path d="M43.4997 32.5915C45.7261 32.5886 48.3325 32.5209 50.5215 32.6065C50.489 33.0337 50.4959 33.4963 50.5069 33.9251C49.7395 33.9232 48.8997 33.9622 48.1429 33.9331C48.108 34.6144 48.1238 35.3795 48.1246 36.0678L48.1226 38.4471C47.3813 38.4391 46.4853 38.4208 45.7546 38.4555C45.8018 37.04 45.7542 35.3878 45.7631 33.9485C45.303 33.9466 43.9574 33.9581 43.5652 33.9007C43.4358 33.7015 43.4895 32.8646 43.4997 32.5915Z" fill="black"/>
<path d="M50.9752 32.6018C51.7303 32.574 52.5628 32.5911 53.3228 32.5993C53.2748 32.9965 53.2996 33.7488 53.3001 34.1758L53.3017 37.0373C53.3013 37.3959 53.311 38.1119 53.2606 38.4501C52.7304 38.4073 51.4866 38.4382 50.928 38.4467C50.9678 38.1013 50.9447 37.3039 50.9447 36.9271L50.9471 33.9313C50.9479 33.6282 50.9345 32.8552 50.9752 32.6018Z" fill="black"/>
<path d="M48.9425 12.7341C50.6286 12.5013 52.1828 13.6821 52.4107 15.3688C52.6385 17.0555 51.4533 18.6064 49.766 18.8292C48.0856 19.0511 46.5423 17.8717 46.3157 16.1921C46.0886 14.5125 47.2637 12.966 48.9425 12.7341Z" fill="black"/>
<path d="M61.0503 2.43568C61.4933 2.28288 61.9816 2.47882 62.1964 2.89565C62.3266 3.14871 62.3356 3.44706 62.2208 3.70753C62.1061 3.96802 61.8799 4.16271 61.6052 4.23741C61.2578 4.33193 60.8871 4.2204 60.6491 3.95C60.4998 3.77979 60.4163 3.56144 60.4147 3.33487C60.4127 3.10795 60.4928 2.88798 60.6401 2.71531C60.7496 2.58714 60.8912 2.49059 61.0503 2.43568ZM60.9839 2.73265C60.4399 2.90623 60.4961 3.77645 61.1463 4.01481C61.7777 4.53878 62.635 2.83343 61.5999 2.65526C61.3745 2.61644 61.1788 2.59378 60.9839 2.73265Z" fill="black"/>
<path d="M60.9953 2.78535C61.2841 2.81021 61.8363 2.77513 61.9107 3.09645C61.8444 3.36413 61.6479 3.37415 61.656 3.56505L61.7582 3.70419L61.7358 3.76597C61.4445 3.85019 61.5291 3.53612 61.2785 3.41636L61.2125 3.45416C61.1857 3.59702 61.1767 3.79035 61.1124 3.89657C60.9831 3.79614 60.9485 3.74109 60.9379 3.57129C60.9265 3.3867 60.8793 2.92241 60.9953 2.78535ZM61.6516 3.26951L61.6532 3.11248C61.4986 2.95835 61.3476 3.00519 61.1344 3.01563C61.1535 3.17985 61.1263 3.14034 61.2219 3.25582C61.3627 3.31111 61.4994 3.28379 61.6516 3.26951Z" fill="black"/>
<path d="M60.9839 2.73265L60.9953 2.78535C60.8793 2.92241 60.9265 3.3867 60.9379 3.57129C60.9485 3.74109 60.9831 3.79614 61.1124 3.89657L61.1463 4.01481C60.4961 3.77645 60.4399 2.90623 60.9839 2.73265Z" fill="black"/>
<path d="M39.3786 25.4898L39.9297 25.9093L39.8094 25.9769C39.5899 25.8484 39.504 25.7048 39.3786 25.4898Z" fill="black"/>
<path d="M59.0105 5.66869C59.1249 5.73647 59.2148 5.77011 59.2653 5.88786C59.1456 5.93449 59.0231 5.81858 58.9259 5.74461L59.0105 5.66869Z" fill="black"/>
</svg>
