<svg width="65" height="65" viewBox="0 0 65 65" fill="none" xmlns="http://www.w3.org/2000/svg">
<path d="M30.2331 0H34.4069C34.4677 0.0504514 34.5552 0.106273 34.6374 0.110496C35.8621 0.173354 37.1664 0.294885 38.3706 0.526902C44.6431 1.74199 50.4181 4.77946 54.9734 9.2594C56.2871 10.5497 56.9285 11.4216 58.0761 12.7299C59.3805 14.5307 60.5299 16.2999 61.4778 18.322C63.2213 21.9488 64.3495 25.9879 64.559 30.0156C64.5616 30.0661 64.6159 30.1512 64.6455 30.1911V34.4556C64.4997 34.8619 64.458 36.1875 64.3823 36.7091C64.1695 38.2664 63.8431 39.8059 63.405 41.3154C60.8953 49.9166 54.9427 57.0982 46.9565 61.1599C44.4244 62.4518 41.7315 63.4006 38.9487 63.9814C37.923 64.1998 36.8236 64.345 35.7862 64.5224C35.3918 64.59 34.8924 64.4517 34.5236 64.6455H30.1825C29.9973 64.5047 29.1676 64.518 28.8792 64.4814C25.1688 64.0111 20.7369 62.9199 17.4826 61.0053C16.6338 60.7097 14.3148 59.1935 13.566 58.634C12.5436 57.9978 10.808 56.4707 9.94689 55.634C5.29752 51.1926 2.07943 45.4647 0.704567 39.1835C0.437555 37.9612 0.250823 36.6492 0.130968 35.4028C0.103936 35.1217 0.153699 34.6974 0 34.4681V30.1915C0.142559 30.0087 0.132886 29.0522 0.163151 28.7585C1.67475 14.0932 13.6494 1.87817 28.3308 0.236721C28.6822 0.197446 30.0525 0.147508 30.2331 0Z" fill="#676767"/>
<path d="M36.991 2.61819C36.6837 2.60516 36.259 2.71809 36.0556 2.62318C35.9836 2.51415 36.0179 2.10604 35.932 1.76793C36.3419 1.55896 39.1056 2.38099 39.8588 2.35203C46.6992 3.96377 52.4302 8.05981 56.7825 13.4798L56.8234 13.4076C56.9762 13.315 56.9743 13.3568 57.1931 13.4078C57.5713 13.0635 57.8027 12.9682 58.0761 12.7299C59.3805 14.5307 60.5299 16.2999 61.4778 18.322C63.2213 21.9488 64.3495 25.9879 64.559 30.0156C64.5616 30.0661 64.6159 30.1512 64.6455 30.1911V34.4556C64.4997 34.8619 64.458 36.1875 64.3823 36.7091C64.1695 38.2664 63.8431 39.8059 63.405 41.3154C60.8953 49.9166 54.9427 57.0982 46.9565 61.1599C44.4244 62.4518 41.7315 63.4006 38.9487 63.9814C37.923 64.1998 36.8236 64.345 35.7862 64.5224C35.3918 64.59 34.8924 64.4517 34.5236 64.6455H30.1825C29.9973 64.5047 29.1676 64.518 28.8792 64.4814C25.1688 64.0111 20.7369 62.9199 17.4826 61.0053C16.6338 60.7097 14.3148 59.1935 13.566 58.634C13.6705 58.56 13.7869 58.3713 13.8655 58.2592C13.9652 58.3318 13.9715 58.334 14.0859 58.382C14.3644 58.1719 14.1044 57.8582 14.3184 57.5283L14.4469 57.6459L14.4744 57.5434C14.3344 57.3887 14.1284 57.2539 13.9623 57.124C12.966 56.3449 11.9108 55.5617 10.9999 54.6812C8.11303 51.8908 5.75494 48.5781 4.09288 44.9216C3.69709 44.0508 3.36332 43.0911 3.01928 42.1938C3.07418 41.3427 2.15902 39.7923 2.35719 39.0863C2.56561 38.9082 3.02552 38.7342 3.30042 38.6783C5.84186 38.1615 8.39939 37.7805 10.8883 37.0204C11.2456 36.9113 11.6793 36.9744 12.0391 36.8206C12.3172 36.9091 12.6437 39.4269 13.1486 39.8942C13.601 40.948 14.89 43.7327 15.6943 44.4263C18.2256 47.8762 20.9277 49.8059 24.7955 51.4903C24.9627 51.2541 24.8399 51.1819 24.9937 50.8221C29.3293 52.5984 34.5535 52.6646 38.9565 51.0849C43.9582 49.3178 48.0475 45.6273 50.3168 40.8327C52.8001 35.5453 52.7518 30.2966 50.7966 24.8918L50.8288 24.8785C50.9819 24.9596 51.0599 24.9067 51.198 24.8447C51.2714 24.7119 51.3021 24.6497 51.355 24.5076C51.2539 24.1587 50.8005 23.2313 50.6328 22.9028C49.1945 20.1123 47.1318 17.6913 44.6052 15.828C44.4352 15.6459 43.8863 15.2734 43.6706 15.1259C41.9906 13.9774 40.2286 13.2333 38.3118 12.5988L38.2932 12.56C37.3988 12.0543 36.0828 12.0709 35.1559 11.8366C35.3155 11.5874 35.3058 11.3585 35.2211 11.0795L35.207 11.0346C35.6094 10.8264 36.5262 10.9269 36.9931 10.9567L36.991 2.61819Z" fill="#030303"/>
<path d="M59.5323 17.6733L59.6508 17.7038C59.689 17.7905 59.7289 17.8765 59.7705 17.9617C59.864 18.1498 60.1104 18.3386 60.3137 18.3949L60.2934 18.1498C60.5384 17.8996 61.2059 18.2434 61.4076 18.4781L61.4778 18.322C63.2213 21.9488 64.3495 25.9879 64.559 30.0156C64.5616 30.0661 64.6159 30.1512 64.6455 30.1911V34.4556C64.4997 34.8619 64.458 36.1875 64.3823 36.7091C64.1695 38.2664 63.8431 39.8059 63.405 41.3154C60.8953 49.9166 54.9427 57.0982 46.9565 61.1599C44.4244 62.4518 41.7315 63.4006 38.9487 63.9814C37.923 64.1998 36.8236 64.345 35.7862 64.5224C35.3918 64.59 34.8924 64.4517 34.5236 64.6455H30.1825C29.9973 64.5047 29.1676 64.518 28.8792 64.4814C25.1688 64.0111 20.7369 62.9199 17.4826 61.0053C17.4963 61.0073 17.51 61.0092 17.5238 61.0112C17.891 61.0053 18.3148 61.3864 18.6408 61.4679C19.0128 61.5609 19.1275 61.2107 19.0709 60.9265C19.0801 60.9724 19.2067 60.7494 19.2268 60.6678C19.1136 60.0844 18.4077 60.2181 18.1613 59.7661C18.4993 59.894 19.1931 60.2576 19.5738 60.4272C20.5464 60.8602 21.5393 61.2463 22.5491 61.5839C28.6639 63.6057 35.2581 63.6625 41.407 61.7477C49.2859 59.2903 55.8593 53.7919 59.6702 46.4712C63.3684 39.3217 64.1424 31.0145 61.8279 23.305C61.4758 22.1439 61.0626 21.0327 60.5895 19.9163C60.3163 19.272 59.7067 18.2904 59.5323 17.6733Z" fill="#5E5E5E"/>
<path d="M50.7966 24.8918L50.8288 24.8785C50.9819 24.9596 51.0599 24.9067 51.198 24.8447C51.2714 24.7119 51.3021 24.6497 51.355 24.5076C53.4355 29.3846 53.3929 35.0839 51.4233 39.99C49.3889 45.0551 45.4265 49.1052 40.4072 51.25C35.3165 53.4158 29.9477 53.4202 24.7955 51.4903C24.9627 51.2541 24.8399 51.1819 24.9937 50.8221C29.3293 52.5984 34.5535 52.6646 38.9565 51.0849C43.9582 49.3178 48.0475 45.6273 50.3168 40.8327C52.8001 35.5453 52.7518 30.2966 50.7966 24.8918Z" fill="#BCBCBC"/>
<path d="M58.0761 12.7299C59.3805 14.5307 60.5299 16.2999 61.4778 18.322L61.4076 18.4781C61.2059 18.2434 60.5384 17.8996 60.2934 18.1498L60.3137 18.3949C60.1104 18.3386 59.864 18.1498 59.7705 17.9617C59.7289 17.8765 59.689 17.7905 59.6508 17.7038L59.5323 17.6733C59.418 17.5155 59.313 17.3514 59.2192 17.1807C58.4976 15.8675 57.6688 14.686 56.7825 13.4798L56.8234 13.4076C56.9762 13.315 56.9743 13.3568 57.1931 13.4078C57.5713 13.0635 57.8027 12.9682 58.0761 12.7299Z" fill="#858585"/>
<path d="M13.566 58.634C13.6705 58.56 13.7869 58.3713 13.8655 58.2592C13.9652 58.3318 13.9715 58.334 14.0859 58.382C14.3644 58.1719 14.1044 57.8582 14.3184 57.5283L14.4469 57.6459L14.4744 57.5434C15.1453 57.9576 15.7826 58.3805 16.4631 58.7933C16.9783 59.1059 17.6894 59.4608 18.1613 59.7661C18.4077 60.2181 19.1136 60.0844 19.2268 60.6678C19.2067 60.7494 19.0801 60.9724 19.0709 60.9265C19.1275 61.2107 19.0128 61.5609 18.6408 61.4679C18.3148 61.3864 17.891 61.0053 17.5238 61.0112C17.51 61.0092 17.4963 61.0073 17.4826 61.0053C16.6338 60.7097 14.3148 59.1935 13.566 58.634Z" fill="#858585"/>
<path d="M51.3915 9.45945C51.5552 9.58009 52.3751 10.5639 52.5598 10.7793C52.3572 11.2854 50.1326 14.1988 49.6809 14.7384C51.0548 14.1868 52.8347 13.4018 54.1723 12.7585C54.6048 13.2539 55.0071 13.8242 55.4817 14.2679C54.5106 15.5452 53.6093 17.108 52.6141 18.3197C53.9748 17.7625 55.689 16.8529 57.0338 16.1787C57.4925 16.6906 57.7237 17.0376 58.2568 17.5781L56.2311 18.5892C54.9591 19.2298 52.5778 20.5142 51.3412 20.9924C50.9387 20.56 50.3716 19.8393 49.965 19.3623C50.2304 19.0323 50.687 18.2942 50.9342 17.9195C51.5219 17.0221 52.1201 16.1316 52.7285 15.2481C51.5193 15.8842 49.5277 16.6453 48.2056 17.2251C47.8249 16.822 47.1192 15.9759 46.8002 15.5362C48.3431 13.5201 49.8735 11.4945 51.3915 9.45945Z" fill="#F4F4F4"/>
<path d="M37.3896 13.6602C37.0626 13.3198 36.7069 13.331 36.2552 13.2964C36.116 13.2858 35.8065 13.0731 35.6816 12.9909L35.6877 12.9227C36.3477 12.797 37.2906 13.2562 37.6779 13.1748C39.2861 13.604 40.828 14.2508 42.2611 15.0972C42.8394 15.4406 43.6044 15.9833 44.131 16.2713C47.4931 18.9362 49.0567 21.0293 50.7966 24.8918C52.7518 30.2966 52.8001 35.5453 50.3168 40.8327C48.0475 45.6273 43.9582 49.3178 38.9565 51.0849C34.5535 52.6646 29.3293 52.5984 24.9937 50.8221C21.3385 49.3623 18.7402 47.2456 16.3151 44.1784C16.2095 43.9921 16.0775 43.7871 15.9526 43.6113C14.9507 42.2002 14.2861 40.7405 13.6595 39.1345C13.68 38.8001 13.3518 37.8954 13.234 37.5251C13.3547 37.4429 13.3717 37.4215 13.5114 37.3947C13.7994 37.8471 13.7593 38.7395 14.1653 39.0372C13.9212 38.2235 13.6927 37.435 13.5035 36.6071C13.4373 36.3172 13.345 35.6753 13.2272 35.4465L13.3114 35.2845C13.0611 34.7534 13.0203 33.337 13.0202 32.7413C13.288 32.7552 13.5828 32.7537 13.8528 32.7516C16.2608 32.7322 18.6929 32.8235 21.099 32.7693C23.6268 32.8585 26.1776 32.8001 28.7077 32.8315C29.0709 32.836 29.4517 32.8413 29.8127 32.8229C28.7836 32.5876 27.2468 32.7234 26.1774 32.6875C26.0102 32.6819 25.9715 32.6642 25.883 32.5622C26.1443 31.8184 27.3528 32.0875 27.9017 32.0186C29.1755 31.859 30.5795 31.9891 31.8251 31.8492C31.8726 31.7777 31.8679 30.6688 31.8742 30.468C32.0045 30.0981 31.9444 29.4959 31.9835 29.0924C32.1194 27.6904 32.089 26.3018 32.0995 24.8982C32.0993 24.9293 32.4143 23.6694 32.4047 23.6842L32.5098 23.9735L32.6089 23.86C32.7507 24.4328 32.5413 27.3795 32.7683 27.6876C32.8243 27.3528 32.7769 24.6295 32.7672 24.0658C32.7189 21.2815 32.7703 18.4473 32.7036 15.673C32.7708 14.9277 32.7398 13.7663 32.7119 13.0133C33.1022 13.0669 33.6601 13.0548 34.0673 13.0571C34.7479 13.1888 36.1266 13.3366 36.6923 13.5332C36.9434 13.5619 37.1423 13.6062 37.3896 13.6602Z" fill="#030303"/>
<path d="M13.0202 32.7413C13.288 32.7552 13.5828 32.7537 13.8528 32.7516C16.2608 32.7322 18.6929 32.8235 21.099 32.7693C23.6268 32.8585 26.1776 32.8001 28.7077 32.8315C29.0709 32.836 29.4517 32.8413 29.8127 32.8229C30.4832 32.8292 31.1643 32.8432 31.8336 32.8222C31.678 36.7531 31.8158 40.7283 31.7465 44.6634C31.7417 44.9311 31.7554 45.217 31.7397 45.4818C31.7312 45.4908 31.7221 45.4993 31.7141 45.5088C31.3355 45.9566 31.8351 47.5588 31.5827 48.004C31.3424 48.4278 26.146 49.67 25.4009 49.7921C25.3132 49.8065 25.2436 49.7837 25.162 49.7555C24.7289 49.6058 23.4053 48.7808 23.0818 48.8413C22.6261 48.7478 20.908 47.4772 20.4666 47.1541L20.3648 47.2063C20.3533 47.3112 20.3611 47.3731 20.3103 47.4569C17.7884 45.4043 15.8711 43.0196 14.6077 40.023C14.4689 39.6939 14.3156 39.3615 14.1653 39.0372C13.9212 38.2235 13.6927 37.435 13.5035 36.6071C13.4373 36.3172 13.345 35.6753 13.2272 35.4465L13.3114 35.2845C13.0611 34.7534 13.0203 33.337 13.0202 32.7413Z" fill="#E8E8E8"/>
<path d="M13.3114 35.2845C13.3416 35.3078 13.3718 35.3312 13.402 35.3544C13.5475 36.2796 13.8156 37.3267 14.0365 38.224C14.1505 38.6871 14.3912 39.0981 14.4859 39.4156C14.6257 38.9547 13.6696 37.3222 13.8558 36.5755C13.9113 36.6641 13.8907 36.6418 13.9076 36.7248C14.5805 40.042 16.4137 43.1015 18.6885 45.5708C19.2027 46.1289 20.1044 46.7247 20.4666 47.1541L20.3648 47.2063C20.3533 47.3112 20.3611 47.3731 20.3103 47.4569C17.7884 45.4043 15.8711 43.0196 14.6077 40.023C14.4689 39.6939 14.3156 39.3615 14.1653 39.0372C13.9212 38.2235 13.6927 37.435 13.5035 36.6071C13.4373 36.3172 13.345 35.6753 13.2272 35.4465L13.3114 35.2845Z" fill="#BBBBBB"/>
<path d="M32.7119 13.0133C33.1022 13.0669 33.6601 13.0548 34.0673 13.0571C34.7479 13.1888 36.1266 13.3366 36.6923 13.5332C36.9434 13.5619 37.1423 13.6062 37.3896 13.6602C37.8204 13.7898 39.318 14.2202 39.6218 14.4373C41.6931 15.2138 43.4981 16.4396 45.1613 17.8737C45.136 17.9877 45.0799 18.1759 45.0957 18.2798C46.0726 19.1109 48.3489 21.7848 48.7765 22.9704C48.7689 23.2736 48.9799 23.6522 48.8613 23.9743C47.9935 26.3305 47.2632 28.7217 46.201 31.0054C46.1154 31.1897 46.051 31.417 45.9127 31.5591C45.3458 31.783 44.1484 31.3505 43.7082 31.7601C43.0385 31.8294 41.679 31.7655 40.9521 31.79C38.3246 31.8783 35.3551 31.6995 32.7611 31.8592C32.8651 30.7153 32.8016 28.8657 32.7683 27.6876C32.8243 27.3528 32.7769 24.6295 32.7672 24.0658C32.7189 21.2815 32.7703 18.4473 32.7036 15.673C32.7708 14.9277 32.7398 13.7663 32.7119 13.0133Z" fill="#F0F0F0"/>
<path d="M39.6218 14.4373C41.6931 15.2138 43.4981 16.4396 45.1613 17.8737C45.136 17.9877 45.0799 18.1759 45.0957 18.2798C43.1608 16.7794 42.8156 16.3332 40.3991 15.1746C40.7987 15.0923 42.0586 15.9979 42.3428 16.0478C41.6018 15.3356 39.8468 14.9118 39.6218 14.4373Z" fill="#BABABA"/>
<path d="M36.6923 13.5332C36.9434 13.5619 37.1423 13.6062 37.3896 13.6602C37.8204 13.7898 39.318 14.2202 39.6218 14.4373C39.8468 14.9118 41.6018 15.3356 42.3428 16.0478C42.0586 15.9979 40.7987 15.0923 40.3991 15.1746C38.7019 14.4048 37.739 14.1255 35.9716 13.55C36.178 13.4597 36.3804 13.6093 36.6923 13.5332Z" fill="#F4F4F4"/>
<path d="M48.7765 22.9704C48.9161 23.1189 49.043 23.3779 49.1442 23.5631C49.2946 23.8937 49.4798 24.3095 49.6673 24.6196C49.776 24.4828 49.807 24.3602 49.8657 24.1962C49.9727 24.4366 50.3958 25.3586 50.4204 25.5505C50.4309 25.9756 50.4782 26.2235 50.4385 26.6598C50.6431 27.419 50.8254 28.1073 50.9816 28.8619C51.0727 29.3015 51.3478 31.4741 51.4336 31.6965L51.4716 31.7688C51.2869 31.8106 51.216 31.7516 51.0455 31.7483C48.6082 31.701 46.143 31.7959 43.7082 31.7601C44.1484 31.3505 45.3458 31.783 45.9127 31.5591C46.051 31.417 46.1154 31.1897 46.201 31.0054C47.2632 28.7217 47.9935 26.3305 48.8613 23.9743C48.9799 23.6522 48.7689 23.2736 48.7765 22.9704Z" fill="#BFBFBF"/>
<path d="M49.8657 24.1962C49.9727 24.4366 50.3958 25.3586 50.4204 25.5505C50.4309 25.9756 50.4782 26.2235 50.4385 26.6598C50.1984 25.9524 49.9443 25.3127 49.6673 24.6196C49.776 24.4828 49.807 24.3602 49.8657 24.1962Z" fill="#979797"/>
<path d="M23.0818 48.8413C23.4053 48.7808 24.7289 49.6058 25.162 49.7555C25.2436 49.7837 25.3132 49.8065 25.4009 49.7921C26.146 49.67 31.3424 48.4278 31.5827 48.004C31.8351 47.5588 31.3355 45.9566 31.7141 45.5088C31.7221 45.4993 31.7312 45.4908 31.7397 45.4818C31.7475 46.6925 31.748 47.9031 31.7414 49.1136C31.7391 49.7901 31.7122 50.7487 31.7722 51.4073C31.5973 51.4894 30.6758 51.2737 30.4153 51.2237C29.8849 51.112 29.2731 51.0225 28.7338 50.9524C26.6732 50.3993 24.9525 50.0173 23.0818 48.8413Z" fill="#A7A7A7"/>
<path d="M20.3103 47.4569C20.3611 47.3731 20.3533 47.3112 20.3648 47.2063L20.4666 47.1541C20.908 47.4772 22.6261 48.7478 23.0818 48.8413C24.9525 50.0173 26.6732 50.3993 28.7338 50.9524C28.5321 50.98 28.3049 51.0165 28.1049 51.0357L28.1802 51.1634L28.1878 51.0721L28.3369 51.1176C28.2403 51.1248 28.2606 51.1549 28.1743 51.1731C25.7615 50.6629 23.6785 49.765 21.609 48.425C21.2805 48.2124 20.5581 47.7239 20.3103 47.4569Z" fill="#808080"/>
<path d="M45.1613 17.8737C46.5304 19.0186 48.491 21.4059 49.2534 23.0041C49.2586 23.2528 49.2777 23.3538 49.1442 23.5631C49.043 23.3779 48.9161 23.1189 48.7765 22.9704C48.3489 21.7848 46.0726 19.1109 45.0957 18.2798C45.0799 18.1759 45.136 17.9877 45.1613 17.8737Z" fill="#9A9A9A"/>
<path d="M50.4204 25.5505C51.0015 26.8029 51.4109 29.1354 51.4928 30.5327C51.5049 30.739 51.435 31.3763 51.4336 31.6965C51.3478 31.4741 51.0727 29.3015 50.9816 28.8619C50.8254 28.1073 50.6431 27.419 50.4385 26.6598C50.4782 26.2235 50.4309 25.9756 50.4204 25.5505Z" fill="#858585"/>
<path d="M28.7338 50.9524C29.2731 51.0225 29.8849 51.112 30.4153 51.2237C30.2221 51.2581 30.0844 51.2577 29.9542 51.395L29.9413 51.4521C29.2938 51.3641 28.8087 51.3564 28.1743 51.1731C28.2606 51.1549 28.2403 51.1248 28.3369 51.1176L28.1878 51.0721L28.1802 51.1634L28.1049 51.0357C28.3049 51.0165 28.5321 50.98 28.7338 50.9524Z" fill="#616161"/>
<path d="M49.2534 23.0041C49.4834 23.4199 49.6712 23.7636 49.8657 24.1962C49.807 24.3602 49.776 24.4828 49.6673 24.6196C49.4798 24.3095 49.2946 23.8937 49.1442 23.5631C49.2777 23.3538 49.2586 23.2528 49.2534 23.0041Z" fill="#858585"/>
<path d="M30.4153 51.2237C30.6758 51.2737 31.5973 51.4894 31.7722 51.4073L31.8172 51.5099L31.7606 51.5781C31.1719 51.5878 30.5063 51.6127 29.9413 51.4521L29.9542 51.395C30.0844 51.2577 30.2221 51.2581 30.4153 51.2237Z" fill="#4F4F4F"/>
<path d="M32.7088 32.7228C35.5284 32.8222 38.6577 32.673 41.5653 32.7601C42.3589 32.714 43.7625 32.7278 44.5776 32.7575C46.836 32.6502 49.1613 32.9104 51.3422 32.8843L51.4408 32.8286L51.5088 32.8895C51.5586 33.9062 51.6769 34.3802 51.3886 35.4352C51.3346 36.3582 51.0341 37.2893 50.74 38.2538C48.4444 45.7825 41.1777 51.3745 33.31 51.6104C33.1737 51.6145 32.996 51.5669 32.867 51.5179C32.7048 51.3207 32.7667 50.3245 32.7737 50.0399C32.7551 45.3848 32.6346 40.6359 32.7179 35.9836L32.7088 32.7228Z" fill="#6E6E6E"/>
<path d="M51.115 35.2274L51.3131 34.9153C51.3931 35.0976 51.242 35.1549 51.3886 35.4352C51.3346 36.3582 51.0341 37.2893 50.74 38.2538C48.4444 45.7825 41.1777 51.3745 33.31 51.6104C33.1737 51.6145 32.996 51.5669 32.867 51.5179C32.7048 51.3207 32.7667 50.3245 32.7737 50.0399C32.8465 50.4948 32.8358 50.9847 32.8383 51.448C33.7399 51.3017 34.9879 51.1608 35.8492 50.9584C36.104 50.6826 37.1499 50.6165 37.4321 50.4893C38.3167 50.0598 39.4758 49.5934 40.2526 49.0044C42.7588 47.104 45.1829 45.0998 47.531 43.008C47.8776 42.6992 48.1445 42.3339 48.4382 41.9845C48.6949 41.679 48.8537 41.1669 49.1612 40.9686C50.0895 39.9377 50.6856 36.6635 51.1037 35.2642L51.115 35.2274Z" fill="#353535"/>
<path d="M35.8492 50.9584C36.104 50.6826 37.1499 50.6165 37.4321 50.4893C38.3167 50.0598 39.4758 49.5934 40.2526 49.0044C42.7588 47.104 45.1829 45.0998 47.531 43.008C47.8776 42.6992 48.1445 42.3339 48.4382 41.9845C48.6949 41.679 48.8537 41.1669 49.1612 40.9686C47.1667 45.6929 40.9485 50.315 35.8492 50.9584Z" fill="#565656"/>
<path d="M32.7088 32.7228C35.5284 32.8222 38.6577 32.673 41.5653 32.7601C41.8278 32.8133 42.0259 32.8397 42.2926 32.8694C41.9695 32.8312 41.429 32.8292 41.1223 32.9489C38.4395 32.973 35.6698 33.0637 32.9947 32.9993C33.0439 35.0602 33.0033 37.2115 32.9789 39.2776C32.9621 40.7047 32.9801 42.4482 32.8396 43.8443C32.7307 43.3011 32.7928 42.2698 32.7657 41.6744C32.6853 39.9071 32.8433 37.7147 32.7179 35.9836L32.7088 32.7228Z" fill="#F4F4F4"/>
<path d="M51.3422 32.8843L51.4408 32.8286L51.5088 32.8895C51.5586 33.9062 51.6769 34.3802 51.3886 35.4352C51.242 35.1549 51.3931 35.0976 51.3131 34.9153L51.115 35.2274C51.1724 34.4524 51.397 33.7243 51.4215 32.9332L51.3422 32.8843Z" fill="#252525"/>
<path d="M41.5653 32.7601C42.3589 32.714 43.7625 32.7278 44.5776 32.7575C43.8776 32.9592 41.8872 33.0327 41.1223 32.9489C41.429 32.8292 41.9695 32.8312 42.2926 32.8694C42.0259 32.8397 41.8278 32.8133 41.5653 32.7601Z" fill="#B5B5B5"/>
<path d="M28.8432 13.2753C29.9426 13.2386 30.4493 12.9947 31.8906 13.0247C31.8676 13.394 31.7585 13.1315 31.8414 13.4139L31.6944 13.2669C31.5844 13.2674 31.5518 13.2535 31.4579 13.2973L31.6382 13.3549C31.6821 13.5644 31.6485 14.4817 31.6534 14.7534C31.6805 16.4626 31.6983 18.1719 31.7069 19.8814C31.7114 20.3792 31.7818 22.2413 31.7451 22.6471C31.7537 23.088 31.7508 24.3076 31.9254 24.6314C31.928 25.6495 31.9171 26.6676 31.8926 27.6856C31.8706 28.3968 31.7998 29.7659 31.8742 30.468C31.8679 30.6688 31.8726 31.7777 31.8251 31.8492C30.5795 31.9891 29.1755 31.859 27.9017 32.0186C27.3528 32.0875 26.1443 31.8184 25.883 32.5622C25.9715 32.6642 26.0102 32.6819 26.1774 32.6875C27.2468 32.7234 28.7836 32.5876 29.8127 32.8229C29.4517 32.8413 29.0709 32.836 28.7077 32.8315C26.1776 32.8001 23.6268 32.8585 21.099 32.7693C20.7313 32.6604 18.9122 32.6388 18.3749 32.6017C18.8681 32.4664 19.8986 32.6875 20.3645 32.5791C20.8503 32.4659 20.5311 32.2635 21.3426 32.208L21.3743 32.1436C21.0539 31.9157 19.3795 32.0569 18.8793 32.0555C19.2727 32.0366 19.7905 32.0248 20.1653 31.9536L20.2246 31.9419C19.2511 31.8774 17.6201 31.9479 16.5923 31.9404C15.5757 31.933 13.9918 31.8666 13.0211 31.9379C12.9963 31.4926 13.012 30.9332 13.0132 30.479C13.1638 29.9685 13.2793 29.0193 13.3839 28.4576C13.5962 27.3695 13.9147 26.3048 14.3349 25.2789C14.5856 24.4818 15.098 23.4833 15.5061 22.7666C18.0893 18.2282 22.3909 14.9277 27.4366 13.5856C27.9047 13.4611 28.3795 13.4025 28.8432 13.2753Z" fill="#959595"/>
<path d="M31.7451 22.6471C31.7537 23.088 31.7508 24.3076 31.9254 24.6314C31.928 25.6495 31.9171 26.6676 31.8926 27.6856C31.8706 28.3968 31.7998 29.7659 31.8742 30.468C31.8679 30.6688 31.8726 31.7777 31.8251 31.8492C30.5795 31.9891 29.1755 31.859 27.9017 32.0186C27.3528 32.0875 26.1443 31.8184 25.883 32.5622C25.9715 32.6642 26.0102 32.6819 26.1774 32.6875C27.2468 32.7234 28.7836 32.5876 29.8127 32.8229C29.4517 32.8413 29.0709 32.836 28.7077 32.8315C26.1776 32.8001 23.6268 32.8585 21.099 32.7693C20.7313 32.6604 18.9122 32.6388 18.3749 32.6017C18.8681 32.4664 19.8986 32.6875 20.3645 32.5791C20.8503 32.4659 20.5311 32.2635 21.3426 32.208L21.3743 32.1436C21.0539 31.9157 19.3795 32.0569 18.8793 32.0555C19.2727 32.0366 19.7905 32.0248 20.1653 31.9536L20.2246 31.9419C19.2511 31.8774 17.6201 31.9479 16.5923 31.9404C15.5757 31.933 13.9918 31.8666 13.0211 31.9379C12.9963 31.4926 13.012 30.9332 13.0132 30.479C13.1638 29.9685 13.2793 29.0193 13.3839 28.4576C13.5962 27.3695 13.9147 26.3048 14.3349 25.2789L14.4513 25.6534C14.378 25.9906 14.0971 26.7738 13.9878 27.1737C13.5638 28.7263 13.3201 30.0186 13.3221 31.6274C17.9179 31.8582 22.6456 31.6154 27.2443 31.6592C28.5228 31.6714 30.3471 31.5391 31.5663 31.6957C31.619 31.4291 31.6084 30.3768 31.6174 30.0062C31.6782 27.5186 31.6387 25.1412 31.7451 22.6471Z" fill="#D6D6D6"/>
<path d="M20.2246 31.9419C20.8481 31.9022 21.7518 31.9185 22.3958 31.9081L27.6008 31.8471C28.3698 31.8386 31.2798 31.7208 31.8251 31.8492C30.5795 31.9891 29.1755 31.859 27.9017 32.0186C27.3528 32.0875 26.1443 31.8184 25.883 32.5622C25.9715 32.6642 26.0102 32.6819 26.1774 32.6875C27.2468 32.7234 28.7836 32.5876 29.8127 32.8229C29.4517 32.8413 29.0709 32.836 28.7077 32.8315C26.1776 32.8001 23.6268 32.8585 21.099 32.7693C20.7313 32.6604 18.9122 32.6388 18.3749 32.6017C18.8681 32.4664 19.8986 32.6875 20.3645 32.5791C20.8503 32.4659 20.5311 32.2635 21.3426 32.208L21.3743 32.1436C21.0539 31.9157 19.3795 32.0569 18.8793 32.0555C19.2727 32.0366 19.7905 32.0248 20.1653 31.9536L20.2246 31.9419Z" fill="#333333"/>
<path d="M28.8432 13.2753C29.9426 13.2386 30.4493 12.9947 31.8906 13.0247C31.8676 13.394 31.7585 13.1315 31.8414 13.4139L31.6944 13.2669C31.5844 13.2674 31.5518 13.2535 31.4579 13.2973C29.6025 13.3659 27.1082 13.8493 25.3991 14.57C25.1156 14.9173 24.2217 15.1971 23.7903 15.5019C23.2054 15.9152 22.8802 16.5304 22.3805 17.0047C21.2369 18.09 19.956 19.1119 18.6176 19.9402C18.4476 20.045 17.9836 19.9761 17.8247 20.1667C17.3849 20.5583 16.8738 21.6301 16.4221 21.8969C15.9069 22.3281 14.7554 24.9333 14.4513 25.6534L14.3349 25.2789C14.5856 24.4818 15.098 23.4833 15.5061 22.7666C18.0893 18.2282 22.3909 14.9277 27.4366 13.5856C27.9047 13.4611 28.3795 13.4025 28.8432 13.2753Z" fill="#D6D6D6"/>
<path d="M25.3991 14.57C25.1156 14.9173 24.2217 15.1971 23.7903 15.5019C23.2054 15.9152 22.8802 16.5304 22.3805 17.0047C21.2369 18.09 19.956 19.1119 18.6176 19.9402C18.4476 20.045 17.9836 19.9761 17.8247 20.1667C17.3849 20.5583 16.8738 21.6301 16.4221 21.8969C16.4264 21.8876 16.4306 21.8784 16.4348 21.8691C18.298 18.7004 22.0928 15.8085 25.3991 14.57Z" fill="#B5B5B5"/>
<path d="M30.2331 0H34.4069C34.4677 0.0504514 34.5552 0.106273 34.6374 0.110496C35.8621 0.173354 37.1664 0.294885 38.3706 0.526902C44.6431 1.74199 50.4181 4.77946 54.9734 9.2594C56.2871 10.5497 56.9285 11.4216 58.0761 12.7299C57.8027 12.9682 57.5713 13.0635 57.1931 13.4078C56.9743 13.3568 56.9762 13.315 56.8234 13.4076L56.7825 13.4798C52.4302 8.05981 46.6992 3.96377 39.8588 2.35203C39.4033 2.17485 38.4691 2.00329 37.9549 1.90641C34.751 1.30269 32.0045 1.25629 28.783 1.58883L28.8022 1.65438C26.2284 1.78842 21.2731 3.51861 18.8621 4.67496C18.6076 4.79701 17.6423 5.27021 17.471 5.44627C17.1997 5.94103 16.5933 5.74524 16.4876 6.26787C16.5187 6.34839 16.6596 6.71985 16.6445 6.77282C16.3325 7.86447 15.7712 10.4286 14.706 10.8935L14.529 10.8896C13.9589 10.3839 13.8514 10.2761 13.1383 10.0621C12.7144 10.1845 12.2364 10.3415 11.9125 10.6452C10.2113 12.2404 8.69318 14.3229 7.15356 16.072C7.74635 16.6426 10.3361 18.6153 10.6107 19.0296C10.0344 18.9745 8.95442 17.4422 8.51421 17.5693C7.93638 17.736 6.57566 18.542 5.90789 18.7365C5.69405 18.7987 5.2775 18.8864 5.08699 18.9489L4.93322 18.789C4.61576 18.8929 4.25601 20.3643 3.97967 20.6684L3.94016 20.6581C3.17079 21.7102 2.5371 24.9993 2.14838 26.3246C2.05125 26.6558 1.82681 28.6316 1.65442 28.7478L1.6259 28.6817C1.35467 29.2701 1.26935 33.7192 1.45116 34.3565C1.56619 36.9512 2.2105 39.7307 3.01928 42.1938C3.36332 43.0911 3.69709 44.0508 4.09288 44.9216C5.75494 48.5781 8.11303 51.8908 10.9999 54.6812C11.9108 55.5617 12.966 56.3449 13.9623 57.124C14.1284 57.2539 14.3344 57.3887 14.4744 57.5434L14.4469 57.6459L14.3184 57.5283C14.1044 57.8582 14.3644 58.1719 14.0859 58.382C13.9715 58.334 13.9652 58.3318 13.8655 58.2592C13.7869 58.3713 13.6705 58.56 13.566 58.634C12.5436 57.9978 10.808 56.4707 9.94689 55.634C5.29752 51.1926 2.07943 45.4647 0.704567 39.1835C0.437555 37.9612 0.250823 36.6492 0.130968 35.4028C0.103936 35.1217 0.153699 34.6974 0 34.4681V30.1915C0.142559 30.0087 0.132886 29.0522 0.163151 28.7585C1.67475 14.0932 13.6494 1.87817 28.3308 0.236721C28.6822 0.197446 30.0525 0.147508 30.2331 0Z" fill="#BDBDBD"/>
<path d="M3.94016 20.6581C3.9416 20.3441 4.7385 18.7838 4.90256 18.4559C7.07061 14.1517 10.2268 10.4219 14.1128 7.57151C15.1001 6.8373 16.3604 5.98283 17.471 5.44627C17.1997 5.94103 16.5933 5.74524 16.4876 6.26787C16.5187 6.34839 16.6596 6.71985 16.6445 6.77282C16.3325 7.86447 15.7712 10.4286 14.706 10.8935L14.529 10.8896C13.9589 10.3839 13.8514 10.2761 13.1383 10.0621C12.7144 10.1845 12.2364 10.3415 11.9125 10.6452C10.2113 12.2404 8.69318 14.3229 7.15356 16.072C7.74635 16.6426 10.3361 18.6153 10.6107 19.0296C10.0344 18.9745 8.95442 17.4422 8.51421 17.5693C7.93638 17.736 6.57566 18.542 5.90789 18.7365C5.69405 18.7987 5.2775 18.8864 5.08699 18.9489L4.93322 18.789C4.61576 18.8929 4.25601 20.3643 3.97967 20.6684L3.94016 20.6581Z" fill="#979797"/>
<path d="M1.6259 28.6817C1.98911 23.363 4.87785 17.152 8.17919 13.016C13.2738 6.64173 20.678 2.53529 28.783 1.58883L28.8022 1.65438C26.2284 1.78842 21.2731 3.51861 18.8621 4.67496C18.6076 4.79701 17.6423 5.27021 17.471 5.44627C16.3604 5.98283 15.1001 6.8373 14.1128 7.57151C10.2268 10.4219 7.07061 14.1517 4.90256 18.4559C4.7385 18.7838 3.9416 20.3441 3.94016 20.6581C3.17079 21.7102 2.5371 24.9993 2.14838 26.3246C2.05125 26.6558 1.82681 28.6316 1.65442 28.7478L1.6259 28.6817Z" fill="#030303"/>
<path d="M13.1383 10.0621C13.8514 10.2761 13.9589 10.3839 14.529 10.8896C14.6119 10.9888 14.7709 11.2018 14.8688 11.2587L14.9579 11.2335C15.3186 11.6986 15.3762 12.1127 15.3696 12.6855C15.6957 12.4747 16.1651 12.4336 16.5499 12.4758C17.2466 12.5523 17.9563 13.6051 18.1486 13.7221C18.3352 14.1733 18.4414 14.8316 18.2335 15.2788C17.7716 16.2725 16.7377 17.3484 16.0189 18.2064L13.3886 21.3339L13.3061 21.3209C12.6464 20.6646 11.3664 19.6515 10.6107 19.0296C10.3361 18.6153 7.74635 16.6426 7.15356 16.072C8.69318 14.3229 10.2113 12.2404 11.9125 10.6452C12.2364 10.3415 12.7144 10.1845 13.1383 10.0621Z" fill="#F4F4F4"/>
<path d="M14.8688 11.2587L14.9579 11.2335C15.3186 11.6986 15.3762 12.1127 15.3696 12.6855C15.2859 12.7423 15.242 12.749 15.1471 12.7767C15.0665 12.5947 15.158 12.0729 15.1056 11.8531C15.0634 11.676 14.9453 11.4262 14.8688 11.2587Z" fill="#333333"/>
<path d="M15.1621 14.2255C16.0043 14.1454 16.143 14.5494 16.4126 15.2533C15.9564 16.5666 14.3325 17.6935 13.79 18.8457C13.1673 18.5105 12.6657 17.9225 12.2734 17.7135L12.1939 17.6001C12.1952 17.287 14.4455 14.8337 14.7677 14.4479C14.8354 14.3668 15.0525 14.2676 15.1621 14.2255Z" fill="#979797"/>
<path d="M15.1621 14.2255C15.1363 14.5237 12.6404 17.298 12.2734 17.7135L12.1939 17.6001C12.1952 17.287 14.4455 14.8337 14.7677 14.4479C14.8354 14.3668 15.0525 14.2676 15.1621 14.2255Z" fill="#030303"/>
<path d="M9.8916 15.6417C9.74873 15.4637 9.69551 15.464 9.69545 15.2763C10.1718 14.7201 11.9536 12.5294 12.4132 12.3128C12.6337 12.2664 12.7976 12.361 13.008 12.4479C13.5927 12.7401 13.7962 13.1557 13.4355 13.7594C12.8183 14.7926 11.6467 15.72 11.0302 16.7277C10.8236 16.5235 9.97531 15.7718 9.8916 15.6417Z" fill="#979797"/>
<path d="M9.8916 15.6417C9.74873 15.4637 9.69551 15.464 9.69545 15.2763C10.1718 14.7201 11.9536 12.5294 12.4132 12.3128C12.6337 12.2664 12.7976 12.361 13.008 12.4479C12.7372 12.4652 12.5183 12.4564 12.3264 12.6474C11.688 13.2833 10.2643 14.8877 9.8916 15.6417Z" fill="#030303"/>
<path d="M28.783 1.58883C32.0045 1.25629 34.751 1.30269 37.9549 1.90641C38.4691 2.00329 39.4033 2.17485 39.8588 2.35203C39.1056 2.38099 36.3419 1.55896 35.932 1.76793C36.0179 2.10604 35.9836 2.51415 36.0556 2.62318C36.259 2.71809 36.6837 2.60516 36.991 2.61819L36.9931 10.9567C36.5262 10.9269 35.6094 10.8264 35.207 11.0346L35.2211 11.0795C35.3058 11.3585 35.3155 11.5874 35.1559 11.8366C36.0828 12.0709 37.3988 12.0543 38.2932 12.56L38.3118 12.5988C38.1111 12.6007 36.3914 12.1355 35.9345 12.0686C35.0066 11.9327 34.2176 11.8782 33.2651 11.8076C33.0722 11.7932 31.5292 11.4296 31.4022 11.2692C31.3171 11.1617 30.9095 9.81026 30.807 9.59075C30.8197 9.51765 30.8312 9.45187 30.8414 9.39334C30.4164 8.00631 29.6647 6.47041 29.3081 5.10873C29.296 5.7016 29.338 10.6996 29.2243 10.8672C28.7236 10.8588 28.2042 10.8657 27.7017 10.8653C27.5773 10.5691 27.6535 3.61816 27.6551 2.78125C28.4757 2.77652 29.2964 2.77695 30.1171 2.78254C30.2329 3.25028 32.1577 8.29109 32.2778 8.41703L32.3451 8.26937C32.2526 7.71919 33.7092 4.92032 33.792 4.15125C33.6225 4.14826 33.5434 4.15592 33.375 4.1782C33.1248 3.92628 33.1195 2.29533 32.8984 1.7752C32.5345 0.918997 29.5027 1.92815 28.8022 1.65438L28.783 1.58883Z" fill="#F4F4F4"/>
<path d="M28.783 1.58883C32.0045 1.25629 34.751 1.30269 37.9549 1.90641C38.4691 2.00329 39.4033 2.17485 39.8588 2.35203C39.1056 2.38099 36.3419 1.55896 35.932 1.76793C36.0179 2.10604 35.9836 2.51415 36.0556 2.62318C36.259 2.71809 36.6837 2.60516 36.991 2.61819L36.9931 10.9567C36.5262 10.9269 35.6094 10.8264 35.207 11.0346L35.2211 11.0795C35.3058 11.3585 35.3155 11.5874 35.1559 11.8366C36.0828 12.0709 37.3988 12.0543 38.2932 12.56L38.3118 12.5988C38.1111 12.6007 36.3914 12.1355 35.9345 12.0686C35.0066 11.9327 34.2176 11.8782 33.2651 11.8076C33.0722 11.7932 31.5292 11.4296 31.4022 11.2692C31.3171 11.1617 30.9095 9.81026 30.807 9.59075C30.8197 9.51765 30.8312 9.45187 30.8414 9.39334C31.0443 9.88917 31.2252 10.3263 31.3606 10.8448L33.1462 10.8458C33.9045 9.05692 34.5422 6.90657 35.3182 5.18828L35.3171 10.8434L36.8709 10.8365C36.9002 8.17177 36.8735 5.4491 36.8736 2.78009L34.4523 2.77388C33.9924 4.25613 32.9521 6.81232 32.3451 8.26937C32.2526 7.71919 33.7092 4.92032 33.792 4.15125C33.6225 4.14826 33.5434 4.15592 33.375 4.1782C33.1248 3.92628 33.1195 2.29533 32.8984 1.7752C32.5345 0.918997 29.5027 1.92815 28.8022 1.65438L28.783 1.58883Z" fill="#333333"/>
<path d="M1.45116 34.3565C1.45146 34.0845 1.45246 33.8985 1.48437 33.6294C1.68302 34.2674 1.46865 34.9581 1.8285 35.8074C2.29582 35.7231 2.84632 35.5033 3.31546 35.4203C4.48717 35.2129 5.60716 35.0456 6.77185 34.7859C7.70106 34.5777 8.6258 34.3498 9.54536 34.1024C9.81903 34.0269 10.0837 33.9066 10.3792 33.8267C10.7178 33.7353 11.5242 33.7238 11.7784 33.6051C11.8317 33.4491 11.8775 33.2466 11.992 33.1432L12.0515 33.1771C12.0337 33.2199 11.889 33.5334 11.8882 33.5526C11.8246 35.0587 12.2213 36.8329 12.6234 38.2606C12.7576 38.7369 13.0864 39.5751 13.1486 39.8942C12.6437 39.4269 12.3172 36.9091 12.0391 36.8206C11.6793 36.9744 11.2456 36.9113 10.8883 37.0204C8.39939 37.7805 5.84186 38.1615 3.30042 38.6783C3.02552 38.7342 2.56561 38.9082 2.35719 39.0863C2.15902 39.7923 3.07418 41.3427 3.01928 42.1938C2.2105 39.7307 1.56619 36.9512 1.45116 34.3565Z" fill="#333333"/>
<path d="M12.5548 29.9648C12.426 30.3399 12.472 31.5199 12.3968 31.7108C12.323 31.3602 12.3935 30.2505 12.4987 29.9052C12.282 29.9146 12.49 30.0409 11.9827 30.2376C11.8551 30.5312 11.7997 31.0129 11.7471 31.3418C11.7252 30.7148 11.8202 30.6506 11.8728 30.0964C12.0912 27.7939 12.7167 25.6638 13.6858 23.561C16.0117 18.6309 20.1909 14.8192 25.3136 12.9555C26.448 12.5384 27.5964 12.2355 28.7809 12.0009C29.3112 11.896 29.829 11.6354 30.3502 11.876L30.3311 11.9247C30.1593 11.9256 30.04 11.917 29.8721 11.9605L29.9911 12.0627L30.0539 12.0497C30.2685 12.1427 30.036 12.1596 30.2218 12.427C30.4471 12.4196 31.8147 12.3082 31.8696 12.3347C30.9407 12.5271 29.6635 12.4555 28.8475 12.7305L28.8515 12.8095C27.9942 13.0643 26.9229 13.1764 26.1031 13.5019C25.7393 13.6464 23.7479 14.4209 23.6566 14.5873C23.7213 14.721 23.6965 14.7213 23.8022 14.793C24.5326 14.4821 28.1703 13.0512 28.7935 13.2103L28.8432 13.2753C28.3795 13.4025 27.9047 13.4611 27.4366 13.5856C22.3909 14.9277 18.0893 18.2282 15.5061 22.7666C15.098 23.4833 14.5856 24.4818 14.3349 25.2789C13.9147 26.3048 13.5962 27.3695 13.3839 28.4576C13.2793 29.0193 13.1638 29.9685 13.0132 30.479L12.9638 30.4202C12.9324 29.5372 13.4747 27.714 13.6982 26.8362C13.7743 26.5375 13.8701 26.3059 13.9174 25.9822C13.7839 25.9188 13.7026 25.8461 13.594 25.8837C13.1851 26.8543 12.6315 29.7643 12.6055 30.8581L12.5826 30.8511C12.564 30.556 12.5547 30.2604 12.5548 29.9648Z" fill="#333333"/>
<path d="M12.5548 29.9648C13.2195 26.2695 13.9499 23.8066 16.197 20.6677C19.1074 16.6021 23.8898 13.5262 28.8475 12.7305L28.8515 12.8095C27.9942 13.0643 26.9229 13.1764 26.1031 13.5019C25.7393 13.6464 23.7479 14.4209 23.6566 14.5873C23.7213 14.721 23.6965 14.7213 23.8022 14.793C24.5326 14.4821 28.1703 13.0512 28.7935 13.2103L28.8432 13.2753C28.3795 13.4025 27.9047 13.4611 27.4366 13.5856C22.3909 14.9277 18.0893 18.2282 15.5061 22.7666C15.098 23.4833 14.5856 24.4818 14.3349 25.2789C13.9147 26.3048 13.5962 27.3695 13.3839 28.4576C13.2793 29.0193 13.1638 29.9685 13.0132 30.479L12.9638 30.4202C12.9324 29.5372 13.4747 27.714 13.6982 26.8362C13.7743 26.5375 13.8701 26.3059 13.9174 25.9822C13.7839 25.9188 13.7026 25.8461 13.594 25.8837C13.1851 26.8543 12.6315 29.7643 12.6055 30.8581L12.5826 30.8511C12.564 30.556 12.5547 30.2604 12.5548 29.9648Z" fill="#A6A6A6"/>
<path d="M31.9464 24.0697C32.0361 23.5494 32.011 21.6641 32.0133 21.0331L32.0393 14.9826C32.1494 15.135 32.0952 17.3418 32.0928 17.6831L32.1517 17.6117C32.0969 17.3955 32.2272 17.1123 32.4583 17.0857C32.5696 17.2485 32.5686 17.5835 32.5855 17.7974C32.6489 17.332 32.5932 15.8623 32.7036 15.673C32.7703 18.4473 32.7189 21.2815 32.7672 24.0658C32.7769 24.6295 32.8243 27.3528 32.7683 27.6876C32.5413 27.3795 32.7507 24.4328 32.6089 23.86L32.5098 23.9735L32.4047 23.6842C32.4143 23.6694 32.0993 24.9293 32.0995 24.8982C32.089 26.3018 32.1194 27.6904 31.9835 29.0924C31.9444 29.4959 32.0045 30.0981 31.8742 30.468C31.7998 29.7659 31.8706 28.3968 31.8926 27.6856C31.9171 26.6676 31.928 25.6495 31.9254 24.6314L31.9464 24.0697Z" fill="#333333"/>
<path d="M44.131 16.2713L44.184 16.2227C44.5285 16.2462 47.2182 18.8626 47.6298 19.377C48.2535 20.1563 48.9485 21.2052 49.5303 22.0348C49.6503 21.947 49.7329 21.8826 49.844 21.7839C49.8372 21.5792 49.3917 21.0449 49.2601 20.8468C47.9515 18.8757 46.3827 17.2855 44.4956 15.8606L44.6052 15.828C47.1318 17.6913 49.1945 20.1123 50.6328 22.9028C50.8005 23.2313 51.2539 24.1587 51.355 24.5076C51.3021 24.6497 51.2714 24.7119 51.198 24.8447C51.0599 24.9067 50.9819 24.9596 50.8288 24.8785L50.7966 24.8918C49.0567 21.0293 47.4931 18.9362 44.131 16.2713Z" fill="#979797"/>
<path d="M15.6943 44.4263L15.7301 44.3036C17.3663 46.6615 19.551 48.4391 21.9224 49.9859C22.1771 50.152 22.5228 50.2259 22.7626 50.421C22.8149 49.6825 22.4656 49.808 21.9907 49.5108C19.6675 48.0563 17.9033 46.3525 16.2126 44.2031L16.3151 44.1784C18.7402 47.2456 21.3385 49.3623 24.9937 50.8221C24.8399 51.1819 24.9627 51.2541 24.7955 51.4903C20.9277 49.8059 18.2256 47.8762 15.6943 44.4263Z" fill="#979797"/>
<path d="M31.8906 13.0247C31.9901 13.7729 31.951 15.3004 31.9506 16.1111L31.9406 21.1834C31.9373 22.077 31.902 23.1893 31.9464 24.0697L31.9254 24.6314C31.7508 24.3076 31.7537 23.088 31.7451 22.6471C31.7818 22.2413 31.7114 20.3792 31.7069 19.8814C31.6983 18.1719 31.6805 16.4626 31.6534 14.7534C31.6485 14.4817 31.6821 13.5644 31.6382 13.3549L31.4579 13.2973C31.5518 13.2535 31.5844 13.2674 31.6944 13.2669L31.8414 13.4139C31.7585 13.1315 31.8676 13.394 31.8906 13.0247Z" fill="#B5B5B5"/>
<path d="M18.1486 13.7221C18.6484 13.8457 18.6522 14.8676 18.4901 15.2283C17.6364 17.1274 15.8231 18.6435 14.5591 20.2998C14.3708 20.5454 13.8451 21.2333 13.7094 21.3838C13.4976 21.436 13.5837 21.4481 13.3886 21.3339L16.0189 18.2064C16.7377 17.3484 17.7716 16.2725 18.2335 15.2788C18.4414 14.8316 18.3352 14.1733 18.1486 13.7221Z" fill="#333333"/>
<path d="M34.0673 13.0571L33.6882 12.9548L33.7181 12.9551C34.0884 12.9566 34.2712 12.8737 34.52 12.5957L34.2763 12.5425L34.316 12.4659C34.6925 12.4446 37.374 12.9895 37.6779 13.1748C37.2906 13.2562 36.3477 12.797 35.6877 12.9227L35.6816 12.9909C35.8065 13.0731 36.116 13.2858 36.2552 13.2964C36.7069 13.331 37.0626 13.3198 37.3896 13.6602C37.1423 13.6062 36.9434 13.5619 36.6923 13.5332C36.1266 13.3366 34.7479 13.1888 34.0673 13.0571Z" fill="#333333"/>
<path d="M13.6595 39.1345C13.3285 38.4399 12.7592 36.5201 12.8581 35.7484C12.8407 35.9193 12.8234 35.9506 12.9055 36.0901L12.9727 36.0953C13.2982 35.9381 13.0643 35.7963 13.2272 35.4465C13.345 35.6753 13.4373 36.3172 13.5035 36.6071C13.6927 37.435 13.9212 38.2235 14.1653 39.0372C13.7593 38.7395 13.7994 37.8471 13.5114 37.3947C13.3717 37.4215 13.3547 37.4429 13.234 37.5251C13.3518 37.8954 13.68 38.8001 13.6595 39.1345Z" fill="#333333"/>
<path d="M27.7017 10.8653C28.2042 10.8657 28.7236 10.8588 29.2243 10.8672C29.2884 11.0409 29.2941 10.9786 29.2434 11.1287C28.9195 11.3445 28.0431 11.3058 27.6888 11.1693C27.6175 11.0064 27.629 11.0756 27.7017 10.8653Z" fill="#030303"/>
</svg>
