<svg width="69" height="42" viewBox="0 0 69 42" fill="none" xmlns="http://www.w3.org/2000/svg">
<path d="M33.9598 0.0171903C34.1069 0.0403179 35.3256 -0.00760791 35.6083 0.00106268C37.0112 0.0473372 38.575 0.469318 39.8157 1.10299C40.9585 1.68655 41.8091 2.21246 42.6288 3.19318C43.0596 3.70867 43.5404 3.90368 43.779 4.6319C44.3959 3.97682 45.1327 3.79662 45.9918 4.04896C46.6648 4.24675 47.0826 4.86526 47.682 5.18079C48.2063 5.45673 48.8456 5.53659 49.382 5.79307C49.9087 6.05223 50.4553 6.47363 50.9828 6.73401C51.3177 6.89922 51.8359 6.92372 52.1972 7.12794C52.552 7.3287 52.8637 7.65776 53.2213 7.82488C54.0768 8.22437 55.0952 8.30329 55.9284 8.73916C56.2726 8.91924 56.7298 9.17214 57.059 9.38579C57.6129 9.74789 58.1701 10.2135 58.7963 10.4393C59.4409 10.6715 60.2716 10.449 59.8879 9.61118C59.5994 8.98077 59.0796 8.63642 58.6195 8.14077C58.4245 7.93022 58.2489 7.70674 58.0994 7.46224C57.8466 7.04983 57.7238 6.63067 57.8677 6.15448C58.2274 4.88854 59.4385 4.85436 60.478 4.50266C60.613 4.45702 61.1848 4.09122 61.3473 3.99368C61.4075 4.01953 61.4668 4.04782 61.5245 4.07838C61.7549 4.20221 61.9407 4.43069 61.9923 4.6888C62.2475 5.97164 61.6229 6.95973 60.3809 7.31151L60.3939 7.32317C61.8675 8.62862 62.7831 10.6341 60.8604 12.11C60.3053 12.5363 59.5128 12.5187 58.8301 12.5541C58.7244 12.7489 58.9817 13.4769 58.481 14.3391C58.9532 14.3325 59.286 14.3382 59.7152 14.5403C60.0611 15.0018 60.2061 15.4127 60.2549 15.9831C60.6239 15.7443 60.7243 15.6979 61.1275 15.5673C62.239 15.9863 62.2674 16.5503 63.1139 17.1015C63.2546 17.4981 63.4744 18.203 63.4943 18.622C63.5021 18.7826 63.4118 19.0054 63.2854 19.1086C62.8169 19.4904 62.2674 19.4406 61.7176 19.4081C61.503 19.3953 61.1799 19.4163 60.9718 19.4033C60.2854 19.3605 60.1663 19.0941 59.7623 18.6105C59.6843 18.5169 59.1011 18.7602 58.8431 18.6712C58.5826 18.5814 58.4029 18.4817 58.1688 18.332C57.2719 17.7578 56.8732 17.5137 55.765 17.6692C55.1619 17.7539 54.3852 17.4183 53.9285 17.0035C53.3985 16.5224 53.1185 15.9169 53.0734 15.1925C52.2016 15.4287 51.4705 15.1959 50.576 15.238C50.09 15.2608 49.6344 15.3301 49.1496 15.3651C48.9277 15.381 48.3047 15.3306 48.1352 15.4302L48.1649 15.4817C48.7659 15.7711 49.3097 15.2719 50.1022 15.7674C50.4777 16.3678 50.2538 16.6948 49.8563 17.2146C49.4048 17.8045 48.8179 18.5187 48.138 18.8483C47.7796 19.022 46.9359 18.7356 46.5685 18.6292C45.8008 18.3942 45.0319 18.1861 44.2862 17.8895C43.9765 17.7662 43.8566 17.4731 43.7501 17.1941C43.3352 17.9568 42.7211 18.358 42.1408 18.9845C41.662 19.5015 41.1101 19.7965 40.5286 20.1593C38.6193 21.3504 36.9108 21.6617 34.6831 21.65C33.9292 21.629 32.5074 21.4592 31.8226 21.2474C30.0349 20.6946 28.1581 19.5477 26.9322 18.1244C26.7066 17.8626 26.4421 17.6068 26.2759 17.3069C26.0218 17.7519 25.878 17.9521 25.3293 18.0371C24.2471 18.2047 23.2181 18.8567 22.1285 18.8825C21.5767 18.8956 21.0788 18.268 20.7178 17.895C20.4168 17.8674 20.3796 17.8597 20.1045 17.7169C19.8713 17.3545 19.5509 16.8925 19.4001 16.4945C19.2735 16.1605 19.3404 16.0144 19.4832 15.7187C20.2668 15.1907 21.6149 15.5481 21.9369 15.2089L21.9199 15.1596C21.5955 15.1035 21.3352 15.2394 21.0234 15.2214C19.986 15.1615 18.9899 15.0396 17.9524 15.204C17.8882 15.2142 17.5166 15.2388 17.4793 15.283C17.1989 15.615 17.0239 16.4182 16.6856 16.6783L16.6651 16.6938C16.285 16.9849 15.716 17.2075 15.291 17.442C14.5257 17.8643 13.6932 17.4581 12.8718 17.4625C12.6016 17.6544 12.3748 17.9835 12.0496 18.1874C11.4769 18.5466 11.1008 18.5522 10.482 18.4395C9.71528 19.7936 9.15506 19.4505 7.81531 19.3637C7.32767 19.3321 7.15349 19.2817 6.68438 19.1222C6.36746 18.4761 6.58131 17.2855 7.13134 16.8117C7.84994 16.1927 8.98872 14.7255 9.77535 16.1377C10.1166 15.5057 10.1828 14.6585 11.0123 14.5493C11.3946 14.499 11.8307 14.3825 12.1923 14.2527C11.8295 13.73 11.7507 13.1501 11.7417 12.5313C11.3333 12.6375 10.9581 12.6053 10.5515 12.5671C8.2919 12.355 7.24883 9.61414 8.90983 8.02316C9.08065 7.85958 9.51009 7.46712 9.63014 7.2807C9.332 7.10156 9.01123 6.95217 8.72972 6.75096C7.70953 6.02183 7.65141 4.67876 8.36733 3.72468C8.60711 3.88169 9.62429 4.5344 9.81632 4.59451C10.9937 4.96303 12.4549 4.93304 12.4834 6.60409C12.4667 7.7477 11.2167 8.34523 10.5278 9.11565C10.1505 9.53766 9.80327 10.0556 10.3693 10.5225C11.1518 11.1679 12.3165 10.0431 12.9476 9.62329C13.402 9.32101 13.8156 8.95553 14.3399 8.76631C14.6802 8.53324 16.2012 8.47447 16.4091 8.30776C17.6758 7.29204 18.0328 6.88487 19.7555 6.75823C20.5417 5.74105 21.8033 5.4651 22.9278 5.02956C23.1869 4.92922 23.5176 4.68225 23.7775 4.5418C24.6269 4.08277 25.3747 4.02575 26.2964 4.30349C26.5175 3.87005 26.8592 3.48859 27.1755 3.13758C28.5885 1.5692 30.4664 0.661851 32.5187 0.25673C32.9772 0.166234 33.4805 0.0253899 33.9598 0.0171903Z" fill="#AEAEAE"/>
<path d="M45.0241 4.508C46.3843 4.43871 46.6225 5.23315 47.5735 5.78874C47.8645 5.95861 48.9166 6.16592 49.3982 6.42472C49.8749 6.68087 50.3037 7.03107 50.7487 7.25154C51.0905 7.42089 51.642 7.4671 52.0788 7.70183C52.4023 7.87561 53.1144 8.408 53.3736 8.50285C54.312 8.84614 54.8225 8.86821 55.7816 9.30473C56.9187 9.77953 57.6661 10.7614 58.9231 10.9728C59.5749 11.0824 60.4739 10.8947 60.5918 10.0963C60.6653 9.59693 60.0663 8.82651 59.7261 8.45319C59.2039 7.88012 58.3017 7.37387 58.4045 6.43931C58.5805 5.32012 60.1382 5.178 60.9872 4.89697C61.1119 4.85564 61.3143 4.69088 61.4163 4.61042C61.5899 6.61816 61.0949 6.46873 59.4299 7.02302C59.7712 7.60145 60.3552 7.96478 60.7759 8.49253C61.6126 9.54255 61.7744 10.7495 60.5735 11.6091C59.733 12.2106 59.0539 12.0616 58.116 11.9174C58.1887 12.3797 58.374 12.734 58.3127 13.2604C58.2765 13.5695 57.9615 14.2453 58.0375 14.4821C58.209 15.0154 58.9475 14.8281 59.3278 15.0062C59.7281 15.1935 59.7371 15.9045 59.8655 16.194C60.0602 16.6329 61.0465 17.5197 61.4708 17.7363C61.7077 18.1366 61.7447 18.3565 61.8329 18.8078C61.4273 18.8353 61.1367 18.8544 60.7328 18.8043C60.454 18.6243 60.1081 18.2014 59.7802 17.948C58.7638 18.4718 58.7195 18.0106 57.8575 17.4766C57.4742 17.2303 56.7606 16.9914 56.3152 17.047C54.6965 17.2491 53.8455 16.7256 53.6159 15.0666C53.5951 14.9182 53.576 14.7537 53.6707 14.6312C53.9544 14.7086 53.9995 15.1226 54.2438 15.4272C54.5839 15.852 54.8574 16.1387 55.3821 16.3482C56.2051 16.6767 56.9622 16.2657 57.8193 16.5425C58.157 16.6516 58.2354 16.7001 58.5427 16.8548C58.7341 16.9511 59.2096 17.3206 59.3067 17.336C59.4855 16.9545 57.6766 16.0291 57.0447 16.154C54.996 16.5592 53.9373 14.9263 53.915 13.0932C53.9134 12.9558 53.6959 12.3531 53.5703 12.2679C53.4712 12.5103 53.8613 13.4053 53.483 14.2278C52.912 14.938 52.1569 14.6925 51.3701 14.6881C50.2891 14.682 49.3682 14.9873 48.2753 14.9562C48.3103 14.8473 48.3448 14.738 48.3786 14.6285C48.429 14.4644 48.5131 14.2522 48.4294 14.0946C48.1871 14.0877 48.114 14.7712 47.782 15.0294L47.7596 15.0467C47.1976 15.4846 46.5973 15.4337 46.2051 16.2633C45.9125 16.7109 46.5766 16.9801 46.8887 17.0877C48.0839 17.5001 47.7978 16.6387 48.3375 16.1758C48.4355 16.092 49.538 15.9421 49.6888 16.3402C49.6782 16.9282 49.154 17.2151 48.6602 17.3357C48.2725 18.8126 47.5739 18.3429 46.3604 18.0543C45.8845 17.9411 45.4557 17.7277 45.0802 17.417C44.9315 17.4235 44.6356 17.4468 44.5092 17.3649C44.2654 17.2071 43.9195 16.0638 44.0171 15.823C44.2463 15.2567 44.6661 14.6103 44.9888 14.0728C45.2493 14.169 45.3854 14.2373 45.6309 14.367C45.4086 14.6005 45.0595 15.1235 44.9213 15.4264C44.6901 15.9323 44.7973 16.2831 44.9831 16.7622C45.0229 16.4598 44.9855 16.0073 45.0867 15.7342C45.2554 15.2793 45.9239 14.797 45.9609 14.2775C45.9792 14.0163 45.324 13.8127 45.2066 13.6648C44.6978 13.025 44.5112 12.2766 44.4726 11.4724C44.4649 11.3106 44.4446 11.124 44.3377 11.0365C43.7098 11.2724 44.6267 13.5336 44.7543 13.9904C44.2832 13.9896 43.6659 14.018 43.2087 13.9067C42.9242 13.8375 42.3959 13.2519 42.1484 13.2492C41.9948 13.5805 42.7816 14.1455 42.9088 14.4586C43.0567 14.8226 43.7809 15.5514 43.5993 15.9255C43.4778 16.0095 43.2774 15.9848 43.1217 15.9821C43.2221 16.7453 43.2469 16.8269 42.5577 17.2169C41.4612 16.7558 41.0288 16.6552 39.8758 16.7734C39.5361 16.6029 39.3199 16.4243 39.0886 16.1262C38.7208 16.5413 38.2787 16.8839 37.7849 17.1362C37.5212 17.2702 36.9647 17.5498 36.794 17.1774C36.9193 16.9844 37.2768 16.7972 37.4133 16.6498C37.6351 16.3612 37.7536 15.9939 37.9401 15.6749C38.0405 15.5031 38.325 15.1277 38.3282 14.9643L38.264 14.9295C37.8735 15.1855 37.5505 16.0108 37.1728 16.3434C36.8554 16.623 36.3373 17.0401 35.9471 16.6382C35.9483 16.4496 36.3018 16.1744 36.4425 16.0477C38.1116 14.5453 38.0458 11.9567 38.9342 9.96574C39.801 8.0231 41.4047 7.16018 43.0388 5.93134C43.7301 5.41148 44.2292 4.84475 45.0241 4.508Z" fill="black"/>
<path d="M40.6423 11.5634C40.9032 11.5908 41.4128 12.4786 41.2889 12.7484L41.2056 12.766C40.9999 12.7141 40.9735 12.5284 40.8536 12.4591C40.5192 12.2655 39.8831 12.9857 39.7446 13.2112L39.7356 13.2259C39.671 13.4305 39.6385 13.6871 39.4211 13.7527C38.8533 13.2171 40.2908 11.9765 40.6423 11.5634Z" fill="#AEAEAE"/>
<path d="M44.9729 6.77453C45.1204 6.84935 45.1314 6.86821 45.1972 6.9972C45.2066 7.44859 44.3629 7.99512 44.0857 8.3484C43.9309 8.54588 43.8634 8.66105 43.735 8.87827L43.6952 8.93387L43.6423 8.93866C43.6062 8.79366 43.6574 8.57034 43.6757 8.41835C43.7496 7.80285 44.4877 7.12782 44.9729 6.77453Z" fill="#AEAEAE"/>
<path d="M40.429 15.2671C40.9089 15.2728 41.2661 15.4619 41.0349 15.9992C40.6476 16.026 40.3371 15.6462 40.429 15.2671Z" fill="#AEAEAE"/>
<path d="M8.53692 4.48058C8.8047 4.63266 9.17964 4.92966 9.48205 5.01967C10.233 5.22068 11.9498 5.42742 11.9046 6.52836C11.8421 8.05172 9.34419 8.36335 9.59214 10.1096C9.76141 11.3015 10.7184 11.2732 11.6604 11.0458C12.8017 10.7702 13.3623 9.95567 14.3503 9.42702C15.376 8.8824 16.5818 9.21508 17.4636 8.29259C18.2123 7.55879 18.8891 7.39725 19.9117 7.31654C20.2654 7.08997 20.6514 6.64825 21.0717 6.41668C21.6535 6.09298 22.2597 5.93587 22.8751 5.67886C23.4989 5.44002 24.437 4.75511 25.0808 4.69041C26.1246 4.58551 27.1117 5.31192 27.8025 6.00183C28.1198 6.31874 28.5767 6.57843 28.907 6.88571C29.5801 7.5121 30.1334 8.18307 30.6665 8.92881C31.5172 9.95717 31.6209 10.5197 31.7599 11.833C31.8882 12.4845 32.0547 13.6308 32.4844 14.1665C32.9175 14.7064 33.3384 15.3866 33.7826 15.9154C33.9416 16.1047 34.2706 16.2091 34.4552 16.3611L34.4504 16.4387C33.5 17.2964 32.2459 14.6434 31.8087 14.6963C31.801 14.8709 32.6522 16.3718 32.8113 16.5214C32.9794 16.6795 33.6978 16.996 33.7464 17.1557C33.6788 17.227 33.6621 17.2464 33.5585 17.2518C32.8285 17.2892 32.097 16.9957 31.5993 16.4581C31.5343 16.388 31.3868 16.282 31.3052 16.2196C30.2422 17.0617 30.3418 16.8333 29.0143 16.8838C28.5618 16.901 27.6532 17.4969 27.1664 17.1495C26.943 16.99 26.9176 16.6577 26.8816 16.4238C26.9423 16.2227 27.1006 15.9487 27.2027 15.7562C27.0751 15.7548 26.9281 15.7344 26.8218 15.6603C26.777 15.41 27.2341 14.9425 27.3693 14.6864C27.5473 14.3492 27.7364 14.0029 27.9393 13.6805C27.4365 13.8102 26.1461 14.0459 25.6723 13.966C25.8247 13.5111 26.2617 12.4036 26.1084 11.9353L26.0613 11.9274C25.8399 12.1445 25.7764 13.3867 25.225 13.6831C24.8684 13.8747 24.5392 13.8771 24.2212 14.0163C24.3134 14.2811 24.4034 14.498 24.5124 14.7508C24.6937 15.1717 25.09 15.5266 25.1445 15.9763C25.1721 16.1998 24.9499 16.8159 25.0516 16.9691C25.2352 16.9229 25.2324 16.8018 25.337 16.7029C26.203 15.8843 24.7584 14.8565 24.8155 14.2358C24.9771 13.9854 25.2477 14.0963 25.5005 14.1571C25.6237 14.3073 26.3413 15.7393 26.3113 15.9644C26.2428 16.4199 25.9634 17.0108 25.634 17.332C25.4189 17.5417 24.9026 17.4584 24.6069 17.5853C23.9524 17.8661 22.1389 18.8077 21.5518 18.0515C21.1891 17.5842 21.4104 17.2521 20.5287 17.3024C20.2363 16.9694 19.9991 16.6741 19.8982 16.2265C19.9131 16.1615 19.917 16.0836 19.9904 16.0559C20.2708 15.9533 20.8431 15.8208 21.1315 15.8989C21.8049 16.0811 21.7197 17.0349 22.3777 17.2458C22.6924 17.3466 23.8604 16.9922 23.8948 16.6609C23.9997 15.6472 22.8088 15.3082 22.2105 14.7608C21.9432 14.5177 21.7573 13.9409 21.5849 13.7915C21.5178 13.8306 21.5393 13.8012 21.5214 13.8461C21.4384 14.0544 21.7366 14.5895 21.4325 14.7094C20.815 14.9529 19.7584 14.5343 19.0946 14.5243C18.4594 14.5147 17.9179 14.7357 17.328 14.6397C17.089 14.6008 16.9893 14.4316 16.8887 14.3081C16.566 13.9117 16.9087 12.6161 16.8097 12.4432C16.6936 12.4135 16.7399 12.4077 16.6363 12.4632C16.5713 12.6 16.499 13.1293 16.4748 13.3043C16.3228 14.4015 15.9138 15.3795 14.7925 15.7926C13.6773 16.2035 12.1717 15.827 11.217 16.7198C11.402 16.8663 11.9121 16.4393 12.2649 16.3639C13.0301 16.2004 13.8967 16.1846 14.6787 16.2043C15.3483 16.1302 15.8479 15.663 16.2503 15.17C16.3526 15.0446 16.5181 14.8509 16.6481 14.7622C16.8174 14.7581 16.9144 14.8576 16.9926 14.994C17.0039 15.2314 16.6174 15.8142 16.4663 16.0139C16.0061 16.6225 15.1004 17.0979 14.3299 17.0475C13.8158 17.0138 13.25 16.8365 12.7416 16.9926C12.0157 17.2154 11.9657 17.8914 11.1288 17.9586C10.7903 17.9857 10.6696 17.9405 10.3276 17.8765C10.0583 18.0972 9.79095 18.5599 9.51671 18.7902C9.20915 19.0484 8.50884 18.8416 8.08923 18.7806C8.13072 18.5617 8.28653 17.9497 8.43715 17.8238C9.02371 17.3334 9.69398 16.8556 10.2749 16.3517C10.5308 16.0946 10.634 15.3667 10.9342 15.1833C11.094 15.0856 11.5846 15.0314 11.7953 14.9814C13.0861 14.6749 12.5989 14.1907 12.4003 13.2303C12.3425 12.9512 12.3246 12.2264 12.31 11.9111C11.6465 12.0632 10.7941 12.2584 10.2006 11.9815C7.7639 10.8443 8.54436 8.6903 10.3682 7.45479C10.5327 7.34336 10.894 7.04209 10.79 6.84227C10.4996 6.61631 9.90698 6.72571 9.56459 6.59265C8.57386 6.20759 8.21261 5.44416 8.53692 4.48058Z" fill="black"/>
<path d="M11.217 16.7198C11.402 16.8663 11.9121 16.4393 12.2649 16.3639C13.0301 16.2004 13.8967 16.1846 14.6787 16.2043C13.818 16.439 13.1218 16.2492 12.1746 16.523C11.4773 16.7244 10.9989 17.2766 10.7062 17.3365C10.7175 17.1345 10.9724 16.9338 11.125 16.7978C11.1549 16.7709 11.1856 16.7449 11.217 16.7198Z" fill="#FFA811"/>
<path d="M29.969 11.3126C30.3399 11.3884 31.6363 13.1522 30.8779 13.5242L30.7889 13.4936C30.7013 13.3979 30.711 13.2443 30.7025 13.1097C30.5838 12.6258 30.4329 12.5131 30.0467 12.2194C29.8692 12.3152 29.5404 12.6001 29.4443 12.6109C29.2592 12.2912 29.7044 11.5318 29.969 11.3126Z" fill="#AEAEAE"/>
<path d="M25.7303 7.61194C26.2787 7.82067 26.5005 9.16793 26.1071 9.58141C26.0075 9.39154 25.9863 8.75702 25.9113 8.52448C25.8386 8.29913 25.5891 8.08069 25.5254 7.8622C25.5804 7.70919 25.5926 7.73394 25.7303 7.61194Z" fill="#AEAEAE"/>
<path d="M29.7312 15.2337C29.8501 15.2182 29.8835 15.2078 29.9951 15.2571C30.2418 15.5858 29.9617 15.8765 29.5883 15.9032C29.465 15.906 29.3708 15.9173 29.2566 15.8673C29.1717 15.757 29.1884 15.8103 29.1975 15.6666C29.3495 15.4115 29.4607 15.3516 29.7312 15.2337Z" fill="#AEAEAE"/>
<path d="M62.3401 17.2264C62.5852 17.2586 62.6685 17.3416 62.7506 17.5792C62.838 17.8324 63.0534 18.4268 62.9278 18.6719C62.8245 18.7737 62.651 18.8075 62.508 18.849C62.4116 18.8919 62.397 18.8998 62.2926 18.8981C62.1654 18.804 62.0187 18.2041 61.9821 18.0295C61.874 17.5156 61.8419 17.4371 62.3401 17.2264Z" fill="black"/>
<path d="M22.4526 15.747L23.0335 15.7051C23.2352 16.4114 23.7293 16.7673 22.7155 16.9634C22.3647 16.9328 21.998 16.1278 21.7804 15.7956C21.9734 15.7673 22.2522 15.759 22.4526 15.747Z" fill="black"/>
<path d="M7.54258 17.2199C8.34393 17.1358 8.06192 18.2565 7.84019 18.6486C7.75505 18.7992 7.75216 18.7752 7.60643 18.8409C7.32613 18.75 7.18946 18.6876 6.92392 18.5577C7.25221 18.1949 7.19978 18.0143 7.27716 17.5187C7.35722 17.4223 7.45797 17.315 7.54258 17.2199Z" fill="black"/>
<path d="M46.8135 15.8832C47.1687 15.9022 47.5491 15.9034 47.9055 15.9071C47.8625 16.2843 47.7918 16.5409 47.6548 16.8901C47.6471 16.8928 47.6394 16.8954 47.6316 16.898C46.6742 17.0852 46.386 16.6718 46.8135 15.8832Z" fill="black"/>
<path d="M8.89784 16.1155C9.00631 16.0958 9.18216 16.1687 9.26275 16.2413C9.45709 16.6329 8.81181 17.1104 8.52566 17.2816C8.39622 17.2569 8.20334 17.1751 8.13145 17.0655C7.88281 16.6865 8.6746 16.2568 8.89784 16.1155Z" fill="black"/>
<path d="M61.0189 16.1559C61.3363 16.1543 61.9943 16.6154 61.926 16.9962C61.8578 17.1393 61.7761 17.1803 61.6452 17.2707C61.2868 17.3362 60.6942 16.8143 60.7617 16.4018C60.8125 16.2783 60.9072 16.2313 61.0189 16.1559Z" fill="black"/>
<path d="M36.494 25.9364C37.087 25.8931 37.8727 25.9294 38.4786 25.9206C39.5572 25.9051 40.6671 25.9315 41.7428 25.9197C42.9889 25.906 44.5324 26.2156 45.4321 27.1408C46.0621 27.7885 46.6603 29.0808 46.6022 30.0111C46.5242 31.2673 46.134 31.9582 45.2476 32.803L45.2627 32.8733C45.3972 33.006 45.6504 33.0185 45.8247 33.1147C47.9957 34.3139 48.4936 36.9151 47.1805 38.989C46.909 39.2907 46.746 39.5828 46.4404 39.8749C44.9115 41.3358 42.5934 41.0741 40.6374 41.0762C39.2752 41.0774 37.8609 41.1066 36.5009 41.0757C36.4415 40.4886 36.4949 38.8939 36.4957 38.2152L36.4933 27.8189C36.4925 27.4216 36.4513 26.2321 36.494 25.9364ZM39.8242 28.6238C39.9262 29.4928 39.8596 31.4524 39.862 32.4173L39.8709 36.0432C39.8734 36.6326 39.9408 37.9263 39.8063 38.4456C40.3724 38.3934 41.1885 38.3867 41.7603 38.4136C42.9405 38.4691 44.2036 38.2884 44.4771 36.8702C44.6328 35.9006 44.1235 34.7581 43.0421 34.6513C42.3744 34.5853 41.3941 34.5948 40.724 34.6703C40.7244 33.8351 40.6813 32.5687 40.7264 31.777C41.4128 31.7937 42.365 31.92 42.8974 31.4107C43.559 30.7772 43.4652 29.6436 42.8487 29.0126C42.4008 28.5579 41.5636 28.6156 40.9686 28.6254C40.5919 28.6324 40.1989 28.6468 39.8242 28.6238Z" fill="black"/>
<path d="M32.1021 25.2143C32.2501 25.1992 32.3716 25.1623 32.4756 25.2395C32.5467 25.4661 32.5039 27.4079 32.506 27.7639C32.5322 32.1917 32.4284 36.6292 32.4972 41.0562C31.5623 41.118 30.4393 41.0647 29.4501 41.1102C29.4073 40.6843 29.4172 40.4422 29.4869 40.0237C27.9453 41.5504 25.9073 41.7211 24.0536 40.6055C23.8219 40.466 23.5401 40.1975 23.3306 40.0147C22.3016 38.9222 21.8471 37.7527 21.8832 36.3054C21.9434 33.8901 23.6492 31.5212 26.1972 31.4561C27.6183 31.4197 28.5306 31.7436 29.4613 32.7372C29.4076 31.9762 29.4455 30.7394 29.4456 29.9311L29.4277 25.2148C30.319 25.2439 31.2109 25.2437 32.1021 25.2143ZM27.5836 38.7128C28.3424 38.5132 28.6525 38.3146 29.0916 37.6135C29.8004 36.4821 29.4655 34.9455 28.3359 34.2329C27.9897 34.0145 27.5537 33.9368 27.1358 33.944C24.103 34.4564 24.8065 39.0738 27.5836 38.7128Z" fill="black"/>
<path d="M0.0232142 25.8848C0.286026 25.9421 1.21252 25.9245 1.53443 25.9239L4.08854 25.9187C5.66896 25.9153 6.92584 25.814 8.25051 26.7992C11.0783 28.902 10.6206 33.1582 7.35866 34.5627C7.15562 34.6501 6.83257 34.5907 6.7163 34.7735C6.91157 35.17 7.39596 35.8048 7.66638 36.1782L9.19267 38.2997C9.67084 38.9745 10.5012 40.5268 11.1481 40.9649C11.0473 40.9933 10.8463 41.0486 10.7439 41.0514C9.71364 41.0783 8.67272 41.0978 7.64265 41.0701C7.57641 41.0681 7.28782 41.0254 7.24917 40.9974C6.88052 40.732 6.39431 39.7559 6.1909 39.4477L4.82779 37.3631C4.59171 37.0001 4.18718 36.4283 4.02892 36.049C3.85027 35.1768 4.04624 33.6465 3.98857 32.7143C3.96634 32.3552 4.9137 32.483 5.23293 32.4274C6.81473 32.1518 7.29339 30.5322 6.47709 29.2674C5.86651 28.3777 4.28845 28.7084 3.30146 28.6128C3.2846 29.5537 3.31427 30.6122 3.31581 31.564L3.31329 37.4811C3.31394 38.5613 3.36336 40.0222 3.30077 41.0713C2.22072 41.112 1.15196 41.0522 0.0290622 41.1128C-0.0312722 40.2019 0.0209992 38.5316 0.0213243 37.5835L0.0232021 30.5218L0.0187195 27.469C0.0159763 27.1861 -0.0164019 26.0994 0.0232142 25.8848Z" fill="black"/>
<path d="M15.6257 31.3091C18.9709 31.3397 20.5612 33.3423 20.5753 36.5842C20.576 36.7355 20.5773 36.8889 20.5759 37.0406C20.333 37.0482 20.0894 37.0501 19.8464 37.0441C17.8712 36.996 15.8931 37.0595 13.9185 37.0201C13.9636 37.6299 14.111 38.1292 14.6161 38.527C15.0703 38.884 15.649 39.0435 16.222 38.9695C17.0086 38.8662 17.3734 38.3517 17.8162 37.7781C18.3987 38.0156 19.2481 38.4351 19.8062 38.7253C20.3309 39.001 20.2053 39.1426 19.8504 39.592C18.0976 41.8194 14.3266 42.0206 12.2795 40.0933C9.01524 37.0197 10.955 31.3235 15.6257 31.3091ZM13.9033 35.2347C14.5328 35.2243 15.1624 35.2212 15.792 35.2254L17.5649 35.2202C17.1688 34.0413 16.9064 33.516 15.5788 33.4172C14.4827 33.566 14.0594 34.1931 13.9033 35.2347Z" fill="black"/>
<path d="M51.9362 31.6616L51.9338 35.7211C51.9314 36.1132 51.8639 37.2089 51.9472 37.5349C52.1496 38.3272 53.1051 38.9734 53.9589 38.71C55.3277 38.2877 55.2931 37.3228 55.2622 36.127C55.298 35.5083 55.1582 32.0127 55.3118 31.7478C55.6101 31.6017 57.8913 31.6397 58.3517 31.6657C58.4033 32.1414 58.3566 33.7479 58.355 34.3153C58.3509 35.2624 58.4692 37.545 58.2786 38.3167C57.2674 42.41 50.0306 42.4304 48.8968 38.4028C48.7614 37.9209 48.8065 36.9073 48.8086 36.4207C48.8135 35.6784 48.8139 34.9359 48.8098 34.1935C48.8061 33.4147 48.7883 32.6313 48.7842 31.8525C48.7842 31.7867 48.8216 31.7111 48.8569 31.6567C49.849 31.6612 50.9605 31.6215 51.9362 31.6616Z" fill="black"/>
<path d="M62.7266 25.2106C62.8119 25.1869 62.8274 25.1955 62.9176 25.212C63.0363 25.3958 62.9912 27.1204 62.9912 27.5055L62.9867 41.0599C62.082 41.1229 60.9559 41.0623 59.9891 41.1046L59.9114 41.0973L59.855 41.0233C59.794 40.4773 59.8399 38.8257 59.8411 38.2158L59.8387 27.7782C59.8371 27.2739 59.7989 25.7378 59.872 25.305C60.0309 25.1784 62.3133 25.2315 62.7266 25.2106Z" fill="black"/>
<path d="M67.6298 25.2143C67.7566 25.1962 67.8903 25.1565 67.9915 25.2156C68.0907 25.3825 68.057 27.2086 68.0566 27.5318V31.1644C68.0574 34.4495 68.0854 37.7842 68.048 41.0652C67.1674 41.0977 66.1449 41.0782 65.2512 41.0839C65.1211 41.09 65.0435 41.0981 64.9508 41.0116C64.9061 40.6934 64.9354 39.8636 64.9362 39.5014L64.9395 36.4391L64.9378 28.7148C64.9374 28.1464 64.8935 25.6655 64.9939 25.312C65.2402 25.181 67.1625 25.2376 67.6298 25.2143Z" fill="black"/>
</svg>
