<svg width="159" height="17" viewBox="0 0 159 17" fill="none" xmlns="http://www.w3.org/2000/svg">
<path d="M105.437 0.29252L107.188 0.292234V7.55303H115.907V0.297725L117.742 0.292234C117.742 1.96148 117.844 16.2849 117.698 16.5655C117.648 16.6602 117.611 16.6696 117.513 16.6993L115.907 16.6946V9.16237H107.188V16.6993L105.385 16.6942L105.383 4.72253C105.383 4.10166 105.318 0.660803 105.437 0.29252Z" fill="black"/>
<path d="M19.3738 0.292234L21.1527 0.292282L21.1491 7.72782C21.1475 9.08604 21.0568 10.7734 21.2759 12.0934C21.6271 14.2083 23.3985 15.414 25.4963 15.3447C30.3845 15.1832 29.8906 11.3798 29.8897 7.81699L29.8889 0.292282L31.731 0.292237V1.90496C31.7345 4.79007 31.7529 7.71853 31.7229 10.5991C31.6687 12.3636 31.219 14.1832 29.8637 15.4019C26.762 18.1909 20.3606 17.2139 19.558 12.6405C19.2486 10.6321 19.3444 8.46856 19.3532 6.42292C19.3619 4.42389 19.2878 2.27852 19.3738 0.292234Z" fill="black"/>
<path d="M73.9383 0.292234L83.5293 0.292278V1.90073H75.7143V7.55303H82.6905V9.15482L78.3418 9.14913C77.5558 9.14847 76.5525 9.12079 75.7818 9.17453C75.6889 9.28602 75.7143 9.62879 75.7143 9.79221V15.0951H83.5293V16.6994L73.9169 16.6993L73.9176 5.86772C73.9169 4.33137 73.8367 1.75729 73.9383 0.292234Z" fill="black"/>
<path d="M122.603 0.292234L132.132 0.292257L132.136 1.90075H124.359V7.55303H131.382L131.382 9.15481L126.915 9.15194C126.308 9.15007 124.957 9.11331 124.419 9.18382C124.335 9.29237 124.359 9.57424 124.359 9.72537V15.0951H132.136L132.132 16.6993H122.579L122.581 5.73241C122.58 4.402 122.494 1.51141 122.603 0.292234Z" fill="black"/>
<path d="M136.246 0.292234H137.998L137.994 16.6993L136.222 16.6994L136.224 5.79888C136.223 4.36667 136.138 1.63139 136.246 0.292234Z" fill="black"/>
<path d="M143.319 0H143.646C144.827 1.46145 150.178 11.8552 150.833 12.2194C152.334 9.2712 154.215 6.38366 155.757 3.4391C156.005 2.9654 157.446 0.278296 157.737 0H158.038L158.472 10.6259C158.49 11.1641 158.53 14.9429 158.681 15.0999V16.6993L156.824 16.6993C156.816 15.6003 156.765 5.90574 156.533 5.33488C156.238 5.45849 151.545 14.0618 150.729 15.0111C150.688 15.0058 150.602 15.0062 150.568 14.9901C150.495 14.9556 146.878 8.74743 146.504 8.10636C146.085 7.38808 145.265 5.80063 144.754 5.2633C144.676 5.59497 144.679 8.53661 144.672 9.08605L144.533 16.6942L142.696 16.6993C142.858 14.4569 142.9 11.8652 142.991 9.59819L143.188 3.55601C143.231 2.32022 143.308 1.27365 143.319 0Z" fill="black"/>
<path d="M43.3298 0H44.179C44.3775 0.152746 45.4346 0.131599 45.8173 0.220281C47.0875 0.514592 48.808 1.00875 49.709 1.97569C49.9639 2.24916 49.2084 3.17912 48.9706 3.2785C48.7468 3.28442 48.2737 2.96942 48.0509 2.84501C46.1019 1.75651 43.9426 1.31616 41.7663 1.94673C40.1908 2.41964 38.8649 3.49405 38.0757 4.93735C37.0297 6.8452 37.0225 9.06566 37.6231 11.1118C37.6739 11.2848 37.8774 11.5518 37.9804 11.7461C38.5969 12.9098 39.3056 13.842 40.4855 14.4533C41.9932 15.2584 43.1583 15.5118 44.8172 15.261C46.7443 14.9697 48.113 14.1222 49.1015 12.4149C49.2999 12.0722 49.6822 11.1022 49.5675 10.7148C49.2572 10.5987 44.2415 10.6634 43.5177 10.6642V9.06172H51.5556C51.5417 9.81635 51.3927 10.8704 51.1767 11.5888C50.6162 13.4952 49.3212 15.1009 47.5767 16.0526C43.7064 18.1282 38.2239 16.5116 36.2026 12.544C33.8842 7.99346 35.8498 2.47676 40.6706 0.657046C41.0005 0.532515 41.3989 0.407667 41.7249 0.277583C42.1086 0.124474 43.0225 0.207764 43.3173 0.00855272L43.3298 0Z" fill="black"/>
<path d="M62.4439 0H63.2992C63.6132 0.229591 64.3461 0.0704806 64.6655 0.131759C65.3524 0.263525 66.3702 0.596972 67.0216 0.82117C67.2829 0.910991 68.9219 1.86931 69.0061 2.07135C68.8116 2.39772 68.3577 3.11398 68.0784 3.337C67.6579 3.23115 66.9568 2.70695 66.5306 2.49551C65.9035 2.1872 65.2115 1.99227 64.537 1.83749C60.7173 0.960948 57.182 3.14237 56.4416 7.0353C56.0846 8.9126 56.4054 10.8484 57.4535 12.4276C58.4069 13.8792 59.9027 14.8879 61.6059 15.2276C65.0182 15.9156 68.0703 14.1427 68.7702 10.6659L62.6186 10.6641V9.06172H70.6557C70.6918 14.4418 66.2385 17.8053 61.0434 16.7504C58.8851 16.3286 56.9826 15.0671 55.7541 13.243C52.3389 8.08263 55.4555 1.23146 61.4452 0.149677C61.7672 0.0915149 62.1508 0.198431 62.4308 0.00899508L62.4439 0Z" fill="black"/>
<path d="M8.0974 0H9.00497L9.01754 0.00854972C9.25857 0.169396 9.93219 0.134437 10.2212 0.13235C10.9708 0.126938 14.4163 1.40427 14.5829 2.05079C14.4156 2.49919 14.1254 2.95204 13.8075 3.30875C13.7078 3.34309 13.6824 3.37453 13.584 3.30838C11.4655 1.88442 8.80097 1.16134 6.31371 2.01397C4.72939 2.55405 3.42898 3.70883 2.7054 5.21819C1.84214 6.99914 1.72004 9.04969 2.36588 10.9204C2.92352 12.563 4.1107 13.9167 5.66635 14.6841C7.2544 15.4599 9.08424 15.5785 10.7592 15.0144C12.6918 14.3442 14.1513 12.7197 14.4168 10.6659H8.30956V9.06172H16.2796C16.234 11.3186 15.6017 13.3401 13.9435 14.8887C9.46143 19.0748 1.53439 16.5481 0.2413 10.5554C0.174094 10.2439 0.152137 9.53783 0 9.3359V7.75792C0.111144 7.61728 0.102032 7.52925 0.118875 7.36061C0.354398 5.00313 1.72149 2.99371 3.59915 1.60684C3.90257 1.38273 4.33504 1.23661 4.63649 1.04017C5.68084 0.359607 6.82134 0.257552 8.00837 0.0536125C8.01311 0.0528019 8.07554 0.015005 8.08537 0.00833181L8.0974 0Z" fill="black"/>
<path d="M88.0632 0H88.1889C88.388 0.140194 89.7309 1.8177 90.0049 2.12997C92.9299 5.46021 95.774 9.21726 98.715 12.5004V0.292248L100.508 0.292292C100.552 1.44444 100.512 2.89081 100.512 4.06149L100.512 15.1427C100.512 15.5103 100.534 16.6008 100.471 16.9235L100.37 16.9591C99.9709 16.7654 98.5639 14.9293 98.1529 14.4369L92.6665 7.88097C91.9447 7.01357 90.4046 5.0583 89.6453 4.31846C89.5571 8.32386 89.6426 12.6658 89.642 16.6993H87.8881L87.8861 2.13037C87.8854 1.5495 87.8787 0.948696 87.8968 0.368001C87.9034 0.136882 87.9248 0.141459 88.0632 0Z" fill="black"/>
</svg>
