<svg width="144" height="44" viewBox="0 0 144 44" fill="none" xmlns="http://www.w3.org/2000/svg">
<path d="M42.0866 4.4121C42.4993 3.57049 42.8655 2.84084 43.5161 2.15909C45.9398 -0.372909 50.2747 -0.395401 52.7935 2.01721C55.0172 4.14713 54.5597 7.66874 54.5442 10.4699L54.533 17.4702L54.5434 21.7101C54.5472 22.7194 54.9582 25.4459 53.3623 25.1679C52.1611 24.9586 49.4574 25.5666 48.5607 24.799C48.3295 24.6011 48.3991 22.2822 48.3995 21.7876L48.4063 13.0071C48.4074 11.42 48.4803 9.77973 48.3031 8.21258C48.1357 6.82685 47.2834 5.97161 45.8736 5.98997C42.76 6.03053 42.6012 8.99563 42.6387 11.3744C42.6548 12.394 42.6379 13.446 42.6379 14.4521L42.6413 24.3252C42.4855 24.9438 42.1458 25.1519 41.4842 25.1745C40.609 25.2045 39.9023 25.1559 38.9798 25.1405C38.3303 25.1298 36.8883 25.426 36.5361 24.6271C36.3492 23.7814 36.4435 22.5711 36.4432 21.6727L36.4427 13.6147C36.4473 12.0305 36.5183 10.3573 36.3682 8.79397C36.2386 7.44437 35.7278 6.17239 34.2481 5.97599C32.4914 5.71502 31.3417 6.63565 30.9661 8.34994C30.5372 10.3072 30.6543 12.4454 30.6545 14.4454L30.6634 21.3776C30.6671 22.1224 30.7228 23.9856 30.6311 24.6322C30.3221 25.2385 28.9687 25.2062 28.3744 25.1732C27.4354 25.121 25.5713 25.3304 24.7874 24.9385C24.3874 24.4712 24.5433 22.9248 24.5434 22.2505L24.5451 7.5752C24.5425 6.52594 24.4053 1.47815 24.7115 1.06539C24.9572 0.875247 25.3966 0.713665 25.6996 0.727901C26.6464 0.772374 29.5343 0.501503 30.177 1.01663C30.4994 1.27505 30.3906 3.9847 30.4144 4.5523C31.5795 1.71761 33.0222 0.46985 36.1475 0.21423C39.2677 0.143953 40.8582 1.80859 42.0866 4.4121Z" fill="black"/>
<path d="M111.9 0.21421C113.751 0.0673171 116.466 0.967029 117.911 2.14058C124.358 7.37589 123.916 21.6828 115.618 24.9832C114.654 25.3667 113.771 25.5084 112.745 25.6423C106.017 25.8837 102.636 20.7048 102.14 14.5209C101.853 10.645 102.534 6.38014 105.113 3.32615C106.905 1.20305 109.225 0.414521 111.9 0.21421ZM112.345 20.8981C115.247 20.4081 115.447 17.5993 115.638 15.1701C115.805 13.0582 115.696 10.7158 115.404 8.615C115.112 6.52059 114.322 4.85976 111.942 4.92498C109.334 5.37649 108.928 7.77357 108.732 10.0646C108.525 12.4886 108.155 21.4278 112.345 20.8981Z" fill="black"/>
<path d="M9.29603 0.0655647C12.1694 -0.232592 16.0803 0.451948 17.9979 2.82497C19.6418 4.85922 19.4222 7.74164 19.4203 10.2071L19.4165 15.2534C19.4161 16.2874 19.3931 16.9228 19.5197 17.9811C19.7075 19.5513 21.2714 20.6629 21.2767 21.7657C20.7224 22.7152 18.3717 24.4466 17.6685 25.1053C16.5417 26.1609 14.4814 22.9263 14.0081 22.2492C13.6001 22.7172 13.123 23.1546 12.6493 23.5546C9.66452 26.0758 4.10096 26.3817 1.47232 23.2054C-0.538489 20.6804 -0.423557 16.4832 1.41445 13.8941C4.15752 10.0302 9.08319 10.3649 13.1756 9.65772C13.1761 8.73963 13.2009 7.75304 13.0144 6.84887C12.4182 3.95665 7.59917 4.21745 6.7846 6.79993C6.61807 7.13464 6.36474 8.17723 5.88498 8.18792C4.41351 8.2195 2.84178 7.95574 1.38013 7.73918C0.7624 7.64767 0.70246 7.08499 0.818268 6.58442C1.85517 2.10241 5.1244 0.660971 9.29603 0.0655647ZM8.49933 20.8751C10.9408 21.408 12.5039 19.3813 12.9561 17.2194C13.2181 15.9668 13.1767 14.5962 13.1803 13.3175C12.5975 13.3236 12.0117 13.3237 11.4302 13.3578C9.89846 13.5692 8.30042 13.9126 7.31445 15.2319C6.06035 16.9101 6.16016 20.1956 8.49933 20.8751Z" fill="black"/>
<path d="M67.6512 0.0659186C67.6827 0.0606863 67.7233 0.0542147 67.7546 0.05222C70.4347 -0.11859 73.6174 0.300416 75.7057 2.11953C76.5209 2.83732 77.1146 3.77248 77.417 4.81547C77.6491 5.59261 77.7392 6.56989 77.7638 7.38032C77.8693 10.8398 77.7054 14.2964 77.8299 17.7562C77.8819 19.2155 79.6382 20.7631 79.7044 21.7708C79.5067 22.274 77.1146 24.1546 76.5674 24.6718C76.3479 24.8796 75.5186 25.4062 75.245 25.3096C74.1794 24.9332 72.9914 23.1007 72.4217 22.2611C72.2979 22.3844 72.1727 22.5066 72.0468 22.6275C69.8613 24.7207 68.1189 25.5079 65.0222 25.497C63.0399 25.4901 61.3194 24.7972 59.9398 23.3493C57.9467 20.8379 57.8909 16.4993 59.7743 13.89C62.5315 10.0702 67.4056 10.3429 71.5446 9.65962C71.5334 8.82902 71.577 7.98493 71.4307 7.16376C71.2956 6.4052 71.0136 5.75249 70.3637 5.30698C69.5809 4.77095 68.5618 4.67331 67.6492 4.84926C66.3848 5.09301 65.608 5.69724 65.1293 6.88079C64.9965 7.20905 64.8884 7.60244 64.6839 7.89236C64.5739 8.0483 64.4482 8.17694 64.2515 8.20522C63.638 8.29335 59.8787 7.92134 59.4206 7.58176C59.2658 7.4669 59.1741 7.31259 59.1484 7.12135C59.012 6.10434 59.9603 4.31775 60.5751 3.5C62.312 1.18962 64.9163 0.456575 67.6512 0.0659186ZM66.9288 20.9C67.8475 21.0296 68.7882 20.9346 69.5298 20.3354C71.6572 18.6165 71.546 15.7375 71.5425 13.311C71.0832 13.3209 70.2348 13.3129 69.8072 13.3565C66.8629 13.796 64.569 14.8716 64.974 18.5126C65.1086 19.7223 65.7757 20.5111 66.9288 20.9Z" fill="black"/>
<path d="M137.327 0.212648C138.833 0.130616 140.644 0.73951 141.752 1.73901C144.118 3.874 143.933 7.79105 143.935 10.7125L143.938 15.8102C143.938 18.4945 144.056 21.5054 143.924 24.155C143.914 24.3486 143.921 24.6369 143.782 24.7875C143.775 24.7946 143.768 24.8014 143.762 24.8084C143.691 24.8835 143.62 24.9461 143.535 25.0035C143.098 25.2959 139.139 25.2262 138.506 25.0933C138.214 25.0319 138.009 24.9627 137.89 24.6677C137.602 23.9537 137.768 22.3862 137.768 21.5747L137.777 13.4376C137.778 11.4536 138.319 6.36474 135.641 5.88767C133.335 5.47699 132.273 7.61641 131.911 9.52011C131.526 11.7571 132.055 24.0808 131.574 24.7963C131.437 25.0005 131.207 25.0855 130.975 25.1322C130.514 25.2256 127.084 25.2091 126.553 25.1453C126.292 25.114 126.069 25.0613 125.848 24.9137C125.509 24.4993 125.617 20.9572 125.617 20.2343L125.623 5.59425C125.621 4.89579 125.324 0.878591 126.157 0.766357C127.396 0.599383 129.116 0.864088 130.363 0.715202C131.895 0.532338 131.421 3.94864 131.417 5.02442C132.63 1.9797 133.892 0.523118 137.327 0.212648Z" fill="black"/>
<path d="M20.7118 27.6807C21.3769 27.6594 23.5474 28.9631 24.246 29.3282C25.9797 30.2405 27.7488 31.0837 29.5492 31.8557C44.6024 38.2181 61.3122 39.5304 77.1744 35.5959C79.672 34.9534 82.138 34.1934 84.5646 33.3185C85.2483 33.0695 88.3649 31.6747 88.91 31.8531C91.6475 32.7483 88.4275 34.6039 87.414 35.2716C78.0831 41.3727 65.408 43.9967 54.3766 43.2901C43.8754 42.5782 33.7849 38.9327 25.2535 32.7687C24.379 32.1368 20.1815 29.1261 20.245 28.1837C20.3315 27.951 20.5167 27.8358 20.7118 27.6807Z" fill="black"/>
<path d="M83.8219 0.693225C85.3137 0.60935 86.2893 0.645029 88.5823 0.677428C91.2121 0.714593 96.4262 0.501054 99.2136 0.843033C99.5955 0.889975 99.5639 2.72767 99.5512 3.11875C99.5442 3.33972 99.554 4.48835 99.4126 4.76429C97.3103 7.98603 92.9452 14.2866 90.8682 17.1314C92.8552 17.1234 94.9681 17.3059 96.7406 17.9105C98.9498 18.7021 100.333 18.9931 99.9725 21.718C99.8635 22.5396 100.356 24.0895 99.3831 24.5565C98.9625 24.6168 97.7963 23.9958 97.3061 23.7872C93.7372 22.305 89.3482 22.2941 85.7083 23.5158C84.8509 23.8034 84.0899 24.2944 83.2466 24.5452C82.3976 24.7976 82.2625 23.6234 82.3237 23.0677C82.3934 21.7775 82.1261 20.1077 82.5502 18.8895C82.8175 18.122 83.8015 16.8792 84.2833 16.1881L86.622 12.8272C88.2925 10.4493 89.9545 7.95762 91.663 5.61986C90.1402 5.54254 84.5618 5.82598 83.6215 5.44656C83.4491 5.37713 83.3499 5.31397 83.2803 5.14034C83.089 4.66245 83.0742 1.51885 83.2691 1.1127C83.3844 0.871582 83.5807 0.774786 83.8219 0.693225Z" fill="black"/>
<path d="M90.7788 26.1667C92.085 26.0908 95.433 26.2417 96.424 27.3457C96.8158 27.7824 96.647 29.7184 96.5373 30.367C95.9485 33.8652 94.4089 37.7237 91.5849 40.0158C91.319 40.2268 91.0883 40.3162 90.7528 40.2661C90.5833 40.1714 90.572 40.1433 90.4848 39.9674C90.4743 39.3547 91.4259 37.1177 91.6995 36.4073C92.3122 34.655 93.0021 32.7214 92.9874 30.8409C92.9761 29.3436 91.2775 29.2785 90.1261 29.1969C87.907 29.061 85.6787 29.39 83.4772 29.6263C83.0067 29.6768 82.3385 29.7116 82.2913 29.116C82.5551 28.3845 83.4878 28.0019 84.1271 27.6797C86.2231 26.623 88.4612 26.2964 90.7788 26.1667Z" fill="black"/>
</svg>
