<svg width="69" height="27" viewBox="0 0 69 27" fill="none" xmlns="http://www.w3.org/2000/svg">
<path d="M16.4412 0C17.377 0.0718965 18.3802 0.000721358 19.322 0.0183495C19.4709 0.0211396 19.639 0.0179851 19.7868 0.00827845C19.7391 0.76702 19.7551 1.62715 19.7558 2.39378L19.7599 5.91918C19.7603 6.38306 19.7875 7.82957 19.6987 8.20926C19.994 7.90646 20.3648 7.50491 20.7013 7.2507C22.1574 6.15086 23.6221 5.84214 25.4035 5.79676C27.5367 5.74242 29.5463 6.35818 31.1196 7.83056C32.7549 9.36103 33.3767 11.35 33.4018 13.5598C33.4072 13.9704 33.375 14.3807 33.3057 14.7854C33.1949 15.2771 33.0923 15.7706 32.9979 16.2657C32.2936 17.7881 31.8185 18.7271 30.4138 19.7492C28.4806 21.1559 26.1873 21.4084 23.8778 21.0484C22.3906 20.8165 20.5903 19.9817 19.6988 18.7046C19.6698 19.1437 19.6181 20.3023 19.6378 20.712C18.9505 20.6659 16.9896 20.6624 16.3272 20.7211C16.4916 18.7499 16.4527 16.3324 16.4556 14.3464C16.4602 13.4544 16.4509 12.5624 16.4275 11.6706C16.4684 10.5211 16.467 9.30165 16.4531 8.15073C16.4204 5.44453 16.508 2.70243 16.4412 0ZM25.1516 18.9178C25.7467 18.8673 26.4434 18.7664 26.9808 18.5055C31.8014 16.1651 30.4991 7.7212 24.5885 8.07295C21.8064 8.23491 20.027 10.1136 19.787 12.8827C19.492 16.2862 21.5368 19.0767 25.1516 18.9178Z" fill="black"/>
<path d="M37.5311 10.1919C37.1986 10.212 34.2447 10.2483 34.128 10.1895C34.0941 10.1255 34.0882 10.0468 34.0982 9.97587C34.6461 5.96727 39.4683 5.62689 42.6524 5.83582C44.6032 5.96381 46.2186 6.47454 47.5067 7.97726C47.8649 8.42067 48.112 9.04234 48.3005 9.57815C48.6912 10.7072 48.5609 12.7126 48.587 13.9232C48.6349 16.1361 48.4755 18.5073 48.6968 20.7032C47.6411 20.7051 46.6211 20.6973 45.5635 20.7146C45.5171 20.1465 45.4074 19.1677 45.4969 18.6431C45.1714 18.9564 44.9236 19.2814 44.5763 19.5915C42.9889 21.0105 41.0705 21.1937 39.05 21.1958C36.3771 21.1985 33.3318 20.0777 33.0332 17.0569C33.0089 16.811 33.032 16.4933 32.9979 16.2657C33.0923 15.7706 33.1949 15.2771 33.3057 14.7854C33.6596 14.221 33.6592 13.9837 34.2594 13.4351C36.2011 11.6601 40.1761 11.659 42.6686 11.6309C43.4116 11.6225 44.4799 11.5902 45.2012 11.6245C45.1522 10.8589 45.178 10.2686 44.8083 9.56191C44.4799 8.93376 43.743 8.43565 43.0729 8.24601C41.8386 7.89657 39.9047 7.87784 38.768 8.50279C38.0282 8.9095 37.7528 9.43301 37.5311 10.1919ZM39.1472 18.9777C40.3889 19.2252 42.2311 18.8818 43.3008 18.1723C44.9446 17.0821 45.115 15.6646 45.1891 13.8203C44.3561 13.8722 43.4974 13.8237 42.6623 13.8542C40.7615 13.8923 36.3793 13.796 36.4839 16.5054C36.5483 18.163 37.7797 18.6529 39.1472 18.9777Z" fill="black"/>
<path d="M16.0502 16.4889C15.5274 18.1877 15.2466 18.8775 13.6774 19.9072C11.349 21.3693 8.25921 21.4111 5.64313 20.9115C1.14263 19.9794 -0.60159 15.9946 0.180904 11.7278C1.11332 6.51132 6.09722 5.2348 10.6822 5.97776C13.4043 6.41889 15.3627 8.17025 16.1813 10.8063C16.2576 11.052 16.2913 11.4719 16.4275 11.6706C16.4509 12.5624 16.4602 13.4544 16.4556 14.3464C15.8997 14.3704 15.3133 14.3646 14.7556 14.3593C10.9577 14.3234 7.1464 14.4029 3.34969 14.3554C3.41181 14.9289 3.67225 15.7631 3.87772 16.3164C5.03899 19.4437 10.388 19.9393 12.2603 17.2946C12.3785 17.1278 12.5337 16.712 12.6167 16.5059C13.6288 16.4423 14.9924 16.5101 16.0502 16.4889ZM3.47956 12.1404L8.31846 12.1383C9.8703 12.138 11.5241 12.1085 13.0675 12.1416C12.6593 9.25569 11.1449 7.95838 8.20085 7.99979C5.85666 8.09663 4.09876 9.16941 3.59691 11.5761C3.55976 11.7543 3.52592 11.9661 3.47956 12.1404Z" fill="black"/>
<path d="M56.1286 17.4963C56.368 16.7255 56.7528 16.1496 57.0819 15.4414C57.4417 14.6669 57.8412 13.9357 58.2161 13.1757L60.3098 8.98304C60.4825 8.63183 61.4391 6.61879 61.6663 6.35575C61.9488 6.2596 64.6051 6.30716 65.1177 6.29656C64.6655 7.4529 63.9917 8.52505 63.4769 9.65536C63.3167 10.007 63.1017 10.3662 62.9223 10.7118L56.5675 23.18C56.2453 23.8108 55.9688 24.4605 55.6109 25.0759C55.4198 25.4053 55.2909 25.7614 55.0759 26.0821C54.7875 26.1795 51.8679 26.1331 51.31 26.147C52.0505 24.8299 52.7527 23.4371 53.4597 22.0965C53.7179 21.6066 53.9959 21.1403 54.2525 20.6425C53.9911 20.1283 53.7167 19.6697 53.4498 19.1686L51.3001 15.1271L49.1773 11.1238C49.0252 10.838 48.5009 9.66546 48.3005 9.57815C48.112 9.04234 47.8649 8.42067 47.5067 7.97726C47.507 7.86447 46.7897 6.59041 46.6896 6.3037C47.1495 6.30278 50.3401 6.25589 50.5143 6.36208C50.7835 6.70158 51.1108 7.46107 51.3222 7.89023L54.7272 14.6821C55.1495 15.5143 55.5457 16.3568 55.9751 17.185C56.0296 17.29 56.0819 17.3867 56.1286 17.4963Z" fill="black"/>
<path d="M67.4659 6.50302C67.6931 6.49055 67.7159 6.54988 67.8558 6.60823C68.0057 6.57241 68.2333 6.53442 68.3791 6.5215C68.6932 6.49367 68.6818 7.31081 68.5286 7.42595C68.4166 7.24282 68.5864 6.902 68.2583 6.6831C68.0072 6.65023 67.9733 6.76769 67.9247 6.98659C67.9236 7.15076 67.9228 7.19427 67.8816 7.35163L67.8466 7.36426C67.7947 7.15713 67.7483 6.77453 67.5579 6.67894C66.9419 6.77269 67.3668 7.28346 67.1047 7.42989C67.0078 7.31501 67.0351 6.74089 67.073 6.58588C67.2505 6.59034 67.2987 6.59402 67.4537 6.50976L67.4659 6.50302Z" fill="black"/>
<path d="M66.5004 6.30391L66.5825 6.34963C66.6359 6.53063 66.7136 6.47342 66.8097 6.6606C66.5545 6.76488 66.5976 6.97886 66.6433 7.22544C66.6613 7.32291 66.7784 7.26306 66.8362 7.37139L66.771 7.43393L66.5906 7.39834C66.3045 7.14627 66.5785 7.00709 66.4463 6.75075C66.3767 6.69443 66.2876 6.69233 66.1951 6.67786L66.1664 6.62364L66.2213 6.55705C66.4566 6.51355 66.4286 6.51693 66.5004 6.30391Z" fill="black"/>
</svg>
