<svg width="142" height="15" viewBox="0 0 142 15" fill="none" xmlns="http://www.w3.org/2000/svg">
<path d="M15.968 0.0870232C20.0075 -0.276432 23.5797 2.69638 23.9561 6.73454C24.3326 10.7729 21.3714 14.3547 17.3343 14.7441C13.2789 15.1355 9.67704 12.1576 9.29886 8.10104C8.92069 4.04429 11.91 0.45205 15.968 0.0870232ZM17.8902 13.278C21.0995 12.6004 23.1706 9.47196 22.5412 6.25289C21.9118 3.03368 18.8149 0.915836 15.5867 1.49696C13.4548 1.88071 11.6951 3.38313 10.982 5.42851C10.2688 7.47375 10.7128 9.74452 12.1439 11.3706C13.5749 12.9966 15.7709 13.7255 17.8902 13.278Z" fill="black" fill-opacity="0.960784"/>
<path d="M0.110966 0.233297C2.34984 0.230152 6.563 -0.0915698 7.32311 2.7812C7.78135 4.513 7.13692 5.45287 6.2789 6.80207C6.49331 7.47567 7.73606 7.897 8.1224 9.12172C8.52131 10.3863 8.19402 11.602 7.65439 12.7754C6.08319 15.1681 2.52377 14.4059 0 14.6236C0.305871 10.0734 -0.103591 4.84573 0.110966 0.233297ZM1.31851 13.1513C2.885 13.1612 4.82709 13.3626 6.14803 12.5626C7.10418 11.3112 7.55535 9.50776 5.95564 8.48185C4.32437 7.4355 3.01722 7.90516 1.4154 7.54113C1.32094 9.39456 1.45038 11.3678 1.31851 13.1513ZM1.37005 6.65043C2.16592 6.58168 4.54693 6.44062 5.09277 6.03957C5.96909 5.16559 6.78084 3.6436 5.66867 2.59539C4.54627 1.53761 3.05065 1.67197 1.61885 1.6015C1.12338 2.22179 1.39258 5.55649 1.37005 6.65043Z" fill="black" fill-opacity="0.972549"/>
<path d="M68.1236 0.253984C68.596 0.241978 69.1668 0.183669 69.5785 0.445505C69.9533 0.683902 74.4976 12.4584 74.8165 13.7693C74.9029 14.1249 74.946 14.2238 74.7576 14.5388C73.2043 14.9121 72.3752 11.0444 72.0512 9.9535C71.1782 9.9192 70.0877 9.95007 69.1971 9.94964C67.9787 9.95064 66.8746 9.95436 65.6548 9.8636C65.1703 11.2007 64.3915 14.4549 62.9161 14.6563L62.73 14.4789C62.677 13.8919 67.449 1.17441 68.1236 0.253984ZM65.9842 8.78868C66.9647 8.81726 67.9454 8.83384 68.9263 8.83827C69.7871 8.84556 70.736 8.82912 71.5862 8.91631C71.1553 7.79579 69.3598 2.06783 68.656 1.63591C68.6423 1.62748 68.6289 1.61876 68.6153 1.61019C68.0948 3.24767 66.7816 7.335 65.9842 8.78868Z" fill="black" fill-opacity="0.964706"/>
<path d="M135.148 0.256598C136.843 0.215007 136.754 0.457548 137.308 1.93895C138.531 5.20704 139.825 8.45227 141.053 11.7185C141.289 12.3461 141.901 13.7885 141.772 14.4093C141.413 14.6321 141.582 14.5843 141.062 14.5025C140.058 13.8298 139.437 11.2339 139.032 9.96726L136.002 9.94411C134.838 9.95068 133.797 9.94368 132.635 9.88494C132.129 11.3083 131.426 14.4405 129.824 14.6584L129.675 14.4542C130.057 12.7586 134.321 1.36812 135.148 0.256598ZM132.988 8.8506L136.109 8.83673C136.907 8.8636 137.658 8.89476 138.458 8.86746C138.268 8.10939 136.088 1.94867 135.762 1.6481C135.354 2.29455 133.594 7.50812 132.988 8.8506Z" fill="black" fill-opacity="0.964706"/>
<path d="M54.7339 0.0111726C56.8562 -0.0970206 59.3145 0.575435 60.7486 2.25293C61.0619 2.61924 61.5798 3.34215 61.5285 3.84239L61.2691 3.95315C59.7375 3.61342 59.1177 2.49518 57.869 1.85646C54.8939 0.334892 51.4271 1.8646 50.0446 4.71808C49.3171 6.20977 49.2171 7.93072 49.7671 9.49659C50.3317 11.0224 51.4736 12.2653 52.9461 12.9571C55.8469 14.2877 59.4761 12.9966 60.6859 10.013C60.8412 9.62965 60.9903 9.3248 60.8285 8.92004C60.4719 8.78097 58.4202 8.86058 57.8944 8.86873C57.0059 8.85986 54.4388 9.02779 53.7979 8.68435C53.6539 8.20898 53.6377 8.3925 53.8201 7.98459C54.5061 7.55125 62.2339 7.58498 62.5463 7.89155C62.7041 8.9782 61.9314 10.7956 61.346 11.6657C60.2935 13.242 58.6542 14.3315 56.7935 14.6916C54.9042 15.053 52.7227 14.6333 51.1387 13.5392C49.575 12.4454 48.51 10.775 48.1783 8.89573C47.3332 4.27901 50.2124 0.817262 54.7339 0.0111726Z" fill="black" fill-opacity="0.960784"/>
<path d="M23.8695 0.272961C25.9418 0.458333 36.8934 -0.0802046 37.776 0.524077C37.9585 0.920118 37.9366 0.991724 37.866 1.42736C37.4388 1.80982 35.4629 1.63388 34.7793 1.61616C34.8948 3.38584 35.0216 13.7371 34.3535 14.6316C33.9452 14.6809 34.1084 14.7194 33.7444 14.4621C33.444 13.9186 33.5695 6.61977 33.5729 5.50482C33.5689 4.22451 33.5893 2.9442 33.6343 1.66475C31.726 1.66918 29.8066 1.69148 27.9004 1.61473C28.0056 2.91162 28.0705 13.8213 27.6255 14.4909C27.1019 14.6715 27.2745 14.6904 26.8439 14.5675C26.3697 13.6934 26.6142 3.47245 26.6441 1.6546C25.5626 1.63116 24.5121 1.96775 23.7552 1.32259C23.6354 0.885246 23.734 0.69573 23.8695 0.272961Z" fill="black" fill-opacity="0.976471"/>
<path d="M38.9629 0.266074C40.7238 0.253354 44.4255 0.0779869 46.1692 0.51319C46.3763 0.564928 46.3759 0.921381 46.4136 1.15292L46.2018 1.41547C45.1113 1.90741 41.5266 1.66487 40.216 1.58969C40.2472 3.33965 40.2533 5.09004 40.2343 6.84028C41.392 6.74195 46.018 6.41394 46.5438 7.38282C45.8728 8.68628 41.7121 7.59349 40.3568 8.05814L40.257 8.36342C40.2585 9.97703 40.2668 11.5333 40.1844 13.1469C41.2498 13.1439 45.9528 12.9005 46.4586 13.6034L46.3972 13.9344C45.501 14.9762 40.7357 14.4302 38.8275 14.6301C38.9727 11.3001 38.8071 7.83646 38.865 4.49833C38.8831 3.45256 38.7974 1.20494 38.9629 0.266074Z" fill="black" fill-opacity="0.972549"/>
<path d="M92.3926 0.197081C94.1947 0.418184 98.238 -0.098628 99.5441 0.653008C99.8161 1.07263 99.7748 0.878112 99.691 1.38235C99.0323 1.84842 94.745 1.65205 93.6368 1.62846C93.7045 3.09658 93.7615 5.34534 93.5706 6.76971C94.697 6.772 99.7166 6.40583 99.9045 7.44974C99.2488 8.66559 95.3497 7.59182 93.817 8.06361L93.7197 8.36388C93.7056 9.86244 93.7384 11.642 93.5443 13.1064C94.5415 13.1162 98.8828 13.1028 99.623 13.3106C99.8362 13.62 99.7851 13.4801 99.7237 13.9388C98.8913 15.0023 94.2327 14.4011 92.3452 14.6614C92.3264 10.5383 92.1176 4.12005 92.3926 0.197081Z" fill="black" fill-opacity="0.980392"/>
<path d="M115.252 0.17642C116.949 0.416817 121.735 -0.236631 122.635 0.915477C122.616 1.427 122.693 1.26535 122.401 1.5775C120.682 1.74014 118.249 1.66568 116.497 1.62438C116.584 2.99287 116.608 5.4403 116.435 6.76935C117.622 6.76677 122.376 6.42432 122.774 7.42536C122.387 8.4647 118.026 7.86 116.742 8.02107L116.578 8.24818C116.566 9.76874 116.606 11.6316 116.404 13.1124C117.503 13.1203 122.003 13.0211 122.605 13.4642C122.632 13.9242 122.678 13.7399 122.389 14.1576C121.088 14.9447 117.197 14.334 115.268 14.6576L115.206 14.6685C115.202 10.244 115.015 4.44298 115.252 0.17642Z" fill="black" fill-opacity="0.980392"/>
<path d="M80.1215 0.137902C80.799 0.329991 80.7691 0.315841 81.1537 0.873958C82.0897 2.23188 84.8014 11.7742 85.6931 12.2232C86.5055 10.8532 89.4187 1.07548 90.4062 0.276106C90.7766 0.191495 90.7968 0.175063 91.1394 0.304409L91.2616 0.604262C91.2286 1.23741 90.8701 1.90987 90.6066 2.50157C89.4688 5.68648 88.2326 8.80365 87.0958 11.9877C86.7702 12.8993 86.338 14.4987 85.2665 14.6094C84.3495 13.904 80.7173 2.75398 79.9385 0.936129C79.8077 0.630701 79.96 0.384159 80.1215 0.137902Z" fill="black" fill-opacity="0.952941"/>
<path d="M111.634 12.7209C111.428 11.448 111.232 1.09979 111.702 0.442625C111.753 0.372307 111.811 0.318567 111.878 0.264542C112.37 0.240531 112.211 0.178357 112.52 0.442337C112.711 1.47453 112.692 12.7971 112.569 14.219C112.011 14.9378 110.907 14.4643 110.597 13.7688C109.578 11.4776 104.342 4.56769 103.84 2.65351C104.121 2.12627 103.969 2.21702 104.436 2.06038L104.478 1.53399C105.677 3.59023 107.114 5.74324 108.348 7.79662C109.031 8.93244 110.786 11.8754 111.634 12.7209Z" fill="black" fill-opacity="0.952941"/>
<path d="M123.909 0.247857C125.794 0.448379 128.601 -0.00854926 130.526 0.456524C130.769 0.515123 130.794 0.695923 130.888 0.911309C130.736 2.06956 128.902 1.65894 127.956 1.61049C128.147 4.28588 128 9.51431 127.959 12.3293C127.939 13.0271 128.02 14.4286 127.391 14.7809C126.273 14.4955 126.629 11.4802 126.629 10.4926C126.622 7.54782 126.642 4.60303 126.687 1.65866C125.858 1.63064 124.407 1.94807 123.827 1.37981C123.665 0.979195 123.797 0.663479 123.909 0.247857Z" fill="black" fill-opacity="0.980392"/>
<path d="M102.045 1.91185C102.166 1.50495 102.199 1.21724 102.525 0.96641C102.984 1.32872 102.948 2.73095 103.094 3.33694C103.382 4.41287 103.597 13.8996 102.974 14.5329C102.534 14.7374 102.709 14.7281 102.3 14.6256C101.921 14.1455 102.046 3.42312 102.045 1.91185Z" fill="black" fill-opacity="0.984314"/>
<path d="M102.045 1.91185C102.021 1.43191 101.957 1.01242 102.153 0.576355C102.566 0.196178 102.366 0.29551 102.905 0.187031C103.736 0.371546 104.015 0.844953 104.478 1.53399L104.436 2.06038C103.969 2.21702 104.121 2.12627 103.84 2.65351C103.598 2.29763 103.604 2.16095 103.268 2.08292C103.099 2.53198 103.113 2.85929 103.094 3.33694C102.948 2.73095 102.984 1.32872 102.525 0.96641C102.199 1.21724 102.166 1.50495 102.045 1.91185Z" fill="black" fill-opacity="0.94902"/>
</svg>
