<svg width="74" height="29" viewBox="0 0 74 29" fill="none" xmlns="http://www.w3.org/2000/svg">
<path d="M19.1046 0.0786021C21.1849 -0.021983 23.7556 0.0433975 25.8647 0.0438765L37.9008 0.0436378C48.1578 0.043079 58.6222 -0.0667667 68.8513 0.0642334C68.7754 1.42525 68.8295 3.4094 68.8208 4.83604C62.3065 4.7495 55.6291 4.82494 49.1047 4.82486L22.8725 4.84051C22.4427 5.94 22.1714 6.98393 21.8184 8.10601L19.9136 14.0605C19.5289 15.2856 19.2073 16.503 18.7529 17.7074C18.0814 19.6331 17.4781 21.9675 16.8062 23.9399C16.4327 25.0362 15.86 26.7321 15.602 27.8217C13.5155 27.9053 11.0012 27.8474 8.89106 27.8268C7.99968 24.8204 6.92941 21.686 5.94767 18.7001L2.71498 8.67144C1.79929 5.84931 0.856139 3.06885 0 0.223731C1.45477 0.351459 3.87945 0.0518599 5.29458 0.430012C5.42007 0.471204 5.55107 0.799143 5.58835 0.914497C7.78933 7.73688 10.2945 14.595 12.3627 21.4485C12.7609 20.6447 13.1485 19.0116 13.4429 18.0493C14.4818 14.6547 15.5962 11.2224 16.6089 7.82605L17.9077 3.58551C18.1157 2.88421 18.7054 0.497467 19.1046 0.0786021Z" fill="black"/>
<path d="M38.5578 9.01985C39.8405 9.00636 41.2957 8.967 42.561 9.10048C44.2403 12.2893 46.363 15.9103 47.8711 19.1318C47.9506 17.7341 47.8352 15.8403 47.8067 14.3836C47.7737 12.6962 47.8737 10.6998 47.7888 9.04811C49.324 8.97626 51.0042 9.0244 52.5593 9.01897C52.4969 10.9532 52.5501 13.1961 52.5507 15.1543L52.5363 27.8319L51.4342 27.8189C50.3902 27.8257 48.8045 27.8723 47.807 27.7771C46.8881 25.9794 45.9535 24.1898 45.0033 22.4084C44.1627 20.817 43.339 19.1991 42.4084 17.6596C42.8741 20.6214 42.6512 24.8031 42.7162 27.8214C41.1271 27.8162 39.4694 27.7877 37.8861 27.8331C37.9823 26.8869 37.9094 24.1572 37.9079 23.0724L37.897 13.3915C37.8965 12.7205 37.8545 9.67749 37.9558 9.15532C38.124 9.0066 38.3197 9.0315 38.5578 9.01985Z" fill="black"/>
<path d="M26.1457 9.02024C27.6919 9.00004 29.2382 9.0101 30.784 9.05025C31.9578 13.2537 33.2713 17.521 34.4817 21.726L35.6202 25.757C35.8051 26.4145 35.9429 27.1953 36.2556 27.7853C34.6492 27.8518 32.8398 27.8159 31.2145 27.8325C31.1063 27.1384 30.9626 26.1233 30.696 25.4714C30.6748 25.4197 30.584 25.4119 30.5105 25.3906C28.9171 25.2888 27.285 25.4671 25.7605 25.3794C25.6574 26.1799 25.4142 27.0322 25.2071 27.8177C23.6336 27.8228 21.9636 27.7745 20.4005 27.8366C21.9826 21.6144 24.0019 15.3617 25.7579 9.17742C25.7871 9.07444 26.0431 9.04443 26.1457 9.02024ZM26.7192 21.3647C27.2271 21.3611 27.749 21.3511 28.2556 21.3564C28.7912 21.3604 29.3789 21.3535 29.9094 21.3782C29.6521 20.7061 28.4631 15.1202 28.3036 15.0184C27.4146 17.5646 27.3674 19.1172 26.7192 21.3647Z" fill="black"/>
<path d="M60.6786 8.53594C60.9654 8.51854 61.2526 8.5092 61.5399 8.50776C64.7668 8.50824 67.2568 10.232 67.8407 13.4708C67.8972 13.7844 67.9474 14.0197 67.946 14.3442C67.3645 14.6177 64.1186 14.465 63.3259 14.4456C62.9516 12.8732 61.361 12.2712 60.0223 13.3348C59.8769 13.4503 59.6973 13.9141 59.7605 14.0796C60.3041 15.5034 62.9946 15.7854 64.2174 16.4247C65.0854 16.7715 65.7275 17.214 66.4872 17.7562C68.9713 19.5293 68.8766 23.6545 67.1313 25.9079C65.9031 27.4938 64.0542 27.9302 62.0777 28.1403C59.1399 28.2221 56.2509 27.2 55.1865 24.2263C54.9392 23.5355 54.7862 22.7698 54.6071 22.0544C56.162 22.0452 57.7931 22.0096 59.3378 22.0956C60.0337 24.0778 61.3597 24.1205 63.1432 23.6987C63.4038 23.4449 63.8575 22.9448 63.7268 22.5529C63.1938 20.9543 60.6256 20.8068 59.2842 20.1068C58.5013 19.6983 57.8697 19.5091 57.1925 18.9191C54.5474 17.0645 54.45 13.0025 56.2948 10.5595C57.3016 9.22639 59.0224 8.72346 60.6786 8.53594Z" fill="black"/>
<path d="M71.0334 6.67453C71.5677 6.52334 72.1412 6.60932 72.6078 6.91051C72.8565 7.07113 73.0649 7.28675 73.2172 7.54068C73.5279 8.05934 73.5779 8.6935 73.3524 9.25438C73.127 9.81534 72.6519 10.2384 72.0687 10.3977C71.0426 10.678 69.983 10.0762 69.698 9.05146C69.413 8.02669 70.0099 6.96423 71.0334 6.67453ZM71.7601 10.0086C72.3015 9.94443 72.7665 9.59414 72.9776 9.09145C73.1886 8.58884 73.1132 8.0116 72.78 7.58012C72.4467 7.14872 71.9073 6.92975 71.3676 7.00694C70.547 7.12429 69.9736 7.8798 70.081 8.70172C70.1885 9.52365 70.937 10.1062 71.7601 10.0086Z" fill="black" fill-opacity="0.933333"/>
<path d="M70.8913 7.34805L71.2004 7.41103C71.4233 7.66809 71.2263 8.89474 71.2665 9.46097L71.2163 9.56076L71.08 9.57537C70.8536 9.32934 70.9223 7.84539 70.8913 7.34805Z" fill="black" fill-opacity="0.988235"/>
<path d="M71.4635 7.48031C71.8413 7.45843 72.0081 7.39744 72.2088 7.74255C72.2371 8.07935 72.0739 8.40082 71.9473 8.71934C72.1042 8.99451 72.2702 9.26002 72.3656 9.56194C71.3554 9.34225 71.853 8.57652 71.8573 7.91043C71.8585 7.72019 71.6143 7.59742 71.4635 7.48031Z" fill="black" fill-opacity="0.92549"/>
</svg>
