<svg width="71" height="16" viewBox="0 0 71 16" fill="none" xmlns="http://www.w3.org/2000/svg">
<path d="M27.8671 0.0220896C32.0711 -0.29537 35.7407 2.84611 36.0751 7.04902C36.4095 11.252 33.2831 14.9343 29.0818 15.2858C24.8563 15.6393 21.1484 12.4908 20.812 8.26374C20.4757 4.03668 23.639 0.341376 27.8671 0.0220896ZM28.9574 13.4574C30.0663 13.321 30.8678 13.1087 31.7848 12.436C34.735 10.2716 34.7691 5.16147 31.8889 2.93162C30.6841 1.99889 29.3627 1.77185 27.8792 1.84669C26.3599 2.09727 24.8363 2.63571 23.9667 3.97974C21.3124 8.0822 23.6524 13.9265 28.9574 13.4574Z" fill="black"/>
<path d="M6.94795 0.0587988C7.19324 0.0475567 7.43877 0.0433764 7.6843 0.0463797C9.94407 0.0814455 11.7741 0.965113 13.3336 2.5721C13.2365 2.66155 12.2125 3.65325 12.1232 3.6108C11.5584 3.34229 11.0053 2.66601 10.4061 2.40391C8.16026 1.43696 5.51414 1.60722 3.71601 3.38981C2.23686 4.85617 1.91126 6.79477 2.14047 8.79624C2.64825 13.2303 8.11996 15.0037 11.3068 11.9097C11.3378 10.9963 11.3233 10.0409 11.3214 9.12373C10.2654 9.11492 9.2093 9.11309 8.15328 9.11825C8.00519 9.11297 7.83486 9.11683 7.68478 9.11679C7.7041 8.56004 7.68933 7.93973 7.7013 7.37007C9.45597 7.30302 11.5582 7.35899 13.3445 7.36183L13.3491 10.8378C13.3498 11.3463 13.3755 12.1824 13.3232 12.6586C13.3159 12.6671 13.3086 12.6755 13.3011 12.6839C12.1045 14.0297 9.88425 15.1364 8.06128 15.2519C6.02285 15.4125 3.95391 14.7573 2.41563 13.3874C-0.398428 10.8816 -0.777884 6.16618 1.40364 3.13952C2.67593 1.37438 4.76882 0.168055 6.94795 0.0587988Z" fill="black"/>
<path d="M47.7924 0.32632C47.9661 0.315281 48.2367 0.287845 48.4056 0.335776C48.494 0.360858 48.5358 0.421046 48.5732 0.505951C48.7729 0.957059 48.9664 1.41669 49.162 1.8691L50.3889 4.69782C51.8621 8.09365 53.334 11.5986 54.8506 14.9652C54.239 14.9918 53.3348 15.0004 52.7334 14.9611C52.6433 14.6519 52.455 14.2779 52.3385 13.9749C52.0049 13.1061 51.442 12.0368 51.1713 11.175C50.3601 11.1322 49.3516 11.1593 48.5257 11.1602C47.4052 11.1547 46.2847 11.1596 45.1642 11.1748C44.6143 12.4371 44.0765 13.7048 43.5518 14.9778C42.8972 15.0006 42.1281 14.9781 41.4703 14.9694C41.6294 14.512 41.9354 13.8506 42.1318 13.3971L43.3006 10.7178L46.0603 4.36165C46.6025 3.11434 47.32 1.5753 47.7924 0.32632ZM46.04 9.07241L47.9888 9.0716C48.6203 9.07156 49.6373 9.04132 50.2375 9.08852C50.0382 8.58327 48.2875 4.37716 48.1515 4.25159C47.9129 4.65919 47.6925 5.22921 47.5026 5.67622L46.555 7.91365C46.4421 8.18136 46.1792 8.84635 46.04 9.07241Z" fill="black"/>
<path d="M59.6707 0.320552C60.1196 0.30582 60.5863 0.30858 61.036 0.31276C64.249 0.342387 67.477 0.267101 70.6883 0.321689C70.6952 0.928036 70.6928 1.53442 70.6814 2.14069C69.2355 2.11265 67.6807 2.13878 66.2262 2.14495C66.1905 3.04108 66.2185 4.14464 66.2185 5.05546L66.2181 14.9764C65.5732 14.997 64.7786 14.9885 64.1345 14.9679C64.182 10.7265 64.1353 6.39888 64.1382 2.14917C62.6695 2.12084 61.1431 2.14012 59.6699 2.13955C59.6923 1.58767 59.672 0.883635 59.6707 0.320552Z" fill="black"/>
</svg>
