<svg width="55" height="55" viewBox="0 0 55 55" fill="none" xmlns="http://www.w3.org/2000/svg">
<path d="M0 0H54.5067V54.2946H0V0Z" fill="black"/>
<path d="M12.3694 29.7687L12.4233 29.7647C13.8925 29.6699 15.3015 30.2287 16.4054 31.1931C18.724 33.219 18.2309 35.9274 18.2653 38.6859C18.2958 41.1475 18.4954 43.2457 16.6845 45.23C17.2185 46.7205 17.7948 48.815 18.2738 50.3749C17.4272 50.3642 15.8351 50.4267 14.9512 50.3441C14.8912 50.3385 14.8531 50.1769 14.8226 50.093C14.4901 49.0086 14.0903 47.9224 13.7523 46.8264C11.917 47.084 10.2364 46.7089 8.82625 45.4773C6.52069 43.4637 6.87881 41.0366 6.89386 38.2924C6.90701 35.8949 6.53029 33.5975 8.33368 31.6601C9.4621 30.4479 10.7091 29.8566 12.3694 29.7687Z" fill="white"/>
<path d="M12.5565 33.1046C13.9003 33.1784 14.8871 34.0364 14.934 35.4019C14.9889 36.9948 14.9378 38.6022 14.9548 40.1966C14.9631 40.9865 14.9903 41.907 14.4427 42.5371C13.9328 43.1239 13.4459 43.3445 12.6854 43.4055C11.6082 43.3915 10.3774 42.6462 10.3315 41.5012C10.2486 39.44 10.2591 37.2407 10.3264 35.1795C10.3663 33.9557 11.4129 33.2605 12.5565 33.1046Z" fill="black"/>
<path d="M41.5594 29.7683C44.7065 29.6757 47.2247 31.8644 47.4627 35.0449C47.5448 36.1418 47.5175 37.267 47.5117 38.3554C47.4996 40.6354 47.7858 43.0656 46.1419 44.9019C45.0805 46.1218 43.8197 46.7532 42.2211 46.8788C38.7978 47.0351 36.1359 44.5783 36.1501 41.1003C36.1563 39.5821 36.1703 38.0572 36.1558 36.5385C36.1481 35.7353 36.1042 34.9595 36.2837 34.1711C36.497 33.2256 36.9458 32.3493 37.5885 31.6237C38.6342 30.4508 40.007 29.8562 41.5594 29.7683Z" fill="white"/>
<path d="M41.7968 33.104C44.81 33.3215 43.9912 36.1547 44.1144 38.1908C44.1204 38.5921 44.1081 39.0177 44.1154 39.4166C44.1493 41.2788 44.3559 43.1702 41.8341 43.4161C40.6944 43.3175 39.6292 42.7033 39.531 41.4317C39.4358 40.0221 39.4867 38.5848 39.4776 37.1721C39.465 35.1967 39.303 33.4191 41.7968 33.104Z" fill="black"/>
<path d="M22.9023 7.38835C24.0783 7.37753 25.2544 7.38183 26.4303 7.40123C26.9756 8.7165 27.6985 10.2016 28.2977 11.5082C29.1674 13.4319 30.0528 15.3484 30.9537 17.2576C30.8682 16.1346 30.9059 14.6648 30.9059 13.5152L30.9085 7.39423C32.0348 7.37318 33.2437 7.3822 34.3714 7.39508L34.3763 24.5479C33.2637 24.521 32.0241 24.5481 30.9019 24.5497C30.7334 24.1468 30.5423 23.7251 30.3559 23.3301C28.9971 20.4517 27.7482 17.4978 26.3497 14.6406C26.4563 15.3995 26.4104 17.2473 26.4103 18.0702L26.4125 24.546L22.9071 24.5516L22.9023 7.38835Z" fill="white"/>
<path d="M6.91128 7.39521C8.03715 7.3819 9.16318 7.38455 10.289 7.40316L10.2921 15.5111C10.2917 16.7295 10.2268 18.127 10.35 19.3284C10.3887 19.7057 10.6766 20.184 10.9409 20.4634C11.3591 20.914 11.9421 21.1759 12.5567 21.1892C13.2015 21.1947 13.821 20.9394 14.2748 20.4814C14.9966 19.7506 14.9537 18.7678 14.9546 17.817C14.9553 16.9785 14.9541 16.1397 14.9537 15.3012L14.9491 7.39446C16.0149 7.38296 17.2034 7.36514 18.2602 7.40973L18.2691 10.432L18.2708 16.0272C18.2724 17.1688 18.3252 18.3695 18.2184 19.5028C17.9092 22.7843 15.1164 24.8199 11.9264 24.5035C10.4621 24.3549 9.11541 23.6354 8.17793 22.5009C7.55661 21.7243 7.13938 20.8046 6.96436 19.8256C6.85099 19.1997 6.88891 17.9391 6.88869 17.2657L6.88853 9.32691C6.88811 8.80681 6.86234 7.87256 6.91128 7.39521Z" fill="white"/>
<path d="M22.8982 29.7493L26.4104 29.7554C26.3581 34.261 26.3984 38.9059 26.4137 43.4196C28.9804 43.3559 31.7865 43.402 34.3701 43.4114L34.3849 46.9119C30.6742 46.833 26.6282 46.9044 22.905 46.9105L22.8982 29.7493Z" fill="white"/>
<path d="M40.0799 7.38752C41.2489 7.38042 42.418 7.3853 43.5869 7.40221L43.5939 24.5499L40.0859 24.5553C40.0266 18.8772 40.0746 13.071 40.0799 7.38752Z" fill="white"/>
</svg>
