<svg width="56" height="52" viewBox="0 0 56 52" fill="none" xmlns="http://www.w3.org/2000/svg">
<path d="M48.2705 0.00355782C50.0348 -0.102088 49.7988 2.17327 49.0354 3.07085C48.3642 3.86015 46.9426 4.38273 46.0168 4.89341C44.2939 5.78954 43.115 7.38101 42.3383 9.10242C41.4906 10.9818 40.8871 13.1302 39.126 14.3506C38.771 14.6343 38.3461 14.894 38.0775 15.2647C37.959 15.4321 38.1391 15.6949 38.2385 15.8309C38.8683 16.6926 39.2228 17.5193 39.466 18.565C39.6782 19.484 39.8112 20.4195 39.8635 21.3613C39.9359 22.6623 39.7978 23.893 40.2604 25.163C40.7355 26.469 41.4481 26.367 42.1939 27.2668C42.478 27.6091 42.3776 28.5964 42.5654 29.0952C42.7564 29.6486 43.1813 30.1201 43.349 30.6812C43.4835 31.1317 43.2589 31.6589 43.2196 32.1327C43.173 32.6933 43.3019 33.3099 43.0674 33.8175C42.9929 33.9778 42.7497 34.0186 42.5892 34.0621C42.0236 33.9232 41.6153 33.8381 41.1547 33.4291C39.9794 32.3846 40.1373 30.1127 40.0477 28.5874C39.6544 28.2297 39.0205 27.7807 38.58 27.4222C37.455 26.5207 36.4655 25.4623 35.6411 24.2795C35.1748 23.6012 34.7571 22.8908 34.3907 22.1537C33.6755 20.6919 32.9634 18.6673 31.7678 17.5727C30.137 16.0796 27.4509 16.3717 25.398 16.0323C24.2581 15.8438 23.5722 15.7373 22.48 15.2817C21.5036 14.8669 20.6074 14.2845 19.8318 13.5609C18.8337 12.634 18.2251 11.8246 17.0028 11.1661C15.8793 12.1199 15.6124 12.3376 14.1473 12.5228C12.7353 12.5095 11.2173 11.706 9.93518 11.1903C9.62302 11.0648 8.53525 10.6697 8.23701 10.7961C8.10338 10.9703 7.93317 11.5516 7.83883 11.8051C6.63446 12.9346 4.52186 10.5972 6.09366 9.22921C7.52697 7.98169 9.42227 8.49377 11.1579 8.46893C12.0361 6.4428 9.88742 6.70487 8.63829 6.97222C7.92266 6.60411 7.21563 5.84289 6.53479 5.35586C5.5676 4.66404 7.02591 3.87908 7.13946 3.50863C7.50296 2.32269 7.70526 2.34266 8.67829 1.64086C8.90781 1.46766 9.35303 0.509104 9.69728 0.16448C10.0997 0.42211 10.2558 0.755256 10.6652 0.961854C11.3726 0.98758 11.7233 -1.03883 12.5917 1.33521C13.2566 1.68421 14.1629 1.69545 14.8907 1.92369C18.2814 3.00615 21.1991 4.99432 23.9423 7.26524C27.4811 10.1947 33.1761 15.9271 38.0558 12.5283C40.0772 11.1203 40.9373 9.02738 41.8011 6.81231C42.8666 4.07793 45.1686 0.570808 48.2705 0.00355782Z" fill="#010709"/>
<path d="M24.327 35.9169C25.4921 35.8284 27.3842 35.8908 28.6334 35.8923L36.336 35.887C39.1731 35.8864 38.9609 36.4435 38.9552 38.9428L38.9516 41.9327C38.9521 45.0869 38.9857 48.3025 38.9397 51.4524L36.1948 51.457C35.744 51.457 35.0205 51.4332 34.5972 51.4984L34.5941 43.0011C34.5946 41.5671 34.6086 40.1314 34.578 38.6973C34.5599 38.1559 34.4399 37.7546 33.8095 37.8055C33.3645 37.8415 33.1704 38.1847 33.1621 38.5921C33.144 39.4694 33.158 40.3826 33.158 41.2583L33.1559 47.1088C33.1637 48.5566 33.1595 50.0044 33.1435 51.4524L30.3933 51.457C29.9397 51.457 29.2243 51.4332 28.8011 51.4989L28.7969 39.9014C28.7966 39.3129 29.0004 37.7724 28.1301 37.7696C27.1144 37.7664 27.3571 39.3177 27.3606 39.9905L27.362 42.4449C27.3623 45.4309 27.3906 48.4698 27.3471 51.4524C25.9846 51.4663 24.4129 51.4022 23.0834 51.4668C23.1394 50.2998 23.0967 48.7648 23.0966 47.5737L23.0938 40.4524C23.0919 39.5271 23.0071 38.6203 23.0207 37.6997C23.0362 36.6422 23.3015 36.1738 24.327 35.9169Z" fill="#010709"/>
<path d="M41.6851 35.9182C42.1167 35.882 42.643 35.8931 43.0813 35.8922L46.9741 35.8873C48.3295 35.8869 50.383 35.5151 50.4528 37.329C50.5082 38.7787 50.4404 40.1788 50.4409 41.6291L50.4327 51.4621C49.2967 51.415 47.2127 51.4254 46.086 51.4637L46.0954 50.6279L46.0923 47.5333C45.7336 47.5572 45.1209 47.5713 44.7798 47.5277C44.6929 48.717 44.7286 50.2202 44.6867 51.457L42.0618 51.4549C41.595 51.4549 40.8156 51.4337 40.3934 51.4989L40.3871 41.2991C40.3866 40.1918 40.2862 39.0861 40.3064 37.9911C40.3297 36.7443 40.4016 36.1796 41.6851 35.9182ZM44.6282 45.5099L45.5778 45.5223L46.0876 45.5203L46.0974 40.9344C46.099 40.1222 46.1145 39.3084 46.0783 38.4972C46.054 37.9607 45.7978 37.7767 45.2725 37.7747C45.0205 37.8936 44.8311 37.9845 44.7317 38.2587C44.4983 38.9025 44.6841 44.3643 44.6282 45.5099Z" fill="#010709"/>
<path d="M11.5385 35.9058C12.9578 35.8715 14.4418 35.8969 15.8696 35.8879L15.8741 47.1037C15.87 47.573 15.7609 48.9219 16.0587 49.2909C16.364 49.6694 17.2081 49.5912 17.2651 48.9564C17.3133 48.4192 17.2988 47.875 17.2991 47.3224L17.3033 35.8995C18.5057 35.894 19.9152 35.8588 21.1058 35.9041C21.32 35.9618 21.3682 35.9366 21.4976 36.074C21.5436 36.5997 21.5037 37.6469 21.5003 38.2161C21.4916 39.5143 21.4897 40.8125 21.4947 42.1107L21.497 48.7578C21.4974 49.2208 21.4949 49.677 21.5093 50.1401C21.5149 50.3167 21.5637 50.5267 21.5594 50.6657C21.1827 51.2815 20.57 51.4756 19.8714 51.4663C18.6046 51.4497 17.3419 51.4414 16.075 51.4492C15.0352 51.4549 13.9782 51.5056 12.9429 51.4383C12.6712 51.414 12.0135 51.2205 11.8421 51.0069C11.3692 50.4182 11.502 49.0439 11.5002 48.3385C11.4975 47.3181 11.5258 46.3458 11.5259 45.3496C11.5144 42.2017 11.5186 39.0537 11.5385 35.9058Z" fill="#010709"/>
<path d="M0.0433241 35.876C0.663309 35.924 1.6514 35.8935 2.2924 35.8934L6.47409 35.8914C7.39004 35.89 9.84602 35.6051 10.0247 36.8607C10.4046 39.3713 9.9695 42.0242 10.1728 44.5357C10.4515 47.9779 8.91848 47.5445 6.18692 47.5254C5.66412 47.5371 4.90596 47.5759 4.40459 47.5194C4.36593 48.2295 4.53056 50.8422 4.22481 51.2805C4.14226 51.3985 4.01604 51.4497 3.87854 51.4715C3.5805 51.5186 3.21601 51.4653 2.9113 51.458C2.01361 51.4373 0.905403 51.3628 0.027436 51.4989L0.0200874 41.536C0.0202426 39.7599 -0.0380812 37.6152 0.0433241 35.876ZM4.39698 45.5978C4.8096 45.6097 5.20302 45.6703 5.56626 45.4934C5.65911 45.3425 5.74139 45.1983 5.76804 45.021C5.88935 44.2144 5.89106 38.9788 5.73264 38.3113C5.69921 38.1705 5.66568 38.0223 5.53635 37.938C5.25901 37.7572 4.76851 37.827 4.44465 37.7883C4.29058 38.335 4.36862 44.6866 4.39698 45.5978Z" fill="#010709"/>
<path d="M53.4498 48.7587C53.9233 48.65 54.4191 48.8039 54.7472 49.1619C55.0758 49.5199 55.1866 50.0267 55.0375 50.4891C54.888 50.9514 54.5024 51.2981 54.0268 51.397C53.3018 51.5471 52.5912 51.0861 52.4329 50.3629C52.275 49.6399 52.7284 48.9243 53.4498 48.7587ZM52.6507 49.7158C52.5721 49.9579 52.5747 50.2193 52.6585 50.4597C52.8629 51.0436 53.4881 51.3659 54.0817 51.1936C54.3989 51.1017 54.6618 50.8796 54.8057 50.5826C55.007 50.1657 54.9423 49.669 54.6411 49.3177C54.3394 48.9663 53.8581 48.8271 53.4156 48.9631C53.0534 49.0745 52.7677 49.3553 52.6507 49.7158Z" fill="#010709" fill-opacity="0.913725"/>
<path d="M53.1875 49.3575C53.5694 49.3555 54.0854 49.2914 54.2862 49.6739C54.2908 49.835 54.1858 49.9614 54.0967 50.0985C54.059 50.2743 54.1935 50.472 54.2644 50.6732L54.2028 50.7328C53.957 50.7057 53.6527 50.2861 53.5901 50.0668L53.6698 50.0431C53.8706 49.9572 53.9373 49.9536 53.9627 49.7474L53.8623 49.6422C53.0912 49.3501 53.691 50.3593 53.3339 50.791C53.0172 50.6691 53.1062 49.6187 53.1875 49.3575Z" fill="#010709" fill-opacity="0.972549"/>
<path d="M21.1058 35.9041C21.2872 35.8893 21.4597 35.8481 21.5992 35.9516C21.7172 36.1114 21.666 38.3659 21.6669 38.7222L21.6716 48.678C21.6716 49.167 21.7211 50.245 21.5594 50.6657C21.5637 50.5267 21.5149 50.3167 21.5093 50.1401C21.4949 49.677 21.4974 49.2208 21.497 48.7578L21.4947 42.1107C21.4897 40.8125 21.4916 39.5143 21.5003 38.2161C21.5037 37.6469 21.5436 36.5997 21.4976 36.074C21.3682 35.9366 21.32 35.9618 21.1058 35.9041Z" fill="#010709" fill-opacity="0.964706"/>
</svg>
