<svg width="400" height="400" viewBox="0 0 400 400" fill="none" xmlns="http://www.w3.org/2000/svg">
<g clip-path="url(#clip0_2492_275)">
<path d="M0 0H400V400H221.935H214.954H201.889H193.161H161.608H150.861H148.405H141.829H136.795H135.622H130.23H83.5508H0V0Z" fill="black"/>
<path d="M0 0H400V400H221.935H214.954C216.804 391.547 218.612 384.885 223.874 377.775C223.613 379.087 223.205 380.598 222.883 381.915L223.632 382.56C225.56 379.287 227.697 376.142 230.029 373.145C237.781 363.28 251.912 353.612 264.457 352.11C269.787 351.192 275.052 351.317 280.432 351.592C281.327 351.64 282.22 351.727 283.115 351.672C284.36 350.97 284.543 351.25 286.195 351.177C295.095 351.325 306.343 352.32 314.108 357.005C324.378 363.2 333.53 374.57 337.378 385.978C338.565 389.505 338.905 393.192 340.217 396.622C340.475 397.247 342.667 396.755 343.37 396.158C344.395 394.278 343.09 392.287 343.195 389.897C343.635 379.905 353.345 378.37 360.665 373.983C365.508 371.075 370.013 367.645 374.103 363.75C385.473 352.59 391.993 337.405 392.253 321.478C392.468 305.883 388.02 294.155 377.16 282.985C377.73 284.022 378.287 285.065 378.837 286.115C384.782 297.557 385.08 314.467 380.957 326.467C375.11 343.482 361.865 363.28 345.57 371.712C385.75 332.177 370.82 285.127 357.58 237.774C354.64 227.13 351.945 216.422 349.492 205.656C346.702 193.755 343.523 181.176 341.29 169.341C336.648 144.695 332.858 121.063 322.725 97.852C318.993 89.3012 316.27 82.1188 311.715 73.6685C290.055 33.485 246.573 11.7191 201.973 10.0395C198.833 10.0138 195.639 10.0371 192.51 10.3262C161.377 13.2024 129.287 22.4031 101.979 37.471C92.9658 42.4598 84.3198 48.084 76.106 54.3008C60.8063 65.9785 50.6195 76.5523 41.919 93.8915C37.4715 102.755 35.0655 108.025 32.3013 117.785C27.3598 135.233 25.4802 156.039 34.6912 172.447C39.37 180.781 47.3762 187.782 56.196 191.469C59.6137 192.898 63.5045 193.995 67.059 195.009C66.1917 194.474 65.0817 193.754 64.2455 193.209C58.1525 189.233 52.6682 176.793 51.3737 169.671C55.8905 178.84 61.8027 187.009 71.073 191.951C68.7537 214.435 67.161 237.019 64.235 259.478C62.4363 273.355 61.191 285.63 56.7798 299.04C51.0963 316.318 32.093 315.992 25.0903 300.177C22.4237 294.157 22.6423 284.947 24.5367 278.707C25.27 276.29 27.0322 273.175 28.0952 270.645C19.1932 281.105 14.4456 287.425 15.1826 302.05C15.3926 306.215 15.2215 308.665 16.6679 312.848C25.8752 339.465 54.693 337.545 70.332 318.203C73.4845 314.305 75.1583 311.448 77.383 306.913L78.3635 306.837C75.5555 323.74 62.58 343.362 42.8478 339.895C28.4763 337.37 16.242 326.585 13.9466 311.957C13.5216 309.465 13.0299 306.927 12.5972 304.425C11.549 333.395 22.6903 349.54 51.1635 356.408C51.7845 371.535 62.4092 379.625 77.2305 378.985C90.6452 378.407 98.2528 369.095 103.441 357.707C99.9843 374.59 96.3628 387.51 83.5508 400H0V0Z" fill="#FEFEFE"/>
<path d="M264.457 352.11C269.787 351.193 275.052 351.318 280.432 351.593C281.327 351.64 282.22 351.728 283.115 351.673C301.007 353.495 317.422 362.403 328.702 376.408C332.76 381.355 336.075 386.948 336.895 393.348C337.095 394.918 337.512 395.95 336.732 397.465C336.197 397.85 335.927 398.07 335.217 397.988C334.587 397.913 334.047 397.463 333.722 396.943C332.692 395.303 332.735 393.108 331.7 391.433C325.97 382.145 312.96 366.658 303.61 361.108C301.3 359.735 298.68 358.855 296.1 358.14C285.782 355.283 268.355 355.54 258.912 360.883C250.19 365.815 225.111 390.385 221.935 400H214.953C216.804 391.548 218.612 384.885 223.874 377.775C223.613 379.088 223.205 380.598 222.883 381.915L223.632 382.56C225.56 379.288 227.697 376.143 230.029 373.145C237.781 363.28 251.912 353.613 264.457 352.11Z" fill="black"/>
<path d="M222.883 381.915L223.632 382.56C223.26 383.558 222.47 385.175 222.012 386.195C222.212 384.823 222.583 383.288 222.883 381.915Z" fill="#E1E4E6"/>
<path d="M178.505 386.868C182.751 383.738 187.788 381.783 191.871 378.93C199.924 373.303 207.787 368.975 216.435 364.39C223.285 360.758 226.979 357.6 234.862 355.478C227.572 361.368 220.146 368.95 214.098 376.15C211.941 378.718 209.798 382.863 207.74 385.148C203.181 390.21 197.573 394.753 193.162 400H161.609C165.467 395.533 177.069 381.59 181.551 379.853L181.884 380.038C182.23 381.883 180.15 384.465 179.081 386.028L178.505 386.868Z" fill="#FEFEFE"/>
<path d="M264.221 351.402L264.459 352.11C251.914 353.612 237.783 363.28 230.031 373.145C227.698 376.142 225.561 379.287 223.633 382.56L222.884 381.915C223.206 380.597 223.614 379.087 223.876 377.775C218.613 384.885 216.805 391.547 214.955 400H201.891C206.141 390.752 210.312 382.667 216.577 374.597C221.301 368.512 223.984 366.367 230.405 362.355C241.381 355.492 251.551 352.97 264.221 351.402Z" fill="#FEFEFE"/>
<path d="M148.406 400C152.589 393.738 158.625 385.47 164.947 381.29C162.432 388.393 156.222 394.635 150.862 400H148.406Z" fill="#FEFEFE"/>
<path d="M143.364 396.175C142.806 397.44 142.22 398.675 141.831 400H136.797C137.87 398.63 138.759 397.452 140.011 396.222L143.364 396.175Z" fill="#FEFEFE"/>
<path d="M130.23 400C131.974 398.99 136.509 396.153 138.321 395.875L138.69 396.095C138.431 396.908 136.317 399.075 135.622 400H130.23Z" fill="#FEFEFE"/>
<path d="M264.219 351.403C265.861 350.79 284.294 350.478 286.194 351.178C284.541 351.25 284.359 350.97 283.114 351.673C282.219 351.728 281.326 351.64 280.431 351.593C275.051 351.318 269.786 351.193 264.456 352.11L264.219 351.403Z" fill="#707075"/>
<path d="M77.3828 306.912C77.6803 306.162 78.0501 304.967 78.6026 304.457C78.7773 305.285 78.5396 305.992 78.3633 306.837L77.3828 306.912Z" fill="#C5C7C8"/>
<path d="M88.2968 138.704C93.2238 148.004 99.1195 156.356 108.351 161.846C114.067 160.232 118.949 159.101 124.693 157.722C120.35 161.736 119.193 163.376 116.88 168.623C118.617 167.793 120.591 167.175 122.203 166.124C126.947 163.031 131.225 159.828 136.675 157.987C140.104 156.829 143.621 155.635 147.01 154.314C148.356 155.756 150.609 158.96 151.789 160.633C153.114 160.695 154.358 160.666 155.681 160.591C164.536 160.091 173.19 159.76 182.06 160.466C182.275 156.508 182.133 152.648 182.179 148.688C183.262 152.471 184.537 156.626 185.14 160.498C190.708 161.422 195.202 161.952 200.695 163.456C201.611 168.326 201.522 175.653 201.514 180.646C201.485 198.787 197.833 216.851 194.418 234.612C192.328 245.333 190.465 256.098 188.831 266.895C187.053 278.925 185.175 291.873 186.281 303.995C186.509 306.493 187.261 310.105 187.741 312.653C184.621 315.118 180.461 319.078 177.675 321.883C174.198 313.565 164.502 299.3 156.375 294.715C153.484 293.085 145.654 294.808 142.2 295.308C133.187 296.61 124.071 298.198 114.948 297.195C106.252 296.238 102.501 289.488 98.7793 282.485C89.8215 265.63 78.3998 248.364 77.988 228.646C77.8843 223.677 78.6045 218.481 79.3218 213.578L79.6463 213.746L79.9815 215.082C82.1005 222.044 85.881 222.756 89.7748 227.724C94.4088 233.637 88.8493 235.341 88.2928 239.526C87.692 244.044 92.18 249.463 94.783 252.895C93.1953 252.078 92.234 251.29 90.8315 250.215C92.214 253.178 92.4503 255.27 93.4145 258.23C94.233 260.745 98.152 264.01 100.535 264.953L100.986 264.755L101.054 264.343C100.583 263.54 99.6895 263.023 98.9075 262.458L98.9153 262.153C103.367 261.618 103.646 261.443 107.715 259.208C103.637 260.085 101.128 260.78 96.945 260.21C93.0773 257.55 94.04 255.755 96.734 252.838C99.207 252.76 101.449 251.95 103.841 251.745C107.739 251.41 112.578 252.598 116.498 253.358C114.125 254.428 112.128 255.378 109.828 256.59C114.807 255.838 117.342 254.048 121.819 252.73C119.845 247.721 119.615 251.985 116.162 250.435C109.774 247.568 105.435 243.473 98.2405 242.388C93.8975 244.001 94.5415 243.826 91.907 240.261C91.609 239.857 90.6105 239.101 90.172 238.762C98.1445 225.403 85.123 226.356 81.5098 215.048C79.5725 208.984 84.4703 208.126 88.178 204.887C90.8583 202.545 92.632 199.653 94.291 196.57C100.85 184.675 94.4935 173.688 81.6048 170.844C88.472 176.702 95.1428 175.832 96.0825 187.196C90.794 180.069 85.4215 178.245 77.39 181.71C75.4153 178.953 74.2645 176.217 73.0195 173.119C76.412 171.216 79.529 169.605 83.595 169.961C84.9478 170.08 86.0668 170.442 87.4598 170.489L87.6638 170.2C86.6125 168.42 84.0608 167.541 82.1948 166.945C88.6733 164.758 92.1738 163.307 99.107 162.188C94.857 156.811 89.9893 145.304 88.2968 138.704Z" fill="#FEFEFE"/>
<path d="M125.404 172.86L124.742 172.779L124.477 172.398C124.801 171.478 126.025 170.084 126.656 169.24C130.319 164.336 133.145 164.123 138.863 163.441C140.01 163.525 140.7 163.427 141.491 164.258C139.395 164.677 138.158 164.901 136.13 165.65C138.946 165.943 141.707 165.328 144.549 165.757C149.018 166.433 153.667 167.877 157.668 170.043C161.25 171.982 165.799 173.919 169.085 176.252C167.794 175.92 166.422 175.54 165.132 175.242C166.772 176.713 167.219 176.925 169.368 177.501C171.312 177.031 173.305 176.585 175.206 175.976C173.563 176.935 172.395 177.558 170.671 178.357C173.902 179.022 174.589 179.086 177.843 178.708C174.75 179.866 171.34 180.914 168.69 182.83C169.774 183.048 170.738 183.045 171.592 183.58C171.138 184.027 170.2 184.029 169.55 184.069L169.659 186.029C168.649 188.111 165.828 187.988 163.818 188.087C163.382 188.313 163.534 188.231 163.203 188.652C163.525 189.13 164.438 189.251 165.126 189.455C164.761 189.904 162.075 190.127 160.917 190.843L161.029 191.169C161.883 191.903 163.169 192.348 164.234 192.804C162.449 192.761 159.409 192.297 157.829 192.881L157.814 193.209L159.222 194.53L159.181 194.877C157.295 195.259 156.573 193.426 154.329 194.473C153.735 195.805 154.579 195.278 154.225 196.472C153.083 195.974 150.843 194.731 149.785 195.362L149.681 196.426L149.362 196.656C147.789 196.493 147.635 194.717 146.15 195.32C146.035 195.815 145.927 196.311 145.826 196.808L145.379 197.008C144.311 196.49 144.945 195.688 143.848 195.091C142.43 195.45 143.029 196.223 141.615 196.692C140.7 196.187 141.71 195.984 140.76 195.016C139.303 195.364 140.392 195.846 139 196.466C138.19 195.961 139.128 195.984 138.467 194.852C137.125 194.926 137.723 195.469 136.413 195.872L136.159 195.49C136.328 194.92 136.433 194.782 136.299 194.207C134.5 193.568 134.654 195.116 133.141 195.196L132.947 194.855C133.323 194.195 133.456 193.97 133.711 193.261C133.239 192.443 130.884 191.762 129.96 191.435C128.301 191.762 127.573 191.863 125.887 191.949C127.296 191.307 128.352 190.941 129.825 190.445C139.075 193.486 144.591 195.491 154.723 191.778C160.245 189.755 162.391 187.321 164.664 182.214C161.317 179.676 159.276 178.69 155.521 176.806C156.192 178.207 156.789 178.942 156.297 180.355C155.482 181.117 154.563 181.264 153.468 181.587C154.304 182.319 154.921 182.818 155.62 183.701C155.63 186.104 153.164 188.57 151.226 189.739C144.705 193.671 140.634 189.61 137.36 184.472L139.608 182.534L136.296 181.734C136.055 177.612 136.828 175.896 138.524 172.192C132.865 176.248 132.228 176.031 129.367 182.165L128.919 182.199C128.429 181.201 129.235 179.221 129.601 178.223C128.141 179.39 127.138 180.184 125.536 181.189C126.798 178.562 129.147 176.838 129.589 175.25L129.006 174.22C128.035 173.976 128.401 174.465 127.296 174.324C127.966 172.684 131.361 170.737 132.551 169.626C130.737 169.565 128.863 171.227 126.847 172.308C126.273 172.588 126.044 172.732 125.404 172.86Z" fill="black"/>
<path d="M166.455 185.179C167.068 183.977 167.545 183.538 168.692 182.83C169.777 183.048 170.741 183.045 171.594 183.58C171.14 184.027 170.202 184.029 169.552 184.069L169.662 186.029C168.652 188.111 165.83 187.988 163.82 188.087C164.719 187.539 164.383 187.9 164.866 186.963C164.95 186.049 165.753 185.712 166.455 185.179Z" fill="#C5C7C8"/>
<path d="M166.453 185.179C167.066 183.977 167.543 183.538 168.69 182.83C169.775 183.048 170.739 183.045 171.592 183.58C171.138 184.027 170.2 184.029 169.55 184.069C168.337 184.734 167.831 184.925 166.453 185.179Z" fill="#141116"/>
<path d="M164.866 186.963C166.658 187.059 169.621 186.023 169.662 186.029C168.652 188.112 165.83 187.989 163.82 188.087C164.719 187.54 164.383 187.901 164.866 186.963Z" fill="#141116"/>
<path d="M125.406 172.86C126.473 170.29 130.293 167.825 133.017 167.102C133.807 166.892 134.085 167.233 134.577 166.513C134.032 165.54 133.743 166.426 132.887 165.627L133.122 165.177C134.293 164.976 135.716 165.658 136.861 166.105C136.083 167.187 129.846 168.562 126.773 171.947L126.849 172.308C126.275 172.588 126.047 172.732 125.406 172.86Z" fill="#C5C7C8"/>
<path d="M130.976 165.912C131.473 165.948 131.438 165.946 131.876 166.188C131.474 166.84 130.645 167.067 129.841 167.464C129.373 167.73 129.614 167.655 129.094 167.63C129.555 166.89 130.269 166.451 130.976 165.912Z" fill="#9FA1A1"/>
<path d="M138.863 163.441C146.015 162.335 153.797 165.236 159.835 168.962C152.258 166.602 150.51 164.04 141.492 164.258C140.701 163.427 140.011 163.525 138.863 163.441Z" fill="#141116"/>
<path d="M93.3672 219.264C97.0617 219.578 100.063 220.903 100.653 224.944C99.7452 224.783 99.3444 224.063 98.6264 223.306C97.0412 221.635 94.9819 220.593 93.3672 219.264Z" fill="black"/>
<path d="M99.4768 253.612C100.347 253.65 100.492 253.69 100.902 254.365C100.924 255.345 99.9803 256.96 99.502 257.965C98.6933 257.945 99.0325 258.087 98.4515 257.522C98.1108 256.012 98.7738 254.915 99.4768 253.612Z" fill="black"/>
<path d="M82.8047 177.576C85.4499 177.284 91.2042 178.011 93.0922 179.879C91.3352 180.316 86.8499 177.867 83.7369 178.053L82.8047 177.576Z" fill="#141116"/>
<path d="M129.006 174.22L129.588 175.25C128.823 175.898 127.528 176.95 126.479 176.783C126.129 175.814 128.597 175.743 129.006 174.22Z" fill="#141116"/>
<path d="M83.7363 178.053C82.5405 178.315 81.0493 178.738 79.8633 178.615C80.7315 178.002 81.7533 177.844 82.804 177.576L83.7363 178.053Z" fill="#707075"/>
<path d="M164.889 17.3574L166.316 17.3659C187.589 17.5893 204.336 25.7212 219.168 40.7819C236.091 57.9654 246.295 78.3632 252.997 101.36C254.155 105.325 256.325 114.396 256.277 118.44C254.572 119.37 251.477 120 251.342 122.161C251.147 124.194 252.705 125.29 254.415 126.003C260.427 128.506 264.58 130.818 268.847 135.857C265.927 134.135 262.947 132.522 259.907 131.021C252.62 127.495 249.704 128.463 248.81 119.631C251.165 117.786 254.725 117.389 253.552 113.403C253.202 112.215 252.837 111.16 252.397 109.995C249.118 109.854 238.353 110.935 235.231 112.758C234.408 113.38 234.038 114.456 233.944 115.383C233.447 120.283 235.693 119.836 239.604 120.111C239.889 122.317 239.73 124.122 239.45 126.308C238.649 131.004 232.486 136.404 229.066 140.382C230.034 137.654 231.049 135.656 232.85 133.344C234.241 131.56 236.844 129.314 237.626 127.254C239.033 123.547 234.582 122.361 231.943 121.551C229.108 107.842 226.808 96.7882 221.53 83.6149C208.093 50.0802 174.752 20.62 136.603 26.0797C135.297 26.2667 120.256 29.2257 120.738 29.4279C122.211 28.5277 127.222 26.6014 129 25.9462C141.534 21.3244 151.599 18.119 164.889 17.3574Z" fill="#FEFEFE"/>
<path d="M190.677 321.713C190.928 322.008 190.933 322.05 191.072 322.415C193.495 328.81 196.243 333.88 201.758 338.27C208.212 343.408 214.256 347.98 221.948 351.193C216.262 354.713 210.906 359.298 205.139 362.533C198.486 366.268 190.92 369.458 183.995 372.738C180.865 374.233 177.705 375.663 174.517 377.028C172.084 366.06 162.054 354.26 156.227 343.758C170.025 343.81 171.774 339.933 180.813 330.598C183.485 327.838 187.694 324.243 190.677 321.713Z" fill="#FEFEFE"/>
<path d="M293.728 51.7598C299.068 58.0918 304.208 63.4825 308.693 70.5608C312.761 76.9798 315.501 83.3603 318.516 90.245C325.361 105.883 329.588 120.88 333.173 137.491L332.436 137.8C332.266 136.298 331.163 131.968 330.738 130.277C326.641 113.961 320.513 96.766 313.378 81.5705C311.258 77.0588 305.008 67.381 301.761 63.4998C302.371 64.9658 303.321 66.5203 303.541 68.1233C304.556 75.444 301.091 77.0213 305.168 83.9955C303.348 82.2148 300.933 78.523 299.378 76.3043C300.638 80.116 302.726 83.558 304.421 87.1843C306.746 92.156 309.193 97.3865 311.216 102.481L310.758 103.257C308.841 98.0318 301.166 83.6745 297.458 79.4863C298.473 82.4583 300.098 87.0783 300.873 90.096C299.478 87.847 297.838 84.869 296.288 82.8483C296.606 90.2878 298.436 93.5843 301.233 100.349C303.061 104.744 304.803 109.174 306.456 113.638L305.733 113.744C301.791 103.537 296.118 90.3865 288.216 82.8215C293.166 93.4303 298.318 106.202 302.403 117.207L301.683 117.301C298.098 106.719 290.986 94.101 286.176 83.8905C284.701 85.8145 283.063 87.6073 281.281 89.2488C275.258 86.593 270.811 85.1023 264.983 82.7963C267.431 87.1798 269.978 92.8798 272.141 97.475C285.253 125.343 293.596 154.705 302.096 184.197C304.486 192.49 307.596 200.92 309.873 209.077C314.121 224.29 317.111 240.719 319.126 256.358C319.601 260.045 320.426 266.308 320.543 269.925C319.988 269.765 320.118 269.713 319.713 269.058C317.771 251.44 313.378 229.646 308.786 212.477C305.501 201.412 301.696 190.606 298.546 179.482C292.786 159.142 287.018 138.72 279.616 118.904C276.966 111.813 274.026 104.612 270.638 97.8525C269.151 94.8828 267.006 92.148 265.181 89.3825C265.778 92.5428 266.971 96.086 267.931 99.1983C264.771 94.0453 261.336 88.2793 255.211 86.3455C253.846 85.9145 252.608 85.518 251.173 85.8333C250.823 86.2655 250.668 86.556 250.146 86.7325C249.249 85.8728 248.204 82.3725 247.746 81.028C252.021 81.1373 254.638 81.7283 258.841 82.5893C257.996 74.0485 258.381 75.19 255.323 67.019C258.138 70.5193 260.388 75.9908 263.318 79.0923C263.061 78.822 275.436 82.2605 276.218 82.477C278.018 81.3723 280.261 78.8205 281.773 77.2223C279.701 73.757 277.516 70.3613 275.221 67.04L275.578 66.3073C277.638 68.718 279.863 71.7285 281.831 74.2655L282.841 70.4183C284.913 70.7983 287.318 71.1065 289.423 71.4208C287.658 66.7713 283.581 61.9683 280.483 58.028L280.981 57.4578C285.891 62.7888 290.253 67.3193 295.561 72.2245C293.821 69.1 289.878 63.7345 287.738 60.754L288.233 60.2428C292.146 65.2555 293.906 67.1173 297.151 72.5615C297.206 61.7313 298.946 62.112 293.178 52.3293L293.728 51.7598Z" fill="#FEFEFE"/>
<path d="M162.157 61.6836C165.239 65.3381 168.296 68.7401 171.205 72.5521C178.477 82.0806 182.142 91.4078 185.933 102.542C184.268 100.743 181.346 97.9363 179.982 96.2138C180.164 97.4598 181.866 113.942 181.84 114.022C180.877 111.235 180.123 107.651 179.116 104.7C178.014 101.467 176.79 98.0688 175.806 94.8271C175.759 99.4223 175.621 104.342 175.747 108.913C173.924 105.125 170.755 99.2256 168.31 95.8593C168.879 98.6211 170.167 106.542 170.273 109.266L169.696 109.532C169.317 107.075 167.399 101.798 166.541 99.1963C164.785 100.131 163.234 100.712 161.361 101.353C161.743 103.914 162.148 106.471 162.576 109.025C161.866 107.545 160.925 104.622 160.255 102.933C155.796 99.9791 152.744 99.5143 147.639 98.2958C147.444 96.6021 146.366 92.6553 145.914 90.8343C148.566 89.4346 153.012 87.8346 155.838 86.8026C155.671 84.7496 154.947 81.5726 154.56 79.3863L154.912 79.4038L154.64 79.0663C155.344 80.2676 157.709 87.2428 158.303 88.8791C159.387 87.4368 161.895 85.2268 163.326 84.1158C163.088 80.9391 162.124 77.7786 160.888 74.8503L161.368 73.9823C162.04 75.7628 163.241 80.1108 164.54 80.8103C165.149 80.6486 165.612 80.5111 166.21 80.3128C166.69 80.7351 167.319 84.6741 167.909 86.2693C167.617 75.8836 167.056 71.0811 162.157 61.6836Z" fill="#FEFEFE"/>
<path d="M185.121 58.0732C187.344 60.8095 189.869 64.0795 192.189 66.676C193.468 65.698 198.434 62.4752 198.837 61.4557L199.392 60.652C204.579 65.8935 207.797 70.5572 211.025 77.2305C211.262 77.7215 212.358 80.178 212.675 80.159C213.691 80.0982 216.856 78.3775 217.758 79.561C219.701 82.1112 220.971 86.9765 222.408 89.885C221.125 89.0325 216.565 86.262 215.139 86.4485C214.965 87.251 215.209 87.954 215.387 88.7762L214.685 89.0092C211.256 80.408 207.184 75.8205 202.039 68.6875C201.509 71.138 200.621 73.1237 200.125 75.4465C201.404 80.0285 203.763 83.6862 204.952 87.606C203.038 84.418 201.862 81.9107 198.902 79.6535C199.586 83.0852 201.761 89.5335 203.351 92.678L202.638 92.7382C202.332 91.996 202.014 91.2585 201.685 90.526C200.914 88.815 198.834 84.1082 197.279 83.522C196.662 84.022 197.012 84.4817 196.556 85.708C195.975 85.435 195.388 84.1772 194.979 83.5015C194.094 84.161 193.421 84.5677 192.487 85.127C192.77 88.4705 193.364 90.3375 194.229 93.599C192.487 90.6172 192.087 88.7495 189.743 85.5202C186.922 85.3652 184.046 85.3442 181.217 85.2945C180.224 83.2507 178.318 80.33 177.074 78.3132C179.278 75.948 180.795 74.2767 182.534 71.4962C181.346 68.9765 180.592 67.6687 179.134 65.3445L179.827 64.9975L182.154 68.6045C184.369 67.7802 185.493 67.487 187.845 67.4245C187.13 64.6722 186.379 61.341 184.968 58.8947L185.121 58.0732Z" fill="#FEFEFE"/>
<path d="M338.823 244.476C339.843 245.575 341.637 250.7 342.375 252.303C354.453 278.585 359.665 305.805 337.015 328.58C335.49 330.028 333.487 331.683 331.875 333.083C340.1 316.773 343.25 299.445 343.747 281.248C344.087 268.755 341.793 256.56 338.823 244.476Z" fill="#FEFEFE"/>
<path d="M70.2781 75.4912L70.7681 76.0302C67.9606 79.793 65.1271 84.1417 62.4853 88.0652C64.3431 88.32 64.5578 88.4825 66.2791 89.15C69.0056 85.247 71.8813 80.9555 74.8213 77.248L75.3433 77.8897C71.3031 83.1662 68.8403 89.087 65.4036 94.356C68.6033 92.804 69.5006 92.678 73.0348 92.7467C74.1713 90.8172 76.0078 87.5105 77.2703 85.8172C75.9483 89.407 73.6911 93.6977 72.0593 97.264C69.4168 103.046 67.0813 108.964 65.0628 114.993L64.3953 114.441C64.6491 112.953 65.6851 108.492 64.9798 107.403C63.6488 107.751 61.8893 110.737 61.0673 111.964C61.0003 110.513 60.9753 106.913 60.4366 105.811C59.3388 106.543 60.0363 107.023 59.1928 106.908C58.9116 105.735 60.0158 100.819 60.2968 99.374C55.2538 108.389 51.5253 118.079 49.2246 128.149L48.6038 127.989C49.5698 121.306 52.3891 113.555 54.3568 107.058C54.6378 106.131 55.4681 105.232 55.3901 104.352C55.2341 104.496 54.1021 105.516 54.0056 105.518C51.8343 105.568 49.1968 105.239 47.0273 105.074C48.3788 100.69 50.5618 96.4187 52.5683 92.2917C53.7111 90.224 54.4373 88.947 55.8078 87.0092C57.3918 86.7812 59.6588 87.139 61.2226 87.377C62.9636 84.2335 67.8856 78.2 70.2781 75.4912Z" fill="#FEFEFE"/>
<path d="M122.159 71.6152C121.854 79.998 121.633 88.0295 122.15 96.439C122.369 99.995 123.051 103.237 123.42 106.676C122.095 104.412 120.152 99.277 119.105 96.6582C119.236 99.7297 119.347 102.759 119.87 105.796L116.428 97.7965C114.227 98.5232 107.804 99.851 106.656 101.549C106.561 101.69 106.277 102.875 106.215 103.148C105.571 102.301 105.602 102.048 105.401 100.958L105.089 100.649C102.151 100.803 97.8996 101.799 94.9651 102.425C93.9328 100.974 92.3648 99.2367 91.1836 97.8522C92.4718 93.8845 93.9358 90.1822 95.2223 86.308C99.1921 87.9715 102.448 90.2202 106.538 91.7872C107.165 87.5347 109.587 79.5145 110.984 75.5302L111.632 75.6867C109.794 81.7222 109.146 87.1952 107.639 92.6067C110.639 91.6335 113.616 91.0877 116.573 90.0317C117.436 86.39 118.936 82.5965 120.052 79.0067C120.816 76.55 121.442 74.0875 122.159 71.6152Z" fill="#FEFEFE"/>
<path d="M233.777 290.985C234.199 291.25 236.837 304.27 237.396 306.078C233.652 311.305 225.261 318.318 218.546 314.17C217.827 313.59 217.197 312.948 216.647 312.205C215.39 310.513 213.493 307.368 213.9 305.158C214.54 301.683 230.137 293.663 233.777 290.985Z" fill="#FEFEFE"/>
<path d="M94.9257 318.237C95.0274 318.362 95.1692 318.707 95.1624 318.852C94.3769 335.855 86.9422 367.732 64.2527 364.42C62.1714 364.117 60.2849 363.115 58.5467 361.922C56.4349 360.01 55.9194 359.277 54.5664 356.76C67.8609 357.16 76.7517 356.527 84.7224 344.522C90.2769 336.157 92.9312 328 94.9257 318.237Z" fill="#FEFEFE"/>
<path d="M140.648 80.9918L141.158 79.9775C143.819 88.6185 146.172 97.3803 147.496 106.343C146.112 103.342 145.089 100.859 143.138 98.1753C138.622 97.72 134.14 98.1148 129.642 97.7768C129.19 97.743 128.855 96.447 128.185 95.9773L128.014 96.3188C127.768 96.8183 127.694 97.0853 127.53 97.6153L126.846 98.025C124.601 91.8225 123.415 89.722 123.592 83.07C128.49 83.4545 136.613 84.0928 141.183 85.654C141.018 84.0985 140.84 82.5443 140.648 80.9918Z" fill="#FEFEFE"/>
<path d="M230.064 248.921C230.534 249.507 230.548 255.16 230.658 256.44C231.317 264.145 231.239 272.62 232.83 280.197C228.402 282.08 221.718 286.452 217.82 289.222L215.512 290.905C217.555 285.915 219.344 279.732 221.121 274.507L230.064 248.921Z" fill="#FEFEFE"/>
<path d="M102.119 66.9033L102.55 67.5996C95.5868 80.2208 87.8893 99.5381 84.5916 113.775C84.5786 111.973 84.8868 102.865 84.3323 101.886C83.9576 102.44 83.7268 102.829 83.4021 103.413C82.8833 102.282 83.7796 99.9951 84.1518 98.8071C79.7361 100.884 77.5871 100.412 75.9646 104.925C75.8186 105.333 75.6751 105.741 75.5343 106.151C73.3611 106.19 71.7108 106.177 69.5273 106.059C74.1168 95.5571 78.4701 87.8416 84.9648 78.3031L85.6698 78.5361C81.7393 85.0078 78.4126 91.8273 75.7316 98.9083C77.7193 97.1833 82.0321 95.4161 83.7661 93.4648C87.5606 89.1951 90.4088 83.3813 93.6778 78.6281C96.4068 74.6601 99.5466 70.8343 102.119 66.9033Z" fill="#FEFEFE"/>
<path d="M67.1865 69.4443L67.8433 70.0103C62.893 74.8188 59.0205 80.7703 55.2868 86.5476L55.808 87.0096C54.4375 88.9473 53.7113 90.2243 52.5685 92.2921L52.0985 91.8736C49.3875 96.5363 47.073 102.496 44.8525 107.438C43.2213 111.068 41.5613 114.671 39.9485 118.31C38.7925 120.919 37.634 125.08 36.332 127.354C38.1165 117.396 41.684 110.779 44.2323 101.842C43.058 103.212 41.5295 105.639 40.4825 107.198C40.8278 105.764 42.5725 101.656 42.4173 101.204C41.7075 101.598 41.3675 101.845 40.7103 102.329L40.529 102.189C44.536 91.8948 45.84 88.8298 54.502 81.5531C58.39 78.2868 63.257 73.0953 67.1865 69.4443Z" fill="#FEFEFE"/>
<path d="M52.0977 91.8738C53.1207 89.9333 54.1099 88.3889 55.2859 86.5479L55.8072 87.0098C54.4367 88.9476 53.7104 90.2246 52.5677 92.2924L52.0977 91.8738Z" fill="#141116"/>
<path d="M126.75 109.765C131.594 127.283 136.776 137.64 146.133 152.859C144.155 153.213 142.171 153.53 140.181 153.81C131.294 138.559 129.263 126.783 125.871 110.02L126.75 109.765Z" fill="#FEFEFE"/>
<path d="M252.692 175.104C253.515 175.069 254.34 175.076 255.162 175.124C261.695 175.503 264.842 177.893 269.052 182.65L268.792 182.642C266.552 182.59 265.25 182.824 263.035 183.164C260.425 181.703 258.967 181.1 256.06 180.572C250.57 180.234 248.697 180.724 243.68 182.808C241.953 181.922 241.01 181.627 239.152 181.124C243.833 177.041 246.364 175.53 252.692 175.104Z" fill="#FEFEFE"/>
<path d="M83.6236 185.192L84.0014 185.284C84.3666 185.817 84.3876 189.647 84.4521 190.669C85.2471 191.119 85.8541 191.291 86.2769 191.989C85.7924 192.58 85.2896 193.091 85.4176 193.863C85.8881 196.702 87.5929 198.908 89.6104 200.699L87.7444 201.908C86.8741 202.191 85.6026 202.694 84.7509 202.347C80.4579 200.598 80.1246 190.309 81.1501 186.811C81.8124 185.935 82.6154 185.676 83.6236 185.192Z" fill="#FEFEFE"/>
<path d="M276.156 298.738C280.699 287.08 283.739 277.245 284.509 264.578C284.839 258.26 284.794 251.93 284.376 245.618C284.279 244.156 283.556 237.36 284.009 236.446C284.169 236.851 285.489 254.81 285.511 256.29C285.769 270.313 283.046 284.233 277.526 297.125C277.329 297.585 276.941 298.383 276.801 298.798L276.156 298.738Z" fill="#9FA1A1"/>
<path d="M294.001 231.971L294.458 231.793C297.188 249.839 297.371 262.885 293.211 280.695L292.766 280.685C295.646 262.96 296.076 250.073 294.001 231.971Z" fill="#E1E4E6"/>
<path d="M311.219 102.48C312.984 106.142 315.507 113.101 316.854 117.002C320.532 127.644 324.454 138.841 326.647 149.876C326.902 151.163 327.709 153.435 327.614 154.601C327.157 153.858 325.972 148.09 325.587 146.626C321.617 131.855 316.664 117.366 310.762 103.257L311.219 102.48Z" fill="#707075"/>
<path d="M97.6989 243.198C99.1337 243.05 104.099 244.749 105.038 245.901L104.893 246.181L103.301 246.229C101.526 246.374 96.3079 246.847 95.6172 244.743C96.1909 243.78 96.5864 243.803 97.6989 243.198Z" fill="#FEFEFE"/>
<path d="M302.404 117.206C306.029 125.98 308.979 135.018 311.226 144.241C311.579 145.644 312.471 148.365 312.276 149.67C312.129 148.406 311.584 147.192 311.271 145.927C308.854 136.192 305.334 126.633 301.684 117.301L302.404 117.206Z" fill="#707075"/>
<path d="M263.696 218.453C263.516 220.181 258.833 223.397 257.336 224.25C251.878 227.362 246.656 227.123 240.784 225.551L240.637 225.376L240.712 225.158C241.06 225.227 241.409 225.293 241.758 225.356C251.676 227.151 256.706 225.119 263.518 218.569C263.576 218.53 263.636 218.492 263.696 218.453Z" fill="#545354"/>
<path d="M251.215 138.108C255.7 137.455 259.77 139.104 262.97 142.174C258.392 139.577 256.88 138.727 251.595 138.755C246.124 139.217 244.453 140.391 239.508 142.703C243.485 139.73 246.219 138.481 251.215 138.108Z" fill="#8B8B8E"/>
<path d="M319.715 269.058C320.12 269.713 319.99 269.765 320.545 269.925C321.192 271.523 321.787 285.9 321.61 288.113C321.34 287.825 319.827 270.775 319.715 269.058Z" fill="#9FA1A1"/>
<path d="M79.6602 209.973C79.9784 208.388 80.1277 204.878 80.8654 204.125C81.7954 204.467 81.9217 204.899 82.6219 205.747L83.3027 206.36C81.5972 207.728 80.9429 208.106 80.2544 210.23L79.6602 209.973Z" fill="#FEFEFE"/>
<path d="M67.1875 69.4446C68.511 68.0571 76.725 61.2518 78.0435 60.8086C75.729 63.3496 70.7708 67.1231 67.8443 70.0106L67.1875 69.4446Z" fill="#9FA1A1"/>
<path d="M333.175 137.49C333.94 141.528 334.395 145.099 335.04 149.087L334.865 150.193C334.012 146.447 333.103 141.564 332.438 137.799L333.175 137.49Z" fill="#9FA1A1"/>
<path d="M306.457 113.638C307.354 115.739 309.402 122.494 310.097 123.707L309.417 123.466C309.027 121.813 306.494 115.743 305.734 113.744L306.457 113.638Z" fill="#9FA1A1"/>
<path d="M90.1646 239.662C90.4546 239.839 93.1548 244.361 93.8103 245.209C91.7441 244.598 89.5756 241.832 90.1646 239.662Z" fill="#E1E4E6"/>
<path d="M126.848 98.0243L127.532 97.6146C127.696 97.0846 127.77 96.8176 128.016 96.3181L128.187 95.9766C127.765 98.1598 128.312 101.243 128.655 103.492C127.767 101.53 127.41 100.081 126.848 98.0243Z" fill="#E1E4E6"/>
<path d="M160.886 74.8502C160.056 72.551 159.223 70.2992 158.508 67.96L158.647 67.98C159.587 69.6687 160.75 72.1362 161.366 73.9822L160.886 74.8502Z" fill="#8B8B8E"/>
<path d="M88.5828 72.917L88.7843 73.6207C88.3456 74.3142 86.0268 78.101 85.6698 78.5357L84.9648 78.3027L88.5828 72.917Z" fill="#9FA1A1"/>
<path d="M102.117 66.9036C103.251 65.2343 105.172 62.2148 106.568 60.9131C105.318 63.0916 103.959 65.5321 102.548 67.5998L102.117 66.9036Z" fill="#707075"/>
<path d="M88.582 72.9176C89.28 71.7638 90.6605 69.3161 91.5613 68.5068L91.7205 68.6421C91.416 69.8208 89.5403 72.7788 88.7835 73.6213L88.582 72.9176Z" fill="#333436"/>
<path d="M283.016 54.4355C284.906 56.376 286.468 58.1825 288.233 60.2423L287.738 60.7535C286.026 58.594 284.533 56.7348 283.016 54.4355Z" fill="#C5C7C8"/>
<path d="M196.103 57.5537L199.393 60.652L198.838 61.4557C197.889 60.4885 196.879 59.3462 195.949 58.3415L196.103 57.5537Z" fill="#E1E4E6"/>
<path d="M202.637 92.739L203.35 92.6787C204.073 94.804 204.612 96.2855 205.034 98.4997C204.442 97.6282 202.994 93.8422 202.637 92.739Z" fill="#C5C7C8"/>
<path d="M176.661 60.6191C177.658 61.9576 178.962 63.6096 179.828 64.9976L179.135 65.3446C178.284 63.9809 177.399 62.6391 176.48 61.3206L176.661 60.6191Z" fill="#8B8B8E"/>
<path d="M77.8643 73.3818L78.0636 74.1033L75.3423 77.8903L74.8203 77.2486C75.7268 76.0031 76.8938 74.6063 77.8643 73.3818Z" fill="#9FA1A1"/>
<path d="M272.164 62.0283C273.342 63.4278 274.542 64.8013 275.582 66.3073L275.224 67.0401C274.319 65.9581 273.657 64.7231 272.604 63.5221L272.164 62.0283Z" fill="#9FA1A1"/>
<path d="M77.8633 73.3814C78.3988 72.6069 79.5593 70.8421 80.1338 70.2291L80.6005 70.3699L80.636 70.2611L80.3338 70.0394L80.667 69.9541C80.3233 71.3126 78.9363 72.9466 78.0625 74.1029L77.8633 73.3814Z" fill="#545354"/>
<path d="M276.157 298.737L276.802 298.797C275.884 300.837 274.994 302.657 273.574 304.392C274.422 302.417 275.174 300.657 276.157 298.737Z" fill="#707075"/>
<path d="M48.6022 127.99L49.223 128.15C49.0062 129.562 48.6912 131.006 48.4052 132.41L47.8565 132.53L48.3155 132.714L47.8555 132.811L47.861 132.943L48.186 133.061L48.0757 133.26L47.891 133.141C47.8602 131.729 48.345 129.448 48.6022 127.99Z" fill="#9FA1A1"/>
<path d="M100.069 248.093L100.511 248.392L100.469 248.852C99.8131 249.605 99.2581 249.812 98.3769 250.275C98.0509 249.975 98.0811 249.965 97.8281 249.59C98.1369 248.847 99.2081 248.522 100.069 248.093Z" fill="#E1E4E6"/>
<path d="M140.648 80.9912C140.293 79.2357 139.82 77.3157 139.84 75.543C140.43 77.1137 140.74 78.3437 141.158 79.977L140.648 80.9912Z" fill="#9FA1A1"/>
<path d="M272.603 63.5213C271.511 62.075 270.366 60.8958 269.483 59.295L269.453 59.3635L269.946 59.0508L269.391 59.131L269.568 59.6475L270.358 59.398C271.006 60.2528 271.691 61.0698 272.163 62.0275L272.603 63.5213Z" fill="#333436"/>
<path d="M125.869 110.02C125.539 107.969 125.237 105.914 124.961 103.855C125.61 105.561 126.23 107.968 126.748 109.764L125.869 110.02Z" fill="#E1E4E6"/>
<path d="M105.402 100.959C105.604 102.048 105.572 102.302 106.216 103.148C106.194 103.694 105.468 106.916 105.316 107.642C105.227 105.292 105.307 103.305 105.402 100.959Z" fill="#E1E4E6"/>
<path d="M184.967 58.8953C184.226 58.2071 182.463 55.4826 182.059 54.5488C183.194 55.7716 184.109 56.7536 185.12 58.0738L184.967 58.8953Z" fill="#333436"/>
<path d="M79.3202 213.579C79.2592 213.037 79.5777 210.66 79.6575 209.974L80.2517 210.231C79.9725 212.147 79.9375 213.124 79.98 215.082L79.6447 213.747L79.3202 213.579Z" fill="#9FA1A1"/>
<path d="M64.3952 114.441L65.0627 114.994L63.9904 118.497L63.3984 118.322C63.7074 117.464 64.1562 115.41 64.3952 114.441Z" fill="#C5C7C8"/>
<path d="M335.038 149.088C335.438 150.765 335.861 152.221 335.616 153.951L335.628 153.836C334.998 152.947 334.918 151.298 334.863 150.194L335.038 149.088Z" fill="#141116"/>
<path d="M112.076 72.0234L112.585 72.5829C112.221 73.6444 111.939 74.6112 111.632 75.6874L110.984 75.5309C111.325 74.3052 111.672 73.2294 112.076 72.0234Z" fill="#C5C7C8"/>
<path d="M72.5973 72.7559L72.8496 73.3111L70.7673 76.0301L70.2773 75.4911C70.8701 74.6866 71.9166 73.5451 72.5973 72.7559Z" fill="#9FA1A1"/>
<path d="M63.9913 118.497C63.5148 119.956 63.1861 121.061 62.4976 122.43L62.4961 121.786L62.6181 122.163C62.4973 120.989 63.0616 119.553 63.3993 118.321L63.9913 118.497Z" fill="#545354"/>
<path d="M278.418 54.8184L280.983 57.4574L280.485 58.0276C279.725 57.1189 278.96 56.2164 278.188 55.3199L278.418 54.8184Z" fill="#C5C7C8"/>
<path d="M82.6211 205.747C83.9386 204.846 84.6421 204.635 86.1951 204.188C85.3288 204.869 84.2083 205.805 83.3018 206.361L82.6211 205.747Z" fill="#E1E4E6"/>
<path d="M176.479 61.3209C175.796 60.6049 174.484 58.9962 174.113 58.1182C174.939 58.3509 176.031 59.8814 176.66 60.6194L176.479 61.3209Z" fill="#333436"/>
<path d="M309.418 123.465L310.098 123.707C310.488 125.084 310.93 126.445 311.05 127.869L310.92 127.681L311.065 127.859C310.623 127.335 309.708 124.326 309.418 123.465Z" fill="#545354"/>
<path d="M278.186 55.32C277.451 54.668 276.273 53.512 275.898 52.627L276.236 52.6517L275.996 52.9905L276.328 52.7152C277.106 53.3212 277.748 54.088 278.416 54.8185L278.186 55.32Z" fill="#333436"/>
<path d="M292.764 280.685L293.209 280.695C293.086 281.482 292.764 283.777 292.164 284.225C292.046 283.345 292.489 281.542 292.764 280.685Z" fill="#333436"/>
<path d="M96.4766 247.099C97.3198 247.032 98.4131 246.831 99.1271 247.185L99.1823 247.789C97.7648 247.942 97.4541 248.101 96.4766 247.099Z" fill="#E1E4E6"/>
<path d="M215.386 88.7764C215.605 89.5761 216.051 90.8379 215.924 91.5959C215.281 90.7991 215.049 89.9721 214.684 89.0094L215.386 88.7764Z" fill="#9FA1A1"/>
<path d="M170.273 109.267C170.451 110.333 170.737 111.428 170.533 112.461C170.083 111.963 169.813 110.257 169.695 109.532L170.273 109.267Z" fill="#8B8B8E"/>
<path d="M72.5977 72.7565C73.0827 72.1072 73.7572 70.9955 74.4532 70.752C74.3154 71.558 73.4124 72.75 72.8499 73.3117L72.5977 72.7565Z" fill="#545354"/>
<path d="M293.999 231.971C293.724 230.768 293.686 229.981 293.594 228.754L293.996 228.601L293.669 228.213C294.184 228.535 294.379 231.118 294.456 231.792L293.999 231.971Z" fill="#545354"/>
<path d="M113.696 68.0586C113.365 69.5751 113.061 71.1056 112.587 72.5821L112.078 72.0226C112.603 70.6403 113.067 69.3968 113.696 68.0586Z" fill="#545354"/>
<path d="M195.948 58.3418C195.243 57.6421 193.852 55.6893 193.191 54.8086C194.32 55.7858 195.088 56.4681 196.102 57.5541L195.948 58.3418Z" fill="#8B8B8E"/>
<path d="M293.181 52.3286C292.693 51.6131 292.086 50.3151 291.676 49.5049C292.448 50.2781 293.021 50.9341 293.731 51.7591L293.181 52.3286Z" fill="#C5C7C8"/>
<path d="M75.3008 183.398C76.1213 183.055 76.823 183.287 77.6205 183.59C76.9575 183.662 76.2933 183.722 75.628 183.77L75.3008 183.398Z" fill="#141116"/>
</g>
<defs>
<clipPath id="clip0_2492_275">
<rect width="400" height="400" fill="white"/>
</clipPath>
</defs>
</svg>
