<svg width="600" height="600" viewBox="0 0 600 600" fill="none" xmlns="http://www.w3.org/2000/svg">
<path d="M97.5771 121.126C108.341 120.82 120.033 121.043 130.855 121.043H191.035L373.01 121.045L463.988 121.036L490.118 121.033C495.989 121.034 503.694 120.852 509.393 121.64C522.348 123.505 534.48 129.096 544.312 137.733C569.228 159.406 578.19 197.215 561.295 226.497C556.203 235.319 547.414 243.997 540.482 251.678L513.655 281.418C480.644 317.958 447.825 354.676 415.203 391.563C404.111 404.111 393.099 416.73 382.171 429.421C376.235 436.32 370.156 443.885 364.039 450.591C349.745 466.388 329.357 477.901 307.783 478.783C301.104 479.056 293.302 479.17 286.677 478.332C270.004 476.229 254.391 468.081 242.067 456.816C236.45 451.684 231.768 445.856 226.852 440.07C220.962 433.142 215.036 426.239 209.075 419.369C188.897 396.216 168.568 373.194 148.089 350.305L76.2637 270.341L54.8428 246.59C50.6452 241.934 44.6681 235.682 41.2383 230.686C34.5511 220.882 30.7216 209.411 30.1777 197.557C29.2277 177.377 36.4293 157.662 50.1631 142.848C62.8932 129.179 78.99 121.85 97.5771 121.126ZM129.894 145.06C119.652 145.057 108.483 144.822 98.3135 145.146C85.6915 145.883 75.4818 150.491 67.001 160.064C58.0155 170.218 53.4278 183.523 54.2461 197.057C54.6917 204.674 57.3338 211.999 61.8525 218.147C64.8455 222.188 71.2301 228.855 74.8193 232.834L98.8447 259.463L175.324 344.721C193.37 364.927 211.28 385.256 229.052 405.702L245.223 424.558C250.032 430.218 254.257 435.711 259.958 440.548C275.003 453.31 288.872 456.005 307.866 454.669C323.607 453.559 337.884 444.271 347.892 432.567C368.036 408.814 388.471 385.309 409.189 362.056L499.682 261.009L525.595 232.271C529.957 227.431 536.455 220.988 539.792 215.617C556.602 188.547 536.763 148.945 505.298 145.403C499.705 144.774 492.958 145.057 487.266 145.057H457.585L358.529 145.06L186.259 145.062L129.894 145.06Z" fill="black"/>
<path d="M323.035 358.305C334.355 357.684 333.055 371.784 333.849 379.281C334.698 387.32 336.699 394.987 335.182 403.117C327.204 412.524 319.991 419.509 309.465 426.136C301.285 431.283 299.152 432.639 290.449 426.771C287.469 424.762 284.368 422.611 281.425 420.464C276.154 416.529 266.649 407.148 263.076 401.737C260.995 398.585 263.879 383.456 264.454 379.018C266.032 372.268 263.267 358.352 273.498 358.448C278.66 358.498 284.456 362.872 289.406 362.406C296.665 361.721 304.077 362.799 311.062 362.16C312.336 362.043 321.514 358.82 323.035 358.305ZM318.971 377.285C317.421 378.434 316.794 379.694 316.633 381.615C315.666 393.123 312.341 403.298 305.503 412.688C304.694 413.801 303.883 414.627 304.199 416.033C305.005 416.669 305.579 416.596 306.566 416.423C310.094 413.596 319.419 406.526 321.602 402.946C321.435 398.32 320.679 394.022 320.755 389.37C320.808 386.191 321.994 380.505 321.218 377.722C320.321 377.142 320.23 377.341 318.971 377.285ZM277.115 376.125C276.309 376.761 275.746 376.937 275.688 377.933C275.441 382.119 276.55 386.757 276.768 390.879C276.97 394.711 276.458 399.375 276.116 403.207C279.189 406.181 288.336 414.922 291.95 416.112C292.721 415.717 293.147 415.614 293.502 414.841C293.446 413.103 290.997 410.15 289.866 408.674C284.782 402.032 282.839 394.453 281.607 386.353C280.998 382.348 282.107 376.603 277.115 376.125ZM294.634 393.141C293.96 392.233 289.227 392.581 287.675 392.648C285.383 395.839 290.328 406.933 294.52 408.05C296.23 406.189 296.187 395.227 294.634 393.141ZM310.11 393.442C309.093 392.048 304.142 392.49 302.435 392.604C300.788 395.1 300.437 405.254 302.613 407.376C304.233 407.622 304.857 406.362 305.698 405.038C307.354 402.419 310.412 396.483 310.11 393.442ZM327.937 378.006C325.092 382.471 325.367 394.532 325.704 399.838C325.83 401.827 327.942 402.199 329.504 402.571C331.446 401.297 331.426 397.884 331.095 395.821C330.556 392.487 330.561 379.093 327.937 378.006ZM268.736 377.713C266.527 380.531 265.846 395.557 265.685 399.832C265.665 400.353 265.964 401.021 266.249 401.455C267.28 402.24 267.789 402.246 269.094 402.548C273.494 400.465 271.615 388.881 271.564 384.527C271.538 382.286 271.096 378.469 268.736 377.713ZM305.706 381.021C304.868 377.107 301.027 374.606 297.11 375.42C293.161 376.24 290.635 380.119 291.479 384.062C292.322 388.006 296.214 390.511 300.151 389.646C304.059 388.788 306.541 384.932 305.706 381.021ZM277.021 363.879C274.311 365.048 268.932 368.224 267.809 370.995C267.851 372.102 267.661 371.631 268.39 372.46C269.528 372.911 269.595 372.97 270.791 372.949C273.524 372.252 279.8 368.534 280.135 365.514C279.635 364.172 278.373 363.794 277.021 363.879ZM300.688 367.688C300.228 365.669 297.538 365.897 295.818 366.041C292.665 366.425 285.093 367.131 283.046 369.557C282.245 372.914 286.603 372.697 288.795 372.879C292.655 372.961 299.398 371.895 300.688 367.688ZM318.937 363.697C318.245 364.485 317.853 364.773 317.68 365.801C318.204 369.111 325.08 371.947 327.948 372.475L328.35 372.554C331.452 369.047 321.585 363.926 318.937 363.697ZM309.944 367.45C308.125 367.978 307.161 368.312 306.139 369.923C306.027 370.995 305.919 370.512 306.446 371.429C307.867 372.313 309.001 371.953 310.665 371.678C312.414 371.262 314.397 371.197 314.286 369.009C313.188 367.603 311.641 367.438 309.944 367.45Z" fill="black"/>
<path d="M343.785 163.207C344.931 163.243 347.283 163.247 348.306 163.44C347.301 163.551 344.811 163.716 344.028 163.855L343.785 163.207Z" fill="black"/>
<path d="M343.784 163.208C347.701 161.967 382.148 162.638 387.158 163.366C390.261 163.792 393.267 164.748 396.044 166.193C403.523 169.957 409.157 176.591 411.665 184.579C414.296 193.073 413.402 202.268 409.187 210.096C405.583 216.837 397.582 224.469 390.103 226.357C380.197 228.859 365.968 227.788 355.594 227.885C353.039 227.909 346.201 227.785 343.931 227.451L343.617 226.89C345.226 225.192 348.776 226.805 350.414 224.204C351.51 222.466 351.079 177.145 350.927 171.375C350.883 169.684 351.044 166.767 349.749 165.556C348.217 164.124 345.858 164.499 344.027 163.855L343.784 163.208ZM383.745 168.772C380.452 166.777 372.595 167.236 368.578 167.302C368.549 185.835 368.224 205.335 368.566 223.788C376.435 223.955 381.999 225.281 387.305 218.301C391.5 211.383 392.953 203.469 392.965 195.275C392.974 187.147 391.608 173.54 383.745 168.772Z" fill="black"/>
<path d="M207.081 163.421C212.196 163.401 220.104 162.859 224.898 163.674C233.701 165.169 238.859 174.922 238.921 182.874C238.985 188.242 236.85 193.404 233.011 197.156C226.401 203.692 221.374 203.645 213.019 203.582L201.146 203.484C203.278 205.342 205.452 207.153 207.665 208.914C213.687 209.017 219.97 208.935 226.012 208.935L245.401 225.528L248.07 227.826L223.867 227.973C214.288 219.74 204.256 211.341 194.517 203.295C195.044 207.771 195.047 216.905 195.19 221.736L200.235 227.706C191.253 227.978 181.126 227.739 172.057 227.727L176.706 221.191C176.435 204.499 176.682 187.131 176.684 170.385C174.599 168.12 172.545 165.828 170.523 163.507L207.081 163.421ZM213.5 166.928C211.019 166.392 197.094 166.715 193.62 166.724C193.616 177.433 193.442 188.617 193.646 199.287C200.635 199.422 207.625 199.484 214.615 199.471C216.039 198.227 217.761 196.8 219.029 195.452C220.766 193.236 222.109 191.025 222.442 188.175C223.186 181.828 222.84 173.015 217.393 168.769C216.249 167.871 214.919 167.242 213.5 166.928Z" fill="black"/>
<path d="M253.524 279.755C285.953 274.71 319.806 274.979 352.082 281.044C353.878 281.382 357.095 281.525 356.629 284.361C356.16 287.191 355.299 290.013 354.675 292.817C353.468 296.585 352.58 304.647 350.468 307.518C348.763 308.437 347.353 307.901 345.426 307.521C343.337 307.113 341.35 306.867 339.241 306.592C321.139 304.383 305.368 302.827 286.939 303.896C280.194 304.26 273.462 304.849 266.757 305.669C263.399 306.07 250.486 308.136 248.033 307.764C246.231 305.314 242.183 287.516 241.713 283.435C241.674 283.094 242.241 282.456 242.461 282.328C245.527 280.76 250.091 280.289 253.524 279.755ZM351.497 285.818C332.571 282.223 313.317 280.639 294.058 281.092C276.523 281.544 264.075 282.689 246.805 285.799C248.216 290.899 249.933 297.814 251.001 302.997C270.019 300.064 285.829 298.594 305.076 298.825C318.148 299.432 334.487 300.287 347.249 303.021C348.594 297.51 349.974 291.222 351.497 285.818Z" fill="black"/>
<path d="M261.765 285.465C267.445 284.874 270.159 288.251 268.78 294.217C268.425 295.752 267.024 296.722 265.601 297.343L259.363 298.049C259.187 295.471 258.167 288.015 258.551 285.923C259.37 285.519 260.802 285.529 261.765 285.465ZM264.656 287.812C263.66 287.25 262.3 287.438 261.202 287.512C260.922 289.087 261.519 293.777 261.686 295.711C263.175 295.544 264.267 295.477 265.715 295.049C266.978 292.74 267.284 289.294 264.656 287.812Z" fill="black"/>
<path d="M274.474 284.515C274.934 284.469 276.491 284.289 276.677 284.478C278.317 286.151 282.368 294.422 281.88 296.399L281.291 296.684C280.439 296.496 280.466 296.549 279.796 296.01C279.46 295.137 279.292 294.466 278.593 293.804L273.9 294.015C273.678 295.028 273.625 295.857 272.956 296.619C271.975 297.018 272.042 296.991 270.977 296.936C270.414 295.688 273.803 286.556 274.474 284.515ZM275.817 287.857C275.453 288.878 274.73 290.427 274.946 291.396C275.77 292.066 276.012 291.838 277.356 291.82C277.872 290.684 276.804 288.498 275.817 287.857Z" fill="black"/>
<path d="M316.059 285.086C327.174 285.111 318.364 304.761 312.883 294.876C313.407 294.094 313.533 294.114 314.336 294.152C316.325 295.696 317.96 296.584 318.458 293.092L318.145 292.832C311.623 293.543 311.869 287.155 316.059 285.086ZM316.105 286.918C315.473 288.372 315.074 289.222 315.637 290.746C316.454 291.525 316.372 291.53 317.796 291.53C318.915 289.387 319.439 287.027 316.105 286.918Z" fill="black"/>
<path d="M334.826 287.432C336.54 287.295 338.843 287.383 339.88 288.944C340.331 291.194 338.764 291.634 338.415 293.335C340.472 295.479 340.516 297.908 337.718 299.265C336.581 299.815 335.266 299.856 334.097 299.373C332.582 298.755 332.154 297.466 331.586 296.048C334.132 294.975 333.584 296.897 335.374 297.832C336.804 297.726 337.932 297.108 337.732 295.538C337.091 294.486 336.221 293.994 335.213 293.259C336.007 291.478 338.043 292.269 337.788 290.124C336.452 288.882 335.04 290.153 333.06 289.974L332.978 289.452C333.481 288.446 333.971 288.151 334.826 287.432Z" fill="black"/>
<path d="M283.938 284.273C284.753 284.247 285.433 284.123 286.132 284.494C286.468 287.097 286.441 291.591 286.505 294.346C288.218 294.316 291.504 293.766 292.633 294.999L292.562 296.095L284.087 296.364C284.008 292.334 283.958 288.304 283.938 284.273Z" fill="black"/>
<path d="M327.766 286.17C328.542 286.152 328.513 286.106 329.181 286.471C329.392 288.107 328.29 296.153 327.81 298.11C327.73 298.432 327.414 298.432 327.016 298.564C325.738 298.192 325.776 297.808 325.891 296.707L326.649 289.735C325.472 290.18 324.707 290.66 323.594 290.278L323.623 289.798C324.962 288.188 326.14 287.614 327.766 286.17Z" fill="black"/>
<path d="M308.1 284.288C308.729 284.39 308.557 284.363 309.148 284.649C309.726 286.54 309.254 294.449 308.817 296.502L308.255 296.827C307.142 296.534 307.578 296.816 306.834 296.063L306.869 294.955C307.019 292.69 307.021 290.15 307.074 287.86C306.113 288.467 305.275 289.136 304.183 288.952L304.145 288.456C305.272 286.726 306.658 285.744 308.1 284.288Z" fill="black"/>
<path d="M133.627 163.717C136.307 163.675 141.342 163.499 143.84 164.168C152.473 166.48 157.321 174.841 157.379 183.422C157.373 188.721 155.234 193.795 151.443 197.499C142.91 205.924 134.501 203.976 123.191 203.855L113.098 203.826L113.527 222.019L118.729 228.184C109.451 228.333 99.7561 228.174 90.4443 228.16L95.1895 221.488C94.8892 204.869 95.1444 187.493 95.1611 170.842C93.9136 169.486 89.8683 165.228 89.082 163.867C89.571 163.851 90.0599 163.838 90.5488 163.827C104.851 163.511 119.31 163.936 133.627 163.717ZM131.577 167.264C125.484 166.768 118.269 167.086 112.07 167.132C111.815 177.624 111.994 189.115 112.06 199.666C119.049 199.758 126.04 199.797 133.03 199.781C134.667 198.424 135.957 197.386 137.426 195.845C141.564 190.573 141.42 186.319 140.932 179.998C140.532 174.826 137.267 167.727 131.577 167.264Z" fill="black"/>
<path d="M436.212 163.588C438.078 163.401 442.282 163.518 444.286 163.518L460.247 163.524C461.067 165.442 463.247 169.193 464.328 171.179L472.446 186.066C479.047 198.165 485.65 210.261 492.207 222.382C494.053 225.793 497.149 226.233 500.606 227.438C490.997 227.707 478.936 227.639 469.306 227.42L474.055 226.189C473.788 220.7 472.566 219.778 469.555 215.201C468.295 213.238 467.067 211.254 465.872 209.249L438.828 209.418C436.678 214.507 433.663 219.491 431.929 224.824C432.655 225.715 433.845 226.82 434.691 227.654L421.133 227.358C423.107 226.846 425.079 226.315 427.042 225.764C427.836 224.349 428.527 222.883 429.222 221.418C435.491 208.226 442.03 195.15 448.142 181.89C448.464 181.194 449.278 178.377 448.924 177.74C446.483 173.345 442.918 169.302 439.73 165.412C439.253 164.831 436.921 163.903 436.212 163.588ZM440.543 205.286L453.27 205.239L463.389 205.146C461.654 202.025 453.234 186.076 451.655 184.496L440.543 205.286Z" fill="black"/>
<path d="M271.95 163.565C274.09 163.322 278.183 163.439 280.521 163.44L295.818 163.456C297.957 168.103 301.106 173.335 303.594 177.893L318.005 204.321L324.585 216.45C328.991 224.66 327.538 224.299 336.277 227.376C326.032 227.558 314.973 227.426 304.71 227.339C306.277 226.905 307.93 226.503 309.509 226.096C309.465 220.473 307.525 218.722 304.438 214.015C303.403 212.442 302.366 210.706 301.361 209.1L274.332 209.237C272.214 214.43 269.332 219.212 267.442 224.7C268.14 225.546 269.417 226.698 270.242 227.489L256.777 227.268C258.754 226.734 260.72 226.162 262.675 225.551C263.86 223.292 264.989 220.863 266.078 218.544C272.084 205.757 278.626 193.174 284.302 180.245C284.587 179.594 284.541 177.862 284.526 177.142C281.697 173.395 278.095 168.028 274.662 164.837C274.329 164.528 272.468 163.773 271.95 163.565ZM276.113 205.143L287.84 205.096L298.929 205.033C297.426 202.316 288.349 185.428 287.179 184.439L276.113 205.143Z" fill="black"/>
<path d="M407.306 292.132C411.806 291.175 410.789 296.581 408.853 298.907C406.611 301.602 404.432 303.686 401.915 306.097C405.466 306.328 414.832 304.749 415.321 308.414C414.384 311.402 408.322 313.175 405.539 314.332C391.064 320.35 376.708 322.819 361.011 321.501C360.155 321.439 359.306 321.36 358.456 321.261C354.946 320.842 346.96 320.118 344.921 317.52C344.464 314.584 350.183 312.861 352.787 309.814C356.974 304.919 356.121 302.909 358.591 297.322C359.338 295.632 364.233 296.493 366.193 296.698C380.76 298.216 393.322 295.875 407.306 292.132ZM401.616 298.6C388.773 301.547 375.404 302.93 362.268 301.169C360.355 307.805 358.608 310.978 353.566 315.797C355.415 316.028 357.492 316.339 359.326 316.5C375.181 318.308 386.71 316.046 401.329 310.869C390.235 306.812 402.513 300.097 402.396 298.579L401.616 298.6Z" fill="black"/>
<path d="M189.07 291.983C190.974 291.923 198.947 294.193 201.68 294.776C205.991 295.685 210.351 296.347 214.737 296.76C219.231 297.19 223.752 297.264 228.257 296.982C230.972 296.818 236.515 296.133 238.806 296.446C240.321 297.346 242.661 306.729 244.898 309.258C247.272 311.941 253.738 314.772 253.274 317.687C251.232 320.174 242.899 320.871 239.428 321.319C223.475 322.676 209.719 321.117 194.854 315.138C191.873 313.939 183.962 311.531 183.039 308.517C183.187 307.421 183.229 307.465 183.919 306.662C185.629 305.748 193.47 306.278 196.411 306.097C193.028 302.722 185.021 297 189.07 291.983ZM195.625 298.336C197.971 302.71 207.642 306.809 196.856 310.884C213.446 316.392 222.637 318.284 240.489 316.371L244.798 315.841C240.328 311.467 237.438 307.462 236.112 301.175C222.556 302.707 208.834 301.746 195.625 298.336Z" fill="black"/>
<path d="M280.17 333.032L280.934 333.387C280.318 334.544 280.373 334.796 280.258 336.146L279.305 335.487C279.481 334.655 279.853 333.832 280.17 333.032Z" fill="black"/>
<path d="M297.04 320.483C298.467 320.445 299.999 320.193 300.922 321.271C304.534 325.496 304.766 325.13 309.931 325.947C308.217 327.099 306.275 328.262 305.812 330.415C305.331 332.645 309.512 334.689 311.029 332.835C312.101 331.522 312.055 329.384 313.177 328.467C315.049 329.044 316.751 331.042 317.615 332.741C319.106 335.662 319.291 339.371 318.192 342.45C317.434 344.574 312.415 352.29 310.666 353.24C309.096 354.09 290.587 353.729 287.824 353.425C283.325 348.066 278.58 343.288 279.279 335.756L279.306 335.488L280.258 336.146C281.484 337.834 284.66 339.987 285.224 336.234C285.608 333.671 283.096 333.278 280.934 333.387L280.171 333.032L280.172 333.031C283.61 326.082 287.388 326.129 293.94 324.854C295.303 323.22 295.903 322.288 297.04 320.483ZM307.959 350.065C307.467 346.38 299.703 346.23 296.847 346.406C294.368 346.611 290.089 346.617 289.488 349.559C290.617 352.529 298.262 350.836 301.394 351.193C303.336 351.354 306.693 351.949 307.959 350.065ZM284.744 341.229C281.86 343.418 283.654 346.852 286.543 347.622C288.999 345.249 288.764 341.253 284.744 341.229ZM312.066 340.957C309.485 342.727 307.897 345.844 311.712 347.411C314.434 345.776 315.514 342.243 312.066 340.957ZM290.134 337.147C288.937 339.148 289.558 342.655 291.135 344.363C291.689 344.565 291.805 344.636 292.381 344.741C294.053 342.313 294.719 336.966 290.134 337.147ZM305.812 335.467C302.962 336.87 302.76 339.404 303.791 342.243C304.143 343.207 305.042 343.441 305.974 343.699C308.001 341.736 309.032 338.156 306.917 335.883L305.812 335.467ZM300.295 334.399C299.381 333.614 298.106 333.409 296.99 333.863C295.429 334.499 294.623 336.234 295.147 337.836C295.669 339.438 297.342 340.367 298.979 339.96C300.148 339.67 301.057 338.75 301.332 337.581C301.61 336.409 301.209 335.182 300.295 334.399ZM314.347 333.343C312.056 335.288 311.426 338.774 315.079 338.613C316.652 337.09 318.117 335.259 315.958 333.501C315.305 333.413 315.003 333.363 314.347 333.343ZM291.372 329.353C290.54 328.529 289.328 328.219 288.203 328.538C286.503 329.025 285.505 330.782 285.962 332.49C286.419 334.201 288.161 335.226 289.877 334.799C291.012 334.515 291.907 333.642 292.217 332.511C292.526 331.383 292.203 330.176 291.372 329.353ZM296.647 324.331C293.396 327.264 296.194 330.826 300.298 330.044C303.869 325.661 301.03 324.252 296.647 324.331Z" fill="black"/>
<path d="M352.84 242.999C356.757 242.627 360.349 242.81 363.841 244.763C371.408 248.995 371.312 260.453 363.428 264.282C361.802 265.071 360.896 265.29 359.168 265.662C355.067 266.262 350.689 265.98 347.089 263.739C340.052 259.361 340.486 248.207 347.982 244.519C349.898 243.577 350.783 243.382 352.84 242.999ZM363.393 252.418C362.341 248.277 358.181 245.728 354.015 246.674C351.223 247.307 348.993 249.405 348.193 252.153C347.394 254.902 348.147 257.868 350.159 259.901C352.175 261.935 355.134 262.716 357.891 261.941C362.004 260.785 364.444 256.56 363.393 252.418Z" fill="black"/>
<path d="M219.651 243.247L228.116 243.279C229.691 248.309 231.774 253.905 233.044 258.89C234.332 253.873 236.555 248.463 237.962 243.244L246.499 243.297L246.495 265.472L241.326 265.475L241.328 252.319C241.36 251.009 241.361 250.363 241.233 249.067C240.54 249.567 236.463 263.397 235.829 265.47L230.19 265.466C228.762 259.912 226.513 253.42 224.797 247.842C224.519 253.027 224.742 260.133 224.747 265.463L219.607 265.468C219.535 258.114 219.617 250.609 219.651 243.247Z" fill="black"/>
<path d="M315.173 243.322C316.969 243.267 318.861 243.288 320.666 243.279C324.12 248.083 328.559 253.566 332.218 258.316C332.089 253.43 332.162 248.226 332.147 243.316C333.876 243.278 335.669 243.298 337.406 243.293L337.415 265.47L331.553 265.478C329.654 262.417 322.77 253.949 320.306 250.888C320.581 255.095 320.42 261.191 320.429 265.469L315.164 265.474C315.249 258.139 315.176 250.667 315.173 243.322Z" fill="black"/>
<path d="M294.903 243.217C296.863 243.29 299.005 243.266 300.979 243.282C303.971 250.021 308.644 258.609 312.051 265.454L305.948 265.488C304.548 262.311 304.911 260.545 301.126 260.459L292.278 260.462L290.184 265.48L284.094 265.467C287.653 258.184 291.543 250.559 294.903 243.217ZM297.698 248.841C296.544 251.346 295.308 254.199 294.074 256.638L298.902 256.653L301.706 256.642C301.056 255.207 298.68 249.535 297.698 248.841Z" fill="black"/>
<path d="M263.269 243.468L268.878 243.478L268.861 261.746L282.825 261.739L282.889 265.318C281.362 265.829 265.913 265.489 263.254 265.476L263.269 243.468Z" fill="black"/>
<path d="M252.025 243.325C253.837 243.266 255.808 243.298 257.634 243.294L257.66 265.467H252C252.085 258.13 252.022 250.671 252.025 243.325Z" fill="black"/>
<path d="M339.243 306.592C341.352 306.867 343.339 307.113 345.428 307.521L344.877 308.162C347.569 311.555 342.905 313.875 340.728 316.28C339.955 317.136 338.393 317.66 337.207 317.522C334.635 316.283 335.689 312.316 335.675 309.987C335.669 308.974 336.469 308.411 337.219 307.887C338.399 307.503 338.467 307.509 339.243 306.592Z" fill="black"/>
<path d="M252.988 307.831C255.513 308.022 259.385 307.251 261.028 308.707C262.292 310.984 261.801 313.594 261.439 316.09C261.301 317.048 260.645 317.441 259.873 317.948C257.253 317.687 251.581 312.437 251.555 309.66C251.968 308.535 252.008 308.596 252.988 307.831Z" fill="black"/>
</svg>
