<svg width="820" height="1014" viewBox="0 0 820 1014" fill="none" xmlns="http://www.w3.org/2000/svg">
<g clip-path="url(#clip0_2492_389)">
<path d="M0 0H820V1014H0V0Z" fill="white"/>
<path d="M426.128 79.9502C436.347 80.4374 448.573 80.1037 459.021 80.1007L517.794 80.0938H697.897L758.436 80.07C769.003 80.0665 779.991 79.87 790.538 80.3958C794.702 80.7052 797.737 82.2574 800.773 85.0103C806.002 89.7515 806.046 96.6797 806.091 103.454L806.071 588.68V762.367V818.607C806.071 828.811 806.101 838.882 805.903 849.186C805.734 858.152 800.129 865.841 790.79 866.708C785.22 867.223 778.936 866.94 773.296 866.935L743.091 866.911H644.275H330.526H140.391L41.2103 866.901C17.136 866.658 19.3609 855.464 19.4288 836.481L19.491 807.789L19.4863 713.494L19.4629 567.216C19.4595 541.45 18.8917 513.026 19.6697 487.434C24.66 489.513 30.4212 492.635 35.5288 494.958C45.44 499.41 55.5607 503.386 65.8557 506.862C125.538 526.325 189.782 526.844 249.771 508.347C326.39 484.421 390.273 430.876 427.212 359.621C462.846 290.421 470.438 210.153 448.41 135.501C444.873 123.338 440.497 111.436 435.316 99.8772C432.977 94.6473 427.499 84.9167 426.128 79.9502Z" fill="black"/>
<path d="M158.709 87.062C232.837 86.248 293.592 145.673 294.41 219.794C295.228 293.915 235.8 354.666 161.671 355.488C87.5369 356.31 26.7737 296.883 25.9556 222.756C25.1375 148.63 84.5743 87.8759 158.709 87.062Z" fill="black"/>
<path d="M332.969 946.129L340.216 946.243C344.892 951.506 354.771 967.869 359.711 974.796C366.194 965.983 371.955 955.15 378.746 946.292C380.931 946.134 383.992 946.198 386.258 946.183L386.255 1002.16L376.171 1002.15C376.017 996.255 376.106 989.972 376.086 984.045C376.093 978.396 375.926 973.529 375.609 967.884C372.669 973.514 363.722 987.288 359.587 992.19C354.056 985.565 348.29 975.682 343.61 968.171C342.641 975.653 343.057 993.739 343.071 1002.15H332.868C332.638 984.783 332.465 963.295 332.969 946.129Z" fill="black"/>
<path d="M745.101 946.129L752.395 946.248C757.604 952.674 766.819 967.449 771.751 974.885C776.772 967.899 786.125 951.649 791.097 946.223L798.321 946.173L798.302 1002.17L788.25 1002.14L788.215 984.045C788.22 978.316 788.057 973.806 787.646 968.092C784.115 974.435 776.252 986.709 771.701 992.195C766.289 985.753 760.208 975.484 755.791 968.176C754.672 976.648 755.113 992.903 755.128 1002.17L745.012 1002.14C744.71 985.426 744.536 962.601 745.101 946.129Z" fill="black"/>
<path d="M91.1903 946.174C97.879 946.11 105.163 945.912 111.818 946.253C116.082 946.471 121.096 948.481 123.726 951.957C126.545 955.685 127.179 960.765 126.472 965.316C125.505 971.539 121.185 974.213 116.543 977.575C122.249 984.645 129.042 995.731 134.73 1001.65C131.407 1002.05 127.316 1002.44 123.983 1002.17C122.023 1002 122.076 1001.64 121.014 1000.36C117.487 995.577 107.188 977.54 102.222 977.253C100.759 979.634 101.377 998.142 101.378 1002.17L91.168 1002.14L91.1903 946.174Z" fill="black"/>
<path d="M104.451 955.804L105.596 955.799C109.679 955.819 112.743 955.497 115.883 958.7C118.887 961.765 115.654 966.692 113.141 968.821C109.483 969.098 105.107 968.984 101.387 968.984C101.373 966.112 100.804 958.923 102.004 956.443C102.275 955.883 103.615 955.918 104.451 955.804Z" fill="white"/>
<path d="M483.018 946.14L490.521 946.254C499.041 956.77 510.416 971.262 518.081 982.239C519.16 971.99 518.289 957.166 518.69 946.145L528.806 946.214L528.786 1002.15L521.403 1002.1C518.482 999.122 513.897 992.839 511.153 989.279C505.276 981.694 499.443 974.074 493.655 966.425C492.683 973.005 493.112 994.349 493.122 1002.17L482.942 1002.14C482.791 983.972 482.642 964.216 483.018 946.14Z" fill="black"/>
<path d="M27.7234 946.149C36.6961 946.095 52.565 944.476 59.9143 949.972C67.1106 955.359 67.5354 968.623 61.7063 975.218C57.0542 980.486 52.7224 980.783 46.1748 981.283L37.8784 981.337C37.6096 987.853 37.7709 995.527 37.7436 1002.14L27.6621 1002.16L27.7234 946.149Z" fill="black"/>
<path d="M41.1505 955.823C47.5615 955.709 56.7292 954.541 55.4037 965.003C55.0605 967.711 53.6587 969.518 51.4072 971.033C46.9723 971.811 42.3067 971.662 37.7961 971.657C37.8327 966.691 37.0409 961.705 38.1136 956.962C39.2271 955.62 38.7917 956.046 41.1505 955.823Z" fill="white"/>
<path d="M429.732 946.179L437.205 946.203C445.007 964.488 451.826 983.545 459.724 1001.8C456.004 1002.22 452.249 1002.23 448.527 1001.82C446.746 997.889 445.321 993.804 444.269 989.62L437.664 989.368C432.554 989.323 427.443 989.368 422.335 989.501C420.971 994.086 419.828 997.488 418.108 1001.95C414.061 1002.16 411.057 1002.15 407.002 1001.76C409.604 996.71 411.364 991.239 413.593 986.07C419.052 973.405 423.903 958.502 429.732 946.179Z" fill="black"/>
<path d="M433.048 963.756C434.473 965.058 439.256 977.282 439.28 979.327C437.721 980.065 435.552 979.842 433.736 979.842L426.922 979.773C428.88 974.455 431.019 969.059 433.048 963.756Z" fill="white"/>
<path d="M157.385 946.174C168.287 946.115 179.189 946.145 190.09 946.263C189.914 949.67 189.907 952.413 189.975 955.824L167.523 955.992L167.468 968.994C173.315 968.994 179.161 969.059 185.007 969.187C184.811 972.257 184.843 975.673 184.809 978.778L167.572 978.862L167.454 983.853L167.512 992.552C175.094 992.656 182.676 992.636 190.257 992.502C190.399 995.607 190.375 999.013 190.416 1002.15L157.338 1002.13L157.385 946.174Z" fill="black"/>
<path d="M287.978 946.278C292.29 945.936 303.076 947.461 304.905 951.932C304.905 953.739 302.591 956.838 301.473 958.655C298.342 957.353 295.592 956.185 292.311 955.843C281.287 954.769 277.107 962.998 289.2 967.568C296.989 970.806 307.463 974.504 307.32 984.689C307.138 997.646 297.957 1002.31 286.094 1002.07C278.442 1001.06 274.591 999.344 269.096 993.962C270.427 992.299 273.499 989.392 275.125 987.768C279.737 991.378 296.397 998.29 297.364 984.921C297.642 981.094 284.396 976.95 280.437 974.866C271.925 970.385 269.276 961.691 274.438 953.165C277.237 948.525 282.887 947.149 287.978 946.278Z" fill="black"/>
<path d="M229.491 946.282C233.868 945.936 244.524 947.471 246.437 951.966C246.47 953.447 243.968 957.022 243.013 958.65C238.068 956.611 225.374 952.179 223.32 960.982C222.828 963.092 226.979 965.849 228.722 966.661C236.72 970.4 248.395 973.38 248.848 984.199C248.976 997.577 239.546 1002.15 227.538 1002.11C223.116 1001.38 211.818 998.74 211.479 993.427C212.601 991.343 214.844 989.516 216.619 987.838C221.665 991.526 226.743 993.408 233.063 992.422C235.924 991.972 240.064 987.922 238.878 984.921C237.264 981.064 230.88 978.401 226.877 977.074C215.889 973.425 209.3 964.225 215.887 953.11C218.516 948.674 224.374 947.139 229.491 946.282Z" fill="black"/>
<path d="M592.331 946.174C603.22 946.115 614.113 946.145 625.002 946.263L624.908 955.834L602.576 955.968L602.541 968.994C608.354 968.994 614.163 969.059 619.976 969.187C619.936 971.366 620.204 977.297 619.313 978.793L602.571 978.882L602.526 1002.16L592.281 1002.13L592.331 946.174Z" fill="black"/>
<path d="M686.512 946.159L696.688 946.204L696.738 992.591C704.155 992.621 712.098 992.789 719.466 992.403L719.52 1002.13L686.433 1002.16C686.339 983.491 686.369 964.825 686.512 946.159Z" fill="black"/>
<path d="M648.255 964.008H658.51L658.49 1002.16L648.24 1002.14L648.255 964.008Z" fill="black"/>
<path d="M652.295 938.886C656.593 938.163 660.683 940.995 661.515 945.268C662.342 949.546 659.614 953.705 655.36 954.641C652.513 955.264 649.547 954.299 647.621 952.116C645.69 949.932 645.095 946.872 646.066 944.124C647.036 941.376 649.423 939.371 652.295 938.886Z" fill="black"/>
</g>
<defs>
<clipPath id="clip0_2492_389">
<rect width="820" height="1014" fill="white"/>
</clipPath>
</defs>
</svg>
