<svg width="2144" height="2144" viewBox="0 0 2144 2144" fill="none" xmlns="http://www.w3.org/2000/svg">
<path d="M1099.33 304.011C1163.22 304.028 1188.32 334.657 1231.1 375.369L1203.17 403.325C1188.5 388.574 1172.57 371.291 1150.09 371.898C1137.06 372.249 1125.55 375.329 1116.23 385.101C1111.02 390.609 1107.35 397.401 1105.61 404.785C1103.19 414.845 1104.02 434.831 1104.05 445.999L1104.18 502.309L1013.84 592.681L1013.85 710.615L1262.36 462.181L1295.42 495.242C1241.95 548.345 1239.1 653.899 1279.02 716.207C1311.31 766.601 1385.82 799.795 1439.72 763.027L1472.75 794.277L1296.07 970.888C1260.08 1006.87 1220.58 1044.93 1185.72 1081.68C1217.16 1059.1 1247.26 1050.49 1285.52 1051.66C1417.52 1055.7 1461.14 1168.68 1470.38 1282.64C1473.49 1321.03 1472.8 1355.57 1472.8 1394.16L1472.76 1552.66C1472.75 1585.42 1470.37 1647.76 1493.35 1672.88C1502.15 1682.5 1514.2 1684.34 1526.57 1684.25C1554.66 1684.05 1568.35 1668.53 1586.51 1650.28L1615.12 1621.48L1648.26 1654.72L1593.88 1707.97C1561.68 1739.51 1528.4 1775.87 1480.38 1779.49C1442.97 1781.74 1399.17 1773.01 1370.42 1747.73C1310.9 1695.41 1315.99 1604.15 1316.04 1531.91L1316.09 1392.69C1316.09 1288.53 1321.96 1133.24 1170.06 1147.98C1116.49 1153.18 1086.5 1180.78 1050.56 1217.84C1038.99 1229.79 1024.43 1241.91 1013.85 1254.71V1446.56C1064.01 1398.58 1131.96 1398.27 1186.46 1439.27C1199.35 1449.62 1218.6 1468.99 1231.14 1480.86L1203.22 1508.78C1188.4 1494.04 1172.66 1476.96 1150.36 1477.25C1137.86 1477.41 1125.77 1481.19 1116.8 1490.11C1111.12 1495.8 1107.17 1502.99 1105.43 1510.83C1103.19 1520.68 1104 1541.92 1104.05 1553.24L1104.18 1607.79L1013.85 1698.15V1779.85H973.724L973.724 1293.81L942.501 1324.63L942.519 1350.34C942.5 1423.1 935.357 1468.45 888.79 1527.76C849.936 1577.24 805.431 1619.75 761.146 1664.06L645.266 1779.92L612.11 1746.82L676.798 1683.43C689.769 1670.71 704.511 1656.85 716.206 1643.11C775.119 1573.22 783.837 1479.15 785.938 1391.29C786.802 1342.09 770.057 1271.87 708.904 1271.23C687.746 1271.01 663.52 1283.03 647.837 1296.68C635.579 1307.34 623.697 1319.88 612.203 1331.46L579.062 1298.46C643.084 1234.23 687.922 1177.54 786.094 1176.66L786.089 823.177L786.136 724.559C786.198 679.256 789.717 617.355 755.862 582.089C743.783 569.376 727.024 562.165 709.488 562.136C667.645 561.91 639.164 595.227 612.238 622.292L579.138 589.213C640.974 527.29 688.594 467.668 785.081 467.494C883.836 467.315 928.279 538.299 939.443 628.9C942.786 656.029 942.516 680.841 942.529 708.551L942.506 782.022L973.724 750.711L973.683 543.149C973.637 471.721 962.53 382.136 1023.84 331.997C1045.88 313.973 1071.42 306.371 1099.33 304.011ZM1013.85 776.919L1013.86 1188.58L1101.62 1100.83C1167.81 1034.57 1236.57 963.815 1303.71 898.921C1256.43 897.71 1221.13 883.402 1187.99 848.9C1145.9 805.091 1130.61 745.867 1131.89 686.322C1132.04 679.294 1135.9 658.774 1135.47 655.224L1013.85 776.919ZM942.501 848.236L942.532 1118.65C942.531 1164.6 941.477 1214.07 942.688 1259.64L973.724 1228.66L973.694 936.889L973.831 856.265C973.844 849.568 974.251 823.137 973.354 817.423L942.501 848.236Z" fill="#030200"/>
</svg>
