<svg width="400" height="400" viewBox="0 0 400 400" fill="none" xmlns="http://www.w3.org/2000/svg">
<path d="M198.41 131.019C203.421 130.71 206.393 134.765 207.007 139.213C209.267 155.583 209.262 173.117 209.639 189.575C212.962 189.8 216.97 189.747 220.368 189.846C228.028 190.065 235.687 190.336 243.344 190.659C249.412 190.928 255.09 191.152 261.148 192.543C270.223 194.627 270.768 204.163 261.825 206.856C260.46 207.267 258.963 207.536 257.515 207.708C241.636 209.597 225.57 209.333 209.601 209.984C209.789 219.075 209.014 257.635 205.674 264.32C204.626 266.417 202.826 267.787 200.625 268.5C200.297 268.515 199.968 268.52 199.639 268.515C195.424 268.415 192.712 264.557 192.065 260.727C189.792 247.278 190.09 233.441 189.557 219.84C189.43 216.627 189.307 213.152 189.433 209.946C179.122 209.758 168.814 209.432 158.511 208.966C151.499 208.642 139.865 208.892 133.603 205.013C132.418 204.28 130.637 201.321 130.592 199.911C130.473 196.119 134.715 193.134 138.098 192.478C142.862 191.397 147.516 191.17 152.273 190.866C164.609 190.078 176.961 189.867 189.305 189.639C189.755 178.312 189.399 143.272 193.316 135.077C194.321 132.974 196.303 131.776 198.41 131.019Z" fill="black"/>
<path d="M243.701 151.603C270.952 151.278 309.179 159.162 328.657 179.531C341.724 193.197 338.514 211.652 324.767 223.363C304.324 240.776 267.882 249.017 241.63 247.733C239.738 247.503 237.64 247.17 236.105 245.963C234.832 244.956 234.012 243.482 233.827 241.869C233.485 238.974 235.23 235.47 237.855 234.267C242.748 232.027 249.386 231.893 254.867 230.805C275.729 226.52 301.734 223.991 316.904 207.485C321.889 202.064 319.999 194.306 314.862 189.684C299.367 175.741 276.642 173.099 256.977 169.038C250.554 167.711 242.295 167.788 236.693 164.434C235.167 163.283 233.81 161.181 233.755 159.288C233.569 152.892 238.784 151.91 243.701 151.603Z" fill="black"/>
<path d="M151.933 151.617C154.548 151.514 157.466 151.512 159.998 152.21C161.863 152.723 163.705 153.76 164.636 155.526C165.506 157.175 165.405 159.12 164.808 160.839C163.973 163.243 161.891 165.111 159.538 165.992C155.318 167.573 148.116 168.004 143.453 168.792C127.797 171.437 110.529 174.494 96.2562 181.533C89.9207 184.657 82.0642 189.348 79.7444 196.406C78.7944 199.296 79.1122 202.291 80.4902 204.987C88.9254 221.497 126.415 227.754 143.286 230.682C148.509 231.588 154.327 231.856 159.362 233.486C161.617 234.216 163.389 235.522 164.435 237.675C165.26 239.374 165.517 241.515 164.855 243.305C164.17 245.158 162.838 246.108 161.146 246.93C156.388 248.666 144.286 247.566 139.053 246.98C117.106 244.35 91.4512 238.667 74.4897 223.588C48.5124 200.496 66.8542 175.269 92.2729 164.382C112.889 155.551 130.033 152.687 151.933 151.617Z" fill="black"/>
</svg>
