<svg width="443" height="114" viewBox="0 0 443 114" fill="none" xmlns="http://www.w3.org/2000/svg">
<g clip-path="url(#clip0_2492_169)">
<path d="M144.615 0H153.427C153.966 0.644241 154.211 0.588859 155.254 0.653231C165.337 1.27558 175.278 5.49865 181.908 13.3865C185.587 17.7728 187.978 23.0957 188.813 28.762C184.38 30.2563 179.926 31.6883 175.453 33.0581C173.7 33.5999 170.901 34.5686 169.213 34.9214C165.741 20.9014 154.527 15.9505 140.964 18.839C134.317 20.2545 128.638 24.7551 130.396 32.2393C131.95 38.8554 140.169 41.151 145.777 42.8469C162.339 47.8372 184.638 50.9961 189.672 70.7927C191.786 79.1035 191.2 89.5802 186.822 96.9759C179.7 108.921 166.48 113.151 153.29 113.082C142.503 113.025 133.35 113.012 123.652 107.394C112.018 100.654 107.507 91.5796 105.34 78.8447C108.128 77.8062 110.99 77.5243 113.866 76.8858C117.913 75.987 122.122 75.1303 126.124 74.0777C128.315 87.3015 135.017 94.1123 148.515 94.9378C150.274 94.9365 152.313 94.9858 154.048 94.9172C160.69 94.0362 167.892 91.5569 169.331 83.9267C171.812 70.7639 154.772 67.6096 145.537 64.895C133.792 61.4428 120.439 58.3436 113.151 47.4597C109.011 41.2812 108.102 33.1405 109.297 25.9223C111.678 11.5277 123.637 3.38584 137.287 1.0958C138.928 0.822185 143.575 0.731222 144.615 0Z" fill="black"/>
<path d="M240.327 65.9096C242.247 42.161 261.13 25.9032 285.106 28.6967C294.084 29.7109 302.278 34.3021 307.832 41.434C315.308 50.9259 316.668 63.8915 316.592 75.6058C313.722 76.0426 303.616 75.7211 300.24 75.7777C287.163 75.9966 273.551 75.4666 260.509 75.8226C261.588 82.2723 263.784 88.3499 269.319 92.2972C273.38 95.1507 278.397 96.3032 283.294 95.5091C290.809 94.2385 295.06 90.8053 297.885 83.6976C302.281 85.5809 311.078 88.6706 315.736 90.1761C313.157 98.0284 306.303 105.532 298.979 109.247C294.671 111.452 289.964 112.763 285.138 113.103C284.077 113.185 283.052 112.892 282.825 114H278.249L277.9 113.255C276.013 113.04 273.763 113.035 272.06 112.735C262.922 111.157 254.681 106.272 248.906 99.0111C241.501 89.7061 239.385 77.5629 240.327 65.9096ZM295.038 60.9955C294.148 50.9392 288.757 45.3737 278.396 45.7289C269.461 46.517 263.178 52.0604 261.55 60.9779L278.704 60.9935L295.038 60.9955Z" fill="black"/>
<path d="M346.81 37.0128C352.829 31.4519 359.821 28.4768 368.064 28.9263C377.76 29.455 383.179 33.0433 389.096 40.2684C398.544 28.2657 419.197 24.8604 431.353 34.6966C437.515 39.6815 440.383 46.8317 441.13 54.5826C441.859 62.0192 441.599 69.9334 441.593 77.4382L441.569 112.63C434.523 112.438 427.019 112.572 419.939 112.585L419.932 79.1566C419.934 72.7558 420.142 66.7836 419.485 60.2714C417.831 43.8564 396.482 46.4365 393.698 60.32C392.682 65.386 393.14 73.0404 393.14 78.4724L393.138 112.388C385.958 112.342 378.776 112.338 371.596 112.376L371.583 77.9853C371.585 73.9312 371.557 69.8772 371.579 65.8137C371.603 61.4468 370.993 55.2257 367.695 51.9863C362.94 47.3171 353.551 48.3437 349.257 53.2321C347.296 55.3867 345.288 58.8778 345.148 61.8025C345.28 64.0152 345.718 66.0665 345.729 68.3346C345.788 81.6488 345.881 94.9812 345.688 108.293C345.677 109.022 345.193 112.02 344.77 112.469C338.13 112.147 330.211 112.344 323.491 112.392C323.383 111.408 323.411 110.372 323.414 109.38C322.346 107.392 322.674 96.8286 322.672 93.9143L322.67 73.1888L322.672 50.4844C322.674 46.1959 322.316 36.6645 323.403 32.8657C323.366 32.3764 323.433 31.207 323.448 30.6645C325.618 30.6815 344.063 30.5461 344.651 30.8379L344.921 31.9405C345.072 32.8038 345.766 36.4237 346.347 36.9314L346.81 37.0128Z" fill="black"/>
<path d="M323.403 32.8652C323.824 37.9102 323.63 45.058 323.63 50.2674L323.623 79.639L323.632 98.842C323.634 101.31 323.755 107.118 323.414 109.379C322.346 107.391 322.674 96.8281 322.672 93.9139L322.67 73.1884L322.672 50.484C322.674 46.1954 322.316 36.664 323.403 32.8652Z" fill="black"/>
<path d="M345.147 61.8027C345.279 64.0155 345.717 66.0668 345.728 68.3349C345.786 81.6491 345.879 94.9815 345.687 108.293C345.676 109.022 345.192 112.02 344.769 112.469C344.635 111.123 344.736 107.572 344.736 106.03V92.7599L344.74 73.7005C344.743 70.8732 344.593 64.309 345.147 61.8027Z" fill="black"/>
<path d="M344.92 31.9404C345.071 32.8038 345.765 36.4236 346.347 36.9313L346.809 37.0127C346.18 37.6244 345.523 38.3595 344.92 39.0069C344.791 37.001 344.659 33.9197 344.92 31.9404Z" fill="black"/>
<path d="M197.256 15.3631C202.891 15.4038 211.343 15.6802 216.793 15.208C216.832 21.4268 216.556 29.7368 216.91 35.6823C223.059 35.5794 229.21 35.5393 235.361 35.5627L235.368 56.302C230.218 56.4087 221.873 56.6081 216.848 56.2367L216.817 74.7575C216.815 78.2037 216.5 83.0691 217.241 86.329C219.262 95.2212 228.666 94.6657 235.392 94.0462L235.357 112.014C212.082 116.577 199.134 107.329 197.291 83.3151C196.829 81.3619 196.906 73.2777 196.904 70.8819L196.899 48.9236L196.898 27.1816C196.903 24.9609 196.891 17.2914 197.256 15.3631Z" fill="black"/>
<path d="M197.291 83.3143C196.829 81.3612 196.906 73.2769 196.904 70.8812L196.899 48.9229L196.898 27.1809C196.903 24.9602 196.891 17.2906 197.256 15.3623C197.377 17.7877 197.833 20.3299 197.856 22.7271C197.966 33.9313 197.92 45.125 197.92 56.3357C197.92 64.1513 198.032 72.1438 197.76 79.9456C197.716 81.2236 197.419 82.1812 197.291 83.3143Z" fill="black"/>
<path d="M12.8379 10.9641C13.2624 10.9282 13.7414 10.9577 14.1586 11.047C16.4076 11.5286 48.6681 34.4534 52.9634 37.4072C63.0222 44.3247 73.335 50.9399 83.1855 58.155C83.9571 58.7203 84.6936 59.2732 85.2093 60.0967C85.5692 60.671 85.7086 61.1186 85.5461 61.7952C84.9934 64.0977 79.3962 71.7329 77.6401 73.627C77.1934 74.1087 76.6496 74.4756 76.0926 74.817C75.9251 74.8131 75.7576 74.8053 75.5905 74.7936C74.3821 74.7034 73.4528 74.1745 72.4551 73.502C67.8551 70.4006 63.2712 67.211 58.7017 64.0651L28.7655 43.3861L11.0762 31.3596C0.875883 24.3167 1.70796 25.6652 8.76742 15.6014C10.1511 13.6289 10.9362 12.4582 12.8379 10.9641Z" fill="black"/>
<path d="M11.2536 38.7064C12.4522 38.6969 13.08 38.8967 14.0941 39.5429C19.8341 43.1991 25.4167 47.1605 31.0178 51.0324L59.9261 71.0681L70.5501 78.3838C73.3654 80.2876 81.6176 85.603 83.3871 87.7653C84.2495 91.0231 79.2706 96.0021 77.6051 98.7822C76.6887 100.312 75.4079 101.677 73.7744 102.43C73.7223 102.429 73.6702 102.426 73.6181 102.422C72.7175 102.353 72.2106 102.215 71.4431 101.706C68.1233 99.5017 64.8066 97.1905 61.5295 94.9324L41.9399 81.4278L16.7224 64.0431C13.1607 61.5912 3.87464 55.6694 1.35707 52.7301C0.658121 50.5016 7.72503 42.1978 9.20528 40.1843C9.68577 39.5306 10.5131 39.0445 11.2536 38.7064Z" fill="black"/>
<path d="M10.8331 67.4934C11.3824 67.4469 12.003 67.4458 12.5412 67.5779C14.071 67.9537 49.4688 92.4834 53.5894 95.5927C54.4064 96.2093 55.7056 97.1885 56.199 98.0802C56.408 98.4577 56.2143 99.2094 56.0903 99.6044C55.3113 102.086 49.9884 109.297 48.0558 111.252C47.5889 111.725 47.0373 112.053 46.4512 112.356C44.8721 112.389 43.8565 111.704 42.5815 110.813C29.8247 101.907 16.9305 93.1929 4.15272 84.3189C3.09213 83.5823 1.87113 82.3404 1.19194 81.2701C0.769515 79.5311 8.75035 68.689 10.8331 67.4934Z" fill="black"/>
<path d="M41.3159 1.26465C43.235 1.35905 46.6929 4.06074 48.3865 5.22377L57.4317 11.4511L73.2922 22.3825C76.2091 24.3982 82.7398 28.4641 85.0972 31.4454C85.3537 32.1432 84.9059 33.8342 84.4665 34.3503C82.0739 37.1608 78.5142 44.6941 75.0809 45.6699C74.7628 45.6612 74.4455 45.6311 74.1355 45.555C72.3758 45.1224 37.4396 20.8978 33.4548 17.8354C32.8757 17.3905 32.3058 16.8938 31.9356 16.2545C31.649 15.7596 31.3057 15.0493 31.4672 14.4718C32.2701 11.6008 38.8077 2.72802 41.3159 1.26465Z" fill="black"/>
</g>
<defs>
<clipPath id="clip0_2492_169">
<rect width="442.641" height="114" fill="white"/>
</clipPath>
</defs>
</svg>
